ScienceGothic-LtCndCtrS.ufo
<glyph name="exclam" format="2">
  <advance width="243"/>
  <unicode hex="0021"/>
  <outline>
    <contour>
      <point x="-33" y="22" type="line"/>
      <point x="-25" y="64" type="line"/>
      <point x="-24" y="73"/>
      <point x="-21" y="84"/>
      <point x="-15" y="89"/>
      <point x="-4" y="90"/>
      <point x="5" y="90" type="qcurve" smooth="yes"/>
      <point x="27" y="90" type="line" smooth="yes"/>
      <point x="36" y="90"/>
      <point x="47" y="89"/>
      <point x="51" y="84"/>
      <point x="51" y="73"/>
      <point x="49" y="64" type="qcurve"/>
      <point x="41" y="22" type="line"/>
      <point x="40" y="13"/>
      <point x="37" y="2"/>
      <point x="31" y="-3"/>
      <point x="20" y="-4"/>
      <point x="11" y="-4" type="qcurve" smooth="yes"/>
      <point x="-12" y="-4" type="line" smooth="yes"/>
      <point x="-21" y="-4"/>
      <point x="-31" y="-3"/>
      <point x="-35" y="2"/>
      <point x="-35" y="13"/>
      <point x="-33" y="22" type="qcurve"/>
    </contour>
    <contour>
      <point x="40" y="330" type="line"/>
      <point x="225" y="1400" type="line"/>
      <point x="265" y="1400" type="line"/>
      <point x="76" y="330" type="line"/>
    </contour>
  </outline>
</glyph>
<glyph name="quotedbl" format="2">
  <advance width="347"/>
  <unicode hex="0022"/>
  <outline>
    <contour>
      <point x="152" y="1056" type="line"/>
      <point x="139" y="925" type="line"/>
      <point x="159" y="925" type="line"/>
      <point x="192" y="1056" type="line"/>
      <point x="262" y="1453" type="line"/>
      <point x="264" y="1465"/>
      <point x="259" y="1471"/>
      <point x="246" y="1471" type="qcurve" smooth="yes"/>
      <point x="244" y="1471" type="line" smooth="yes"/>
      <point x="231" y="1471"/>
      <point x="224" y="1465"/>
      <point x="222" y="1453" type="qcurve"/>
    </contour>
    <contour>
      <point x="288" y="1056" type="line"/>
      <point x="275" y="925" type="line"/>
      <point x="295" y="925" type="line"/>
      <point x="328" y="1056" type="line"/>
      <point x="398" y="1453" type="line"/>
      <point x="400" y="1465"/>
      <point x="395" y="1471"/>
      <point x="382" y="1471" type="qcurve" smooth="yes"/>
      <point x="380" y="1471" type="line" smooth="yes"/>
      <point x="367" y="1471"/>
      <point x="360" y="1465"/>
      <point x="358" y="1453" type="qcurve"/>
    </contour>
  </outline>
</glyph>
<glyph name="dollar" format="2">
  <advance width="563"/>
  <unicode hex="0024"/>
  <outline>
    <contour>
      <point x="120" y="-154" type="line"/>
      <point x="156" y="-154" type="line"/>
      <point x="186" y="16" type="line"/>
      <point x="201" y="16" type="line" smooth="yes"/>
      <point x="254.25" y="16"/>
      <point x="333.969" y="38.5625"/>
      <point x="390.781" y="86.9375"/>
      <point x="426.625" y="162.75"/>
      <point x="436" y="216" type="qcurve" smooth="yes"/>
      <point x="490" y="526" type="line" smooth="yes"/>
      <point x="499.375" y="579.25"/>
      <point x="490.094" y="655.062"/>
      <point x="450.156" y="703.438"/>
      <point x="378.25" y="726"/>
      <point x="325" y="726" type="qcurve" smooth="yes"/>
      <point x="310" y="726" type="line"/>
      <point x="418" y="1348" type="line"/>
      <point x="419" y="1348" type="line" smooth="yes"/>
      <point x="508.797" y="1348"/>
      <point x="568.847" y="1277.31"/>
      <point x="553" y="1186" type="qcurve" smooth="yes"/>
      <point x="523" y="1012" type="line"/>
      <point x="564" y="1022" type="line"/>
      <point x="593" y="1184" type="line" smooth="yes"/>
      <point x="602" y="1237.25"/>
      <point x="592.625" y="1313.06"/>
      <point x="552.875" y="1361.44"/>
      <point x="481.25" y="1384"/>
      <point x="428" y="1384" type="qcurve" smooth="yes"/>
      <point x="425" y="1384" type="line"/>
      <point x="454" y="1554" type="line"/>
      <point x="418" y="1554" type="line"/>
      <point x="389" y="1384" type="line"/>
      <point x="384" y="1384" type="line" smooth="yes"/>
      <point x="330.75" y="1384"/>
      <point x="250.75" y="1361.44"/>
      <point x="193.75" y="1313.06"/>
      <point x="158" y="1237.25"/>
      <point x="149" y="1184" type="qcurve" smooth="yes"/>
      <point x="97" y="890" type="line" smooth="yes"/>
      <point x="88" y="836.75"/>
      <point x="97.375" y="760.938"/>
      <point x="137.125" y="712.562"/>
      <point x="208.75" y="690"/>
      <point x="262" y="690" type="qcurve" smooth="yes"/>
      <point x="267" y="690" type="line"/>
      <point x="156" y="52" type="line"/>
      <point x="141" y="52" type="line" smooth="yes"/>
      <point x="51.2026" y="52"/>
      <point x="-8.8466" y="122.693"/>
      <point x="7" y="214" type="qcurve" smooth="yes"/>
      <point x="42" y="410" type="line"/>
      <point x="0" y="400" type="line"/>
      <point x="-32" y="216" type="line" smooth="yes"/>
      <point x="-41.375" y="162.75"/>
      <point x="-32.0938" y="86.9375"/>
      <point x="7.84375" y="38.5625"/>
      <point x="79.75" y="16"/>
      <point x="133" y="16" type="qcurve" smooth="yes"/>
      <point x="150" y="16" type="line"/>
    </contour>
    <contour>
      <point x="274" y="726" type="line"/>
      <point x="271" y="726" type="line" smooth="yes"/>
      <point x="181.203" y="726"/>
      <point x="121.153" y="796.693"/>
      <point x="137" y="888" type="qcurve" smooth="yes"/>
      <point x="189" y="1186" type="line" smooth="yes"/>
      <point x="204.847" y="1277.31"/>
      <point x="289.203" y="1348"/>
      <point x="379" y="1348" type="qcurve" smooth="yes"/>
      <point x="382" y="1348" type="line"/>
    </contour>
    <contour>
      <point x="192" y="52" type="line"/>
      <point x="303" y="690" type="line"/>
      <point x="320" y="690" type="line" smooth="yes"/>
      <point x="409.797" y="690"/>
      <point x="469.847" y="619.307"/>
      <point x="454" y="528" type="qcurve" smooth="yes"/>
      <point x="399" y="214" type="line" smooth="yes"/>
      <point x="383.153" y="122.693"/>
      <point x="298.797" y="52"/>
      <point x="209" y="52" type="qcurve" smooth="yes"/>
    </contour>
  </outline>
</glyph>
<glyph name="percent" format="2">
  <advance width="918"/>
  <unicode hex="0025"/>
  <outline>
    <contour>
      <point x="184" y="614" type="qcurve" smooth="yes"/>
      <point x="196" y="614" type="line" smooth="yes"/>
      <point x="259" y="614"/>
      <point x="323" y="667"/>
      <point x="334" y="731" type="qcurve" smooth="yes"/>
      <point x="431" y="1288" type="line" smooth="yes"/>
      <point x="442" y="1351"/>
      <point x="396" y="1404"/>
      <point x="334" y="1404" type="qcurve" smooth="yes"/>
      <point x="322" y="1404" type="line" smooth="yes"/>
      <point x="262" y="1404"/>
      <point x="195" y="1351"/>
      <point x="184" y="1288" type="qcurve" smooth="yes"/>
      <point x="87" y="731" type="line" smooth="yes"/>
      <point x="76" y="667"/>
      <point x="123" y="614"/>
    </contour>
    <contour>
      <point x="187" y="644" type="line" smooth="yes"/>
      <point x="142" y="644"/>
      <point x="112" y="680"/>
      <point x="120" y="725" type="qcurve" smooth="yes"/>
      <point x="219" y="1293" type="line" smooth="yes"/>
      <point x="227" y="1338"/>
      <point x="269" y="1374"/>
      <point x="314" y="1374" type="qcurve" smooth="yes"/>
      <point x="332" y="1374" type="line" smooth="yes"/>
      <point x="378" y="1374"/>
      <point x="406" y="1338"/>
      <point x="398" y="1293" type="qcurve" smooth="yes"/>
      <point x="299" y="725" type="line" smooth="yes"/>
      <point x="291" y="680"/>
      <point x="251" y="644"/>
      <point x="205" y="644" type="qcurve" smooth="yes"/>
    </contour>
    <contour>
      <point x="869" y="1400" type="line"/>
      <point x="21" y="0" type="line"/>
      <point x="54" y="0" type="line"/>
      <point x="902" y="1400" type="line"/>
    </contour>
    <contour>
      <point x="595" y="-3" type="qcurve" smooth="yes"/>
      <point x="607" y="-3" type="line" smooth="yes"/>
      <point x="670" y="-3"/>
      <point x="734" y="50"/>
      <point x="745" y="114" type="qcurve" smooth="yes"/>
      <point x="842" y="671" type="line" smooth="yes"/>
      <point x="853" y="734"/>
      <point x="807" y="787"/>
      <point x="745" y="787" type="qcurve" smooth="yes"/>
      <point x="733" y="787" type="line" smooth="yes"/>
      <point x="673" y="787"/>
      <point x="606" y="734"/>
      <point x="595" y="671" type="qcurve" smooth="yes"/>
      <point x="498" y="114" type="line" smooth="yes"/>
      <point x="487" y="50"/>
      <point x="534" y="-3"/>
    </contour>
    <contour>
      <point x="598" y="27" type="line" smooth="yes"/>
      <point x="553" y="27"/>
      <point x="523" y="63"/>
      <point x="531" y="108" type="qcurve" smooth="yes"/>
      <point x="630" y="676" type="line" smooth="yes"/>
      <point x="638" y="721"/>
      <point x="680" y="757"/>
      <point x="725" y="757" type="qcurve" smooth="yes"/>
      <point x="743" y="757" type="line" smooth="yes"/>
      <point x="789" y="757"/>
      <point x="817" y="721"/>
      <point x="809" y="676" type="qcurve" smooth="yes"/>
      <point x="710" y="108" type="line" smooth="yes"/>
      <point x="702" y="63"/>
      <point x="662" y="27"/>
      <point x="616" y="27" type="qcurve" smooth="yes"/>
    </contour>
  </outline>
</glyph>
<glyph name="ampersand" format="2">
  <advance width="530"/>
  <unicode hex="0026"/>
  <outline>
    <contour>
      <point x="44" y="0" type="line"/>
      <point x="65" y="0" type="line" smooth="yes"/>
      <point x="87" y="0"/>
      <point x="125" y="13"/>
      <point x="160" y="40"/>
      <point x="194" y="83"/>
      <point x="212" y="113" type="qcurve" smooth="yes"/>
      <point x="311" y="279" type="line"/>
      <point x="366" y="0" type="line"/>
      <point x="407" y="0" type="line"/>
      <point x="342" y="329" type="line"/>
      <point x="523" y="641" type="line"/>
      <point x="514" y="697" type="line"/>
      <point x="331" y="381" type="line"/>
      <point x="233" y="877" type="line" smooth="yes"/>
      <point x="228" y="900"/>
      <point x="223" y="945"/>
      <point x="222" y="998"/>
      <point x="228" y="1059"/>
      <point x="235" y="1098" type="qcurve" smooth="yes"/>
      <point x="254" y="1202" type="line" smooth="yes"/>
      <point x="263" y="1255"/>
      <point x="292" y="1319"/>
      <point x="327" y="1353"/>
      <point x="365" y="1364"/>
      <point x="384" y="1364" type="qcurve" smooth="yes"/>
      <point x="396" y="1364" type="line" smooth="yes"/>
      <point x="414" y="1364"/>
      <point x="449" y="1353"/>
      <point x="472" y="1319"/>
      <point x="479" y="1255"/>
      <point x="470" y="1202" type="qcurve" smooth="yes"/>
      <point x="431" y="983" type="line"/>
      <point x="473" y="992" type="line"/>
      <point x="509" y="1200" type="line" smooth="yes"/>
      <point x="517" y="1250"/>
      <point x="513" y="1324"/>
      <point x="487" y="1375"/>
      <point x="439" y="1400"/>
      <point x="404" y="1400" type="qcurve" smooth="yes"/>
      <point x="388" y="1400" type="line" smooth="yes"/>
      <point x="353" y="1400"/>
      <point x="296" y="1375"/>
      <point x="252" y="1324"/>
      <point x="221" y="1250"/>
      <point x="213" y="1200" type="qcurve" smooth="yes"/>
      <point x="195" y="1098" type="line" smooth="yes"/>
      <point x="186" y="1049"/>
      <point x="182" y="974"/>
      <point x="187" y="906"/>
      <point x="200" y="836"/>
      <point x="209" y="791" type="qcurve"/>
      <point x="74" y="596" type="line" smooth="yes"/>
      <point x="46" y="556"/>
      <point x="9" y="494"/>
      <point x="-16" y="435"/>
      <point x="-32" y="368"/>
      <point x="-40" y="321" type="qcurve" smooth="yes"/>
      <point x="-61" y="200" type="line" smooth="yes"/>
      <point x="-70" y="151"/>
      <point x="-65" y="76"/>
      <point x="-39" y="25"/>
      <point x="9" y="0"/>
      <point x="44" y="0" type="qcurve"/>
    </contour>
    <contour>
      <point x="52" y="36" type="line" smooth="yes"/>
      <point x="33" y="36"/>
      <point x="-1" y="47"/>
      <point x="-24" y="81"/>
      <point x="-31" y="145"/>
      <point x="-21" y="198" type="qcurve" smooth="yes"/>
      <point x="5" y="347" type="line" smooth="yes"/>
      <point x="11" y="386"/>
      <point x="24" y="438"/>
      <point x="43" y="484"/>
      <point x="73" y="533"/>
      <point x="97" y="567" type="qcurve" smooth="yes"/>
      <point x="219" y="742" type="line"/>
      <point x="300" y="331" type="line"/>
      <point x="181" y="131" type="line" smooth="yes"/>
      <point x="165" y="104"/>
      <point x="138" y="68"/>
      <point x="111" y="46"/>
      <point x="85" y="36"/>
      <point x="70" y="36" type="qcurve" smooth="yes"/>
    </contour>
  </outline>
  <guideline angle="90" x="19" y="0"/>
  <guideline angle="90" x="951" y="0"/>
  <guideline angle="90" x="-262" y="0"/>
</glyph>
<glyph name="quotesingle" format="2">
  <advance width="211"/>
  <unicode hex="0027"/>
  <outline>
    <contour>
      <point x="148" y="1036" type="line"/>
      <point x="135" y="905" type="line"/>
      <point x="155" y="905" type="line"/>
      <point x="188" y="1036" type="line"/>
      <point x="258" y="1433" type="line"/>
      <point x="260" y="1445"/>
      <point x="255" y="1451"/>
      <point x="242" y="1451" type="qcurve" smooth="yes"/>
      <point x="240" y="1451" type="line" smooth="yes"/>
      <point x="227" y="1451"/>
      <point x="220" y="1445"/>
      <point x="218" y="1433" type="qcurve"/>
    </contour>
  </outline>
</glyph>
<glyph name="parenleft" format="2">
  <advance width="325"/>
  <unicode hex="0028"/>
  <outline>
    <contour>
      <point x="155" y="-256" type="line"/>
      <point x="117" y="-189"/>
      <point x="68" y="0"/>
      <point x="48" y="223"/>
      <point x="60" y="471"/>
      <point x="82" y="597" type="qcurve" smooth="yes"/>
      <point x="104" y="723"/>
      <point x="179" y="970"/>
      <point x="276" y="1193"/>
      <point x="391" y="1381"/>
      <point x="452" y="1448" type="qcurve"/>
      <point x="418" y="1448" type="line"/>
      <point x="354" y="1376"/>
      <point x="238" y="1183"/>
      <point x="141" y="961"/>
      <point x="67" y="719"/>
      <point x="46" y="597" type="qcurve" smooth="yes"/>
      <point x="3" y="352"/>
      <point x="43" y="-111"/>
      <point x="121" y="-256" type="qcurve"/>
    </contour>
  </outline>
</glyph>
<glyph name="parenright" format="2">
  <advance width="325"/>
  <unicode hex="0029"/>
  <outline>
    <contour>
      <point x="140" y="1448" type="line"/>
      <point x="178" y="1381"/>
      <point x="227" y="1192"/>
      <point x="247" y="969"/>
      <point x="235" y="721"/>
      <point x="213" y="595" type="qcurve" smooth="yes"/>
      <point x="191" y="469"/>
      <point x="116" y="222"/>
      <point x="19" y="-1"/>
      <point x="-96" y="-189"/>
      <point x="-157" y="-256" type="qcurve"/>
      <point x="-123" y="-256" type="line"/>
      <point x="-59" y="-184"/>
      <point x="57" y="9"/>
      <point x="154" y="231"/>
      <point x="228" y="473"/>
      <point x="249" y="595" type="qcurve" smooth="yes"/>
      <point x="292" y="840"/>
      <point x="252" y="1303"/>
      <point x="174" y="1448" type="qcurve"/>
    </contour>
  </outline>
</glyph>
<glyph name="plus" format="2">
  <advance width="608"/>
  <unicode hex="002B"/>
  <outline>
    <contour>
      <point x="535" y="605" type="line"/>
      <point x="312" y="605" type="line"/>
      <point x="368" y="927" type="line"/>
      <point x="328" y="927" type="line"/>
      <point x="272" y="605" type="line"/>
      <point x="49" y="605" type="line"/>
      <point x="42" y="569" type="line"/>
      <point x="265" y="569" type="line"/>
      <point x="208" y="241" type="line"/>
      <point x="248" y="241" type="line"/>
      <point x="305" y="569" type="line"/>
      <point x="528" y="569" type="line"/>
    </contour>
  </outline>
</glyph>
<glyph name="comma" format="2">
  <advance width="245"/>
  <unicode hex="002C"/>
  <outline>
    <contour>
      <point x="-30" y="-114" type="line"/>
      <point x="34" y="-6" type="line"/>
      <point x="38" y="2"/>
      <point x="41" y="12"/>
      <point x="43" y="22" type="qcurve"/>
      <point x="51" y="64" type="line" smooth="yes"/>
      <point x="55" y="83"/>
      <point x="48" y="90"/>
      <point x="29" y="90" type="qcurve" smooth="yes"/>
      <point x="7" y="90" type="line" smooth="yes"/>
      <point x="-12" y="90"/>
      <point x="-19" y="83"/>
      <point x="-23" y="64" type="qcurve" smooth="yes"/>
      <point x="-31" y="22" type="line" smooth="yes"/>
      <point x="-34" y="5"/>
      <point x="-30" y="-4"/>
      <point x="-17" y="-4" type="qcurve" smooth="yes"/>
      <point x="-12" y="-4" type="line"/>
      <point x="-53" y="-108" type="line"/>
    </contour>
  </outline>
</glyph>
<glyph name="period" format="2">
  <advance width="245"/>
  <unicode hex="002E"/>
  <outline>
    <contour>
      <point x="-31" y="22" type="line"/>
      <point x="-34.0184" y="3.135"/>
      <point x="-28.1104" y="-4"/>
      <point x="-10" y="-4" type="qcurve" smooth="yes"/>
      <point x="13" y="-4" type="line" smooth="yes"/>
      <point x="31.75" y="-4"/>
      <point x="40" y="3.25"/>
      <point x="43" y="22" type="qcurve"/>
      <point x="51" y="64" type="line"/>
      <point x="54.0184" y="82.865"/>
      <point x="47.865" y="90"/>
      <point x="29" y="90" type="qcurve" smooth="yes"/>
      <point x="7" y="90" type="line" smooth="yes"/>
      <point x="-11.75" y="90"/>
      <point x="-20" y="82.75"/>
      <point x="-23" y="64" type="qcurve"/>
    </contour>
  </outline>
</glyph>
<glyph name="zero" format="2">
  <advance width="594"/>
  <unicode hex="0030"/>
  <outline>
    <contour>
      <point x="167" y="-4" type="qcurve" smooth="yes"/>
      <point x="188" y="-4" type="line" smooth="yes"/>
      <point x="291" y="-4"/>
      <point x="394" y="89"/>
      <point x="413" y="196" type="qcurve" smooth="yes"/>
      <point x="589" y="1204" type="line" smooth="yes"/>
      <point x="608" y="1311"/>
      <point x="537" y="1404"/>
      <point x="434" y="1404" type="qcurve" smooth="yes"/>
      <point x="413" y="1404" type="line" smooth="yes"/>
      <point x="314" y="1404"/>
      <point x="207" y="1311"/>
      <point x="188" y="1204" type="qcurve" smooth="yes"/>
      <point x="12" y="196" type="line" smooth="yes"/>
      <point x="-7" y="89"/>
      <point x="67" y="-4"/>
    </contour>
    <contour>
      <point x="176" y="32" type="line" smooth="yes"/>
      <point x="92" y="32"/>
      <point x="36" y="104"/>
      <point x="52" y="194" type="qcurve" smooth="yes"/>
      <point x="228" y="1206" type="line" smooth="yes"/>
      <point x="244" y="1296"/>
      <point x="325" y="1368"/>
      <point x="409" y="1368" type="qcurve" smooth="yes"/>
      <point x="426" y="1368" type="line" smooth="yes"/>
      <point x="514" y="1368"/>
      <point x="565" y="1296"/>
      <point x="549" y="1206" type="qcurve" smooth="yes"/>
      <point x="373" y="194" type="line" smooth="yes"/>
      <point x="357" y="104"/>
      <point x="281" y="32"/>
      <point x="193" y="32" type="qcurve" smooth="yes"/>
    </contour>
  </outline>
</glyph>
<glyph name="two" format="2">
  <advance width="548"/>
  <unicode hex="0032"/>
  <outline>
    <contour>
      <point x="-27" y="0" type="line"/>
      <point x="9" y="205" type="line" smooth="yes"/>
      <point x="16" y="246"/>
      <point x="44" y="319"/>
      <point x="82" y="389"/>
      <point x="129" y="460"/>
      <point x="155" y="497" type="qcurve" smooth="yes"/>
      <point x="357" y="785" type="line" smooth="yes"/>
      <point x="385" y="824"/>
      <point x="428" y="895"/>
      <point x="460" y="962"/>
      <point x="482" y="1028"/>
      <point x="487" y="1061" type="qcurve"/>
      <point x="514" y="1216" type="line" smooth="yes"/>
      <point x="528" y="1291"/>
      <point x="472" y="1364"/>
      <point x="399" y="1364" type="qcurve" smooth="yes"/>
      <point x="393" y="1364" type="line" smooth="yes"/>
      <point x="320" y="1364"/>
      <point x="240" y="1291"/>
      <point x="226" y="1216" type="qcurve" smooth="yes"/>
      <point x="190" y="1010" type="line"/>
      <point x="152" y="1018" type="line"/>
      <point x="186" y="1214" type="line" smooth="yes"/>
      <point x="194" y="1261"/>
      <point x="229" y="1331"/>
      <point x="282" y="1377"/>
      <point x="354" y="1400"/>
      <point x="399" y="1400" type="qcurve" smooth="yes"/>
      <point x="405" y="1400" type="line" smooth="yes"/>
      <point x="451" y="1400"/>
      <point x="515" y="1377"/>
      <point x="552" y="1331"/>
      <point x="562" y="1261"/>
      <point x="554" y="1214" type="qcurve" smooth="yes"/>
      <point x="527" y="1059" type="line" smooth="yes"/>
      <point x="521" y="1024"/>
      <point x="495" y="951"/>
      <point x="458" y="876"/>
      <point x="412" y="801"/>
      <point x="385" y="763" type="qcurve" smooth="yes"/>
      <point x="183" y="475" type="line" smooth="yes"/>
      <point x="157" y="438"/>
      <point x="113" y="370"/>
      <point x="78" y="304"/>
      <point x="55" y="238"/>
      <point x="48" y="202" type="qcurve"/>
      <point x="19" y="36" type="line"/>
      <point x="226" y="36" type="line" smooth="yes"/>
      <point x="268" y="36"/>
      <point x="326" y="82"/>
      <point x="333" y="120" type="qcurve" smooth="yes"/>
      <point x="351" y="226" type="line"/>
      <point x="390" y="216" type="line"/>
      <point x="374" y="127" type="line" smooth="yes"/>
      <point x="369" y="99"/>
      <point x="344" y="52"/>
      <point x="307" y="18"/>
      <point x="258" y="0"/>
      <point x="230" y="0" type="qcurve" smooth="yes"/>
    </contour>
  </outline>
</glyph>
<glyph name="three" format="2">
  <advance width="575"/>
  <unicode hex="0033"/>
  <outline>
    <contour>
      <point x="46" y="398" type="line"/>
      <point x="11" y="195" type="line" smooth="yes"/>
      <point x="-8" y="86"/>
      <point x="70" y="-4"/>
      <point x="147" y="-4" type="qcurve" smooth="yes"/>
      <point x="188" y="-4" type="line" smooth="yes"/>
      <point x="232" y="-4"/>
      <point x="300" y="15"/>
      <point x="351" y="60"/>
      <point x="384" y="137"/>
      <point x="394" y="195" type="qcurve" smooth="yes"/>
      <point x="462" y="582" type="line" smooth="yes"/>
      <point x="475" y="656"/>
      <point x="437" y="710"/>
      <point x="374" y="712" type="qcurve"/>
      <point x="437" y="715"/>
      <point x="493" y="785"/>
      <point x="509" y="879" type="qcurve" smooth="yes"/>
      <point x="568" y="1213" type="line" smooth="yes"/>
      <point x="577" y="1265"/>
      <point x="567" y="1338"/>
      <point x="534" y="1383"/>
      <point x="479" y="1404"/>
      <point x="442" y="1404" type="qcurve" smooth="yes"/>
      <point x="397" y="1404" type="line" smooth="yes"/>
      <point x="355" y="1404"/>
      <point x="289" y="1387"/>
      <point x="241" y="1343"/>
      <point x="209" y="1270"/>
      <point x="199" y="1214" type="qcurve" smooth="yes"/>
      <point x="158" y="978" type="line"/>
      <point x="196" y="970" type="line"/>
      <point x="239" y="1216" type="line" smooth="yes"/>
      <point x="255" y="1304"/>
      <point x="325" y="1368"/>
      <point x="391" y="1368" type="qcurve" smooth="yes"/>
      <point x="436" y="1368" type="line" smooth="yes"/>
      <point x="493" y="1368"/>
      <point x="542" y="1298"/>
      <point x="528" y="1215" type="qcurve" smooth="yes"/>
      <point x="469" y="879" type="line" smooth="yes"/>
      <point x="453" y="788"/>
      <point x="401" y="728"/>
      <point x="339" y="728" type="qcurve" smooth="yes"/>
      <point x="237" y="728" type="line"/>
      <point x="231" y="692" type="line"/>
      <point x="351" y="692" type="line" smooth="yes"/>
      <point x="402" y="692"/>
      <point x="433" y="645"/>
      <point x="422" y="582" type="qcurve" smooth="yes"/>
      <point x="354" y="193" type="line" smooth="yes"/>
      <point x="337" y="100"/>
      <point x="265" y="32"/>
      <point x="195" y="32" type="qcurve" smooth="yes"/>
      <point x="154" y="32" type="line" smooth="yes"/>
      <point x="93" y="32"/>
      <point x="35" y="105"/>
      <point x="51" y="193" type="qcurve" smooth="yes"/>
      <point x="88" y="406" type="line"/>
    </contour>
  </outline>
</glyph>
<glyph name="five" format="2">
  <advance width="486"/>
  <unicode hex="0035"/>
  <outline>
    <contour>
      <point x="84" y="-12" type="qcurve" smooth="yes"/>
      <point x="116" y="-12"/>
      <point x="199" y="9"/>
      <point x="282" y="92"/>
      <point x="358" y="257"/>
      <point x="383" y="400" type="qcurve" smooth="yes"/>
      <point x="407" y="537"/>
      <point x="403" y="702"/>
      <point x="362" y="790"/>
      <point x="290" y="818"/>
      <point x="246" y="818" type="qcurve" smooth="yes"/>
      <point x="231" y="818"/>
      <point x="197" y="813"/>
      <point x="163" y="802"/>
      <point x="131" y="788"/>
      <point x="119" y="779" type="qcurve"/>
      <point x="266" y="1362" type="line"/>
      <point x="492" y="1362" type="line"/>
      <point x="510" y="1400" type="line"/>
      <point x="239" y="1400" type="line"/>
      <point x="63" y="706" type="line"/>
      <point x="86" y="726"/>
      <point x="131" y="755"/>
      <point x="176" y="773"/>
      <point x="220" y="782"/>
      <point x="241" y="782" type="qcurve" smooth="yes"/>
      <point x="283" y="782"/>
      <point x="340" y="749"/>
      <point x="367" y="663"/>
      <point x="363" y="515"/>
      <point x="343" y="400" type="qcurve" smooth="yes"/>
      <point x="322" y="278"/>
      <point x="263" y="130"/>
      <point x="195" y="50"/>
      <point x="124" y="24"/>
      <point x="91" y="24" type="qcurve" smooth="yes"/>
      <point x="66" y="24"/>
      <point x="26" y="28"/>
      <point x="-7" y="38"/>
      <point x="-38" y="55"/>
      <point x="-55" y="68" type="qcurve"/>
      <point x="-55" y="20" type="line"/>
      <point x="-40" y="12"/>
      <point x="-11" y="0"/>
      <point x="21" y="-8"/>
      <point x="59" y="-12"/>
    </contour>
  </outline>
</glyph>
<glyph name="six" format="2">
  <advance width="525"/>
  <unicode hex="0036"/>
  <outline>
    <contour>
      <point x="143" y="-8" type="qcurve" smooth="yes"/>
      <point x="205" y="-8"/>
      <point x="286" y="30"/>
      <point x="341" y="116"/>
      <point x="379" y="256"/>
      <point x="397" y="358" type="qcurve" smooth="yes"/>
      <point x="409" y="426"/>
      <point x="421" y="557"/>
      <point x="400" y="662"/>
      <point x="337" y="726"/>
      <point x="274" y="726" type="qcurve" smooth="yes"/>
      <point x="255" y="726"/>
      <point x="217" y="720"/>
      <point x="175" y="706"/>
      <point x="124" y="684"/>
      <point x="92" y="668" type="qcurve"/>
      <point x="84" y="624" type="line"/>
      <point x="119" y="646"/>
      <point x="175" y="672"/>
      <point x="220" y="686"/>
      <point x="255" y="690"/>
      <point x="268" y="690" type="qcurve" smooth="yes"/>
      <point x="315" y="690"/>
      <point x="364" y="646"/>
      <point x="382" y="563"/>
      <point x="372" y="444"/>
      <point x="359" y="368" type="qcurve" smooth="yes"/>
      <point x="343" y="272"/>
      <point x="309" y="142"/>
      <point x="264" y="62"/>
      <point x="200" y="28"/>
      <point x="153" y="28" type="qcurve" smooth="yes"/>
      <point x="100" y="28"/>
      <point x="47" y="74"/>
      <point x="36" y="196"/>
      <point x="65" y="409"/>
      <point x="94" y="576" type="qcurve" smooth="yes"/>
      <point x="118" y="716"/>
      <point x="177" y="998"/>
      <point x="254" y="1225"/>
      <point x="354" y="1368"/>
      <point x="418" y="1368" type="qcurve" smooth="yes"/>
      <point x="427" y="1368"/>
      <point x="446" y="1366"/>
      <point x="466" y="1362"/>
      <point x="487" y="1355"/>
      <point x="497" y="1350" type="qcurve"/>
      <point x="490" y="1392" type="line"/>
      <point x="472" y="1400"/>
      <point x="440" y="1404"/>
      <point x="424" y="1404" type="qcurve" smooth="yes"/>
      <point x="350" y="1404"/>
      <point x="237" y="1272"/>
      <point x="150" y="1049"/>
      <point x="84" y="755"/>
      <point x="56" y="592" type="qcurve" smooth="yes"/>
      <point x="28" y="433"/>
      <point x="-4" y="206"/>
      <point x="8" y="60"/>
      <point x="73" y="-8"/>
    </contour>
  </outline>
</glyph>
<glyph name="eight" format="2">
  <advance width="574"/>
  <unicode hex="0038"/>
  <outline>
    <contour>
      <point x="43" y="203" type="qcurve" smooth="yes"/>
      <point x="99" y="520" type="line" smooth="yes"/>
      <point x="107" y="567"/>
      <point x="133" y="633"/>
      <point x="172" y="675"/>
      <point x="226" y="694"/>
      <point x="262" y="694" type="qcurve" smooth="yes"/>
      <point x="316" y="694" type="line" smooth="yes"/>
      <point x="352" y="694"/>
      <point x="399" y="675"/>
      <point x="423" y="633"/>
      <point x="427" y="567"/>
      <point x="419" y="520" type="qcurve" smooth="yes"/>
      <point x="363" y="203" type="line" smooth="yes"/>
      <point x="345" y="98"/>
      <point x="242" y="32"/>
      <point x="183" y="32" type="qcurve" smooth="yes"/>
      <point x="165" y="32" type="line" smooth="yes"/>
      <point x="106" y="32"/>
      <point x="25" y="98"/>
    </contour>
    <contour>
      <point x="528" y="1206" type="qcurve" smooth="yes"/>
      <point x="475" y="902" type="line" smooth="yes"/>
      <point x="462" y="827"/>
      <point x="387" y="730"/>
      <point x="302" y="730" type="qcurve" smooth="yes"/>
      <point x="288" y="730" type="line" smooth="yes"/>
      <point x="203" y="730"/>
      <point x="162" y="827"/>
      <point x="175" y="902" type="qcurve" smooth="yes"/>
      <point x="228" y="1206" type="line" smooth="yes"/>
      <point x="242" y="1281"/>
      <point x="327" y="1368"/>
      <point x="400" y="1368" type="qcurve" smooth="yes"/>
      <point x="414" y="1368" type="line" smooth="yes"/>
      <point x="487" y="1368"/>
      <point x="542" y="1281"/>
    </contour>
    <contour>
      <point x="4" y="205" type="line" smooth="yes"/>
      <point x="-7" y="144"/>
      <point x="10" y="63"/>
      <point x="54" y="15"/>
      <point x="119" y="-4"/>
      <point x="157" y="-4" type="qcurve" smooth="yes"/>
      <point x="177" y="-4" type="line" smooth="yes"/>
      <point x="254" y="-4"/>
      <point x="382" y="83"/>
      <point x="404" y="205" type="qcurve" smooth="yes"/>
      <point x="458" y="518" type="line" smooth="yes"/>
      <point x="475" y="616"/>
      <point x="431" y="700"/>
      <point x="379" y="716" type="qcurve"/>
      <point x="436" y="727"/>
      <point x="503" y="830"/>
      <point x="516" y="904" type="qcurve" smooth="yes"/>
      <point x="568" y="1204" type="line" smooth="yes"/>
      <point x="585" y="1299"/>
      <point x="512" y="1404"/>
      <point x="421" y="1404" type="qcurve" smooth="yes"/>
      <point x="405" y="1404" type="line" smooth="yes"/>
      <point x="314" y="1404"/>
      <point x="205" y="1299"/>
      <point x="188" y="1204" type="qcurve" smooth="yes"/>
      <point x="136" y="904" type="line" smooth="yes"/>
      <point x="123" y="830"/>
      <point x="153" y="727"/>
      <point x="207" y="716" type="qcurve"/>
      <point x="149" y="699"/>
      <point x="75" y="616"/>
      <point x="58" y="518" type="qcurve" smooth="yes"/>
    </contour>
  </outline>
</glyph>
<glyph name="less" format="2">
  <advance width="608"/>
  <unicode hex="003C"/>
  <outline>
    <contour>
      <point x="470" y="241" type="line"/>
      <point x="476" y="278" type="line"/>
      <point x="80" y="581" type="line"/>
      <point x="582" y="884" type="line"/>
      <point x="590" y="927" type="line"/>
      <point x="47" y="601" type="line"/>
      <point x="41" y="565" type="line"/>
    </contour>
  </outline>
</glyph>
<glyph name="question" format="2">
  <advance width="487"/>
  <unicode hex="003F"/>
  <outline>
    <contour>
      <point x="139" y="330" type="line"/>
      <point x="179" y="330" type="line"/>
      <point x="234" y="650" type="line"/>
      <point x="234" y="650"/>
      <point x="234" y="650"/>
      <point x="234" y="650" type="qcurve"/>
      <point x="278" y="654" type="line" smooth="yes"/>
      <point x="321" y="658"/>
      <point x="422" y="746"/>
      <point x="438" y="839" type="qcurve" smooth="yes"/>
      <point x="508" y="1238" type="line" smooth="yes"/>
      <point x="524" y="1328"/>
      <point x="460" y="1404"/>
      <point x="369" y="1404" type="qcurve" smooth="yes"/>
      <point x="344" y="1404" type="line" smooth="yes"/>
      <point x="253" y="1404"/>
      <point x="160" y="1326"/>
      <point x="145" y="1235" type="qcurve" smooth="yes"/>
      <point x="106" y="1014" type="line"/>
      <point x="145" y="1006" type="line"/>
      <point x="185" y="1236" type="line" smooth="yes"/>
      <point x="197" y="1308"/>
      <point x="267" y="1368"/>
      <point x="338" y="1368" type="qcurve" smooth="yes"/>
      <point x="363" y="1368" type="line" smooth="yes"/>
      <point x="435" y="1368"/>
      <point x="480" y="1309"/>
      <point x="468" y="1238" type="qcurve" smooth="yes"/>
      <point x="398" y="835" type="line" smooth="yes"/>
      <point x="387" y="772"/>
      <point x="316" y="693"/>
      <point x="262" y="688" type="qcurve" smooth="yes"/>
      <point x="203" y="683" type="line"/>
      <point x="203" y="683"/>
      <point x="200" y="683"/>
      <point x="200" y="683" type="qcurve"/>
    </contour>
    <contour>
      <point x="68" y="22" type="line" smooth="yes"/>
      <point x="64" y="2"/>
      <point x="69" y="-4"/>
      <point x="89" y="-4" type="qcurve" smooth="yes"/>
      <point x="111" y="-4" type="line" smooth="yes"/>
      <point x="131" y="-4"/>
      <point x="138" y="3"/>
      <point x="142" y="22" type="qcurve"/>
      <point x="149" y="64" type="line" smooth="yes"/>
      <point x="153" y="84"/>
      <point x="148" y="90"/>
      <point x="128" y="90" type="qcurve" smooth="yes"/>
      <point x="106" y="90" type="line" smooth="yes"/>
      <point x="87" y="90"/>
      <point x="79" y="84"/>
      <point x="75" y="64" type="qcurve"/>
    </contour>
  </outline>
</glyph>
<glyph name="at" format="2">
  <advance width="888"/>
  <unicode hex="0040"/>
  <outline>
    <contour>
      <point x="-10" y="152" type="line" smooth="yes"/>
      <point x="-33.25" y="21.5"/>
      <point x="82.5" y="-119"/>
      <point x="213" y="-119" type="qcurve" smooth="yes"/>
      <point x="649" y="-119" type="line"/>
      <point x="655" y="-87" type="line"/>
      <point x="219" y="-87" type="line" smooth="yes"/>
      <point x="102.037" y="-87"/>
      <point x="2.8712" y="32.7732"/>
      <point x="24" y="152" type="qcurve" smooth="yes"/>
      <point x="152" y="887" type="line" smooth="yes"/>
      <point x="173.129" y="1006.98"/>
      <point x="314.037" y="1127"/>
      <point x="431" y="1127" type="qcurve" smooth="yes"/>
      <point x="623" y="1127" type="line" smooth="yes"/>
      <point x="739.963" y="1127"/>
      <point x="838.374" y="1005.98"/>
      <point x="818" y="886" type="qcurve" smooth="yes"/>
      <point x="711" y="274" type="line" smooth="yes"/>
      <point x="693.644" y="177.411"/>
      <point x="635.049" y="122"/>
      <point x="586" y="122" type="qcurve" smooth="yes"/>
      <point x="575" y="122" type="line" smooth="yes"/>
      <point x="518" y="122"/>
      <point x="500" y="184.5"/>
      <point x="512" y="252" type="qcurve" smooth="yes"/>
      <point x="619" y="868" type="line"/>
      <point x="583" y="868" type="line"/>
      <point x="582" y="857" type="line"/>
      <point x="576.718" y="863.791"/>
      <point x="555.62" y="871"/>
      <point x="536" y="871" type="qcurve" smooth="yes"/>
      <point x="450" y="871" type="line" smooth="yes"/>
      <point x="393.405" y="871"/>
      <point x="338.055" y="819.822"/>
      <point x="329" y="767" type="qcurve" smooth="yes"/>
      <point x="242" y="269" type="line" smooth="yes"/>
      <point x="232.945" y="216.178"/>
      <point x="270.405" y="165"/>
      <point x="327" y="165" type="qcurve" smooth="yes"/>
      <point x="393" y="165" type="line" smooth="yes"/>
      <point x="421.675" y="165"/>
      <point x="456.681" y="176.454"/>
      <point x="468" y="184" type="qcurve"/>
      <point x="468" y="141.742"/>
      <point x="510.387" y="90"/>
      <point x="570" y="90" type="qcurve" smooth="yes"/>
      <point x="581" y="90" type="line" smooth="yes"/>
      <point x="657.969" y="90"/>
      <point x="727.644" y="175.902"/>
      <point x="745" y="274" type="qcurve" smooth="yes"/>
      <point x="852" y="886" type="line" smooth="yes"/>
      <point x="863.25" y="952"/>
      <point x="845" y="1053.81"/>
      <point x="788" y="1123.19"/>
      <point x="693.25" y="1159"/>
      <point x="628" y="1159" type="qcurve" smooth="yes"/>
      <point x="436" y="1159" type="line" smooth="yes"/>
      <point x="305.5" y="1159"/>
      <point x="140.5" y="1017.5"/>
      <point x="118" y="887" type="qcurve" smooth="yes"/>
    </contour>
    <contour>
      <point x="278" y="273" type="qcurve" smooth="yes"/>
      <point x="363" y="763" type="line" smooth="yes"/>
      <point x="370.546" y="806.012"/>
      <point x="411.27" y="840"/>
      <point x="449" y="840" type="qcurve" smooth="yes"/>
      <point x="579" y="840" type="line"/>
      <point x="480" y="273" type="line" smooth="yes"/>
      <point x="472.454" y="229.988"/>
      <point x="431.73" y="196"/>
      <point x="394" y="196" type="qcurve" smooth="yes"/>
      <point x="336" y="196" type="line" smooth="yes"/>
      <point x="298.27" y="196"/>
      <point x="270.454" y="229.988"/>
    </contour>
  </outline>
</glyph>
<glyph name="C" format="2">
  <advance width="570"/>
  <unicode hex="0043"/>
  <anchor x="425" y="1554" name="top"/>
  <anchor x="179" y="-154" name="bottom"/>
  <outline>
    <contour>
      <point x="174" y="1204" type="qcurve" smooth="yes"/>
      <point x="-2" y="192" type="line" smooth="yes"/>
      <point x="-21" y="85"/>
      <point x="56" y="-8"/>
      <point x="163" y="-8" type="qcurve" smooth="yes"/>
      <point x="195" y="-8" type="line" smooth="yes"/>
      <point x="302" y="-8"/>
      <point x="411" y="85"/>
      <point x="430" y="192" type="qcurve" smooth="yes"/>
      <point x="485" y="512" type="line"/>
      <point x="447" y="520" type="line"/>
      <point x="389" y="190" type="line" smooth="yes"/>
      <point x="373" y="100"/>
      <point x="290" y="28"/>
      <point x="199" y="28" type="qcurve" smooth="yes"/>
      <point x="171" y="28" type="line" smooth="yes"/>
      <point x="80" y="28"/>
      <point x="21" y="100"/>
      <point x="37" y="190" type="qcurve" smooth="yes"/>
      <point x="214" y="1206" type="line" smooth="yes"/>
      <point x="230" y="1296"/>
      <point x="314" y="1368"/>
      <point x="405" y="1368" type="qcurve" smooth="yes"/>
      <point x="433" y="1368" type="line" smooth="yes"/>
      <point x="524" y="1368"/>
      <point x="582" y="1296"/>
      <point x="566" y="1206" type="qcurve" smooth="yes"/>
      <point x="514" y="906" type="line"/>
      <point x="556" y="914" type="line"/>
      <point x="606" y="1204" type="line" smooth="yes"/>
      <point x="625" y="1311"/>
      <point x="548" y="1404"/>
      <point x="441" y="1404" type="qcurve" smooth="yes"/>
      <point x="409" y="1404" type="line" smooth="yes"/>
      <point x="303" y="1404"/>
      <point x="193" y="1311"/>
    </contour>
  </outline>
</glyph>
<glyph name="D" format="2">
  <advance width="592"/>
  <unicode hex="0044"/>
  <anchor x="428" y="1550" name="top"/>
  <anchor x="129" y="-150" name="bottom"/>
  <outline>
    <contour>
      <point x="24" y="36" type="line"/>
      <point x="256" y="1364" type="line"/>
      <point x="364" y="1364" type="line" smooth="yes"/>
      <point x="440.875" y="1364"/>
      <point x="527.625" y="1317.88"/>
      <point x="555.375" y="1177.62"/>
      <point x="528.125" y="919.25"/>
      <point x="491" y="707" type="qcurve" smooth="yes"/>
      <point x="455" y="499.625"/>
      <point x="394.531" y="238.094"/>
      <point x="318.219" y="90.1562"/>
      <point x="212.375" y="36"/>
      <point x="131" y="36" type="qcurve" smooth="yes"/>
    </contour>
    <contour>
      <point x="-22" y="0" type="line"/>
      <point x="126" y="0" type="line" smooth="yes"/>
      <point x="217.875" y="0"/>
      <point x="338.688" y="55.9062"/>
      <point x="425.312" y="209.844"/>
      <point x="492.125" y="482.875"/>
      <point x="530" y="700" type="qcurve" smooth="yes"/>
      <point x="568.25" y="920.5"/>
      <point x="593.844" y="1194.38"/>
      <point x="556.906" y="1346.62"/>
      <point x="451.625" y="1400"/>
      <point x="359" y="1400" type="qcurve" smooth="yes"/>
      <point x="222" y="1400" type="line"/>
    </contour>
  </outline>
</glyph>
<glyph name="K" format="2">
  <advance width="560"/>
  <unicode hex="004B"/>
  <anchor x="436" y="1550" name="top"/>
  <anchor x="173" y="-150" name="bottom"/>
  <outline>
    <contour>
      <point x="650" y="1400" type="line"/>
      <point x="605" y="1400" type="line"/>
      <point x="120" y="705" type="line"/>
      <point x="145" y="705" type="line"/>
      <point x="262" y="1400" type="line"/>
      <point x="222" y="1400" type="line"/>
      <point x="-22" y="0" type="line"/>
      <point x="18" y="0" type="line"/>
      <point x="140" y="702" type="line"/>
      <point x="133" y="702" type="line"/>
      <point x="397" y="0" type="line"/>
      <point x="440" y="0" type="line"/>
      <point x="166" y="726" type="line"/>
      <point x="163" y="705" type="line"/>
    </contour>
  </outline>
</glyph>
<glyph name="N" format="2">
  <advance width="645"/>
  <unicode hex="004E"/>
  <anchor x="490" y="1550" name="top"/>
  <anchor x="193" y="-150" name="bottom"/>
  <outline>
    <contour>
      <point x="-22" y="0" type="line"/>
      <point x="14" y="0" type="line"/>
      <point x="234" y="1262" type="line"/>
      <point x="394" y="0" type="line"/>
      <point x="430" y="0" type="line"/>
      <point x="674" y="1400" type="line"/>
      <point x="638" y="1400" type="line"/>
      <point x="418" y="138" type="line"/>
      <point x="258" y="1400" type="line"/>
      <point x="222" y="1400" type="line"/>
    </contour>
  </outline>
</glyph>
<glyph name="O" format="2">
  <advance width="589" height="1448"/>
  <unicode hex="004F"/>
  <anchor x="450" y="1550" name="top"/>
  <anchor x="151" y="-150" name="bottom"/>
  <anchor x="598" y="1208" name="horn"/>
  <anchor x="195" y="0" name="ogonek"/>
  <outline>
    <contour>
      <point x="171" y="1208" type="line"/>
      <point x="-6" y="192" type="line" smooth="yes"/>
      <point x="-15" y="139"/>
      <point x="-6" y="63"/>
      <point x="34" y="15"/>
      <point x="106" y="-8"/>
      <point x="159" y="-8" type="qcurve" smooth="yes"/>
      <point x="187" y="-8" type="line" smooth="yes"/>
      <point x="240" y="-8"/>
      <point x="320" y="15"/>
      <point x="377" y="63"/>
      <point x="413" y="139"/>
      <point x="422" y="192" type="qcurve" smooth="yes"/>
      <point x="599" y="1208" type="line" smooth="yes"/>
      <point x="608" y="1261"/>
      <point x="599" y="1337"/>
      <point x="559" y="1385"/>
      <point x="487" y="1408"/>
      <point x="434" y="1408" type="qcurve" smooth="yes"/>
      <point x="406" y="1408" type="line" smooth="yes"/>
      <point x="353" y="1408"/>
      <point x="273" y="1385"/>
      <point x="216" y="1337"/>
      <point x="180" y="1261"/>
      <point x="171" y="1208" type="qcurve"/>
    </contour>
    <contour>
      <point x="211" y="1210" type="line" smooth="yes"/>
      <point x="219" y="1255"/>
      <point x="246" y="1316"/>
      <point x="291" y="1355"/>
      <point x="356" y="1372"/>
      <point x="401" y="1372" type="qcurve" smooth="yes"/>
      <point x="425" y="1372" type="line" smooth="yes"/>
      <point x="470" y="1372"/>
      <point x="530" y="1355"/>
      <point x="561" y="1316"/>
      <point x="567" y="1255"/>
      <point x="559" y="1210" type="qcurve" smooth="yes"/>
      <point x="381" y="190" type="line" smooth="yes"/>
      <point x="373" y="145"/>
      <point x="346" y="84"/>
      <point x="301" y="45"/>
      <point x="236" y="28"/>
      <point x="191" y="28" type="qcurve" smooth="yes"/>
      <point x="167" y="28" type="line" smooth="yes"/>
      <point x="122" y="28"/>
      <point x="63" y="45"/>
      <point x="31" y="84"/>
      <point x="25" y="145"/>
      <point x="33" y="190" type="qcurve" smooth="yes"/>
    </contour>
  </outline>
</glyph>
<glyph name="P" format="2">
  <advance width="551"/>
  <unicode hex="0050"/>
  <outline>
    <contour>
      <point x="-22" y="0" type="line"/>
      <point x="18" y="0" type="line"/>
      <point x="127" y="624" type="line"/>
      <point x="300" y="624" type="line" smooth="yes"/>
      <point x="353" y="624"/>
      <point x="433" y="647"/>
      <point x="490" y="695"/>
      <point x="526" y="771"/>
      <point x="535" y="824" type="qcurve" smooth="yes"/>
      <point x="600" y="1200" type="line" smooth="yes"/>
      <point x="619" y="1307"/>
      <point x="542" y="1400"/>
      <point x="435" y="1400" type="qcurve" smooth="yes"/>
      <point x="222" y="1400" type="line"/>
    </contour>
    <contour>
      <point x="133" y="660" type="line"/>
      <point x="256" y="1364" type="line"/>
      <point x="427" y="1364" type="line" smooth="yes"/>
      <point x="518" y="1364"/>
      <point x="577" y="1292"/>
      <point x="561" y="1202" type="qcurve" smooth="yes"/>
      <point x="494" y="822" type="line" smooth="yes"/>
      <point x="479" y="732"/>
      <point x="395" y="660"/>
      <point x="304" y="660" type="qcurve" smooth="yes"/>
    </contour>
  </outline>
  <guideline angle="90" color="0.4,0.4,0.4,1" name="halfwidth" x="275.5" y="0"/>
</glyph>
<glyph name="Q" format="2">
  <advance width="593"/>
  <unicode hex="0051"/>
  <anchor x="454" y="1554" name="top"/>
  <anchor x="108" y="-432" name="bottom"/>
  <outline>
    <contour>
      <point x="174" y="1204" type="qcurve" smooth="yes"/>
      <point x="-2" y="196" type="line" smooth="yes"/>
      <point x="-21" y="89"/>
      <point x="56" y="-4"/>
      <point x="163" y="-4" type="qcurve" smooth="yes"/>
      <point x="191" y="-4" type="line" smooth="yes"/>
      <point x="298" y="-4"/>
      <point x="407" y="89"/>
      <point x="426" y="196" type="qcurve" smooth="yes"/>
      <point x="602" y="1204" type="line" smooth="yes"/>
      <point x="621" y="1311"/>
      <point x="544" y="1404"/>
      <point x="437" y="1404" type="qcurve" smooth="yes"/>
      <point x="409" y="1404" type="line" smooth="yes"/>
      <point x="303" y="1404"/>
      <point x="193" y="1311"/>
    </contour>
    <contour>
      <point x="214" y="1206" type="line" smooth="yes"/>
      <point x="230" y="1296"/>
      <point x="314" y="1368"/>
      <point x="405" y="1368" type="qcurve" smooth="yes"/>
      <point x="429" y="1368" type="line" smooth="yes"/>
      <point x="520" y="1368"/>
      <point x="578" y="1296"/>
      <point x="562" y="1206" type="qcurve" smooth="yes"/>
      <point x="386" y="194" type="line" smooth="yes"/>
      <point x="370" y="104"/>
      <point x="287" y="32"/>
      <point x="196" y="32" type="qcurve" smooth="yes"/>
      <point x="172" y="32" type="line" smooth="yes"/>
      <point x="81" y="32"/>
      <point x="22" y="104"/>
      <point x="38" y="194" type="qcurve" smooth="yes"/>
    </contour>
    <contour>
      <point x="240" y="-282" type="line"/>
      <point x="281" y="-282" type="line"/>
      <point x="247" y="429" type="line"/>
      <point x="208" y="420" type="line"/>
    </contour>
  </outline>
</glyph>
<glyph name="R" format="2">
  <advance width="595"/>
  <unicode hex="0052"/>
  <anchor x="214" y="-150" name="bottom"/>
  <anchor x="409" y="1550" name="top"/>
  <outline>
    <contour>
      <point x="-22" y="0" type="line"/>
      <point x="18" y="0" type="line"/>
      <point x="129" y="634" type="line"/>
      <point x="220" y="634" type="line"/>
      <point x="408" y="0" type="line"/>
      <point x="450" y="0" type="line"/>
      <point x="262" y="634" type="line"/>
      <point x="298" y="634" type="line" smooth="yes"/>
      <point x="405" y="634"/>
      <point x="514" y="728"/>
      <point x="533" y="834" type="qcurve" smooth="yes"/>
      <point x="596" y="1200" type="line" smooth="yes"/>
      <point x="615" y="1307"/>
      <point x="538" y="1400"/>
      <point x="431" y="1400" type="qcurve" smooth="yes"/>
      <point x="222" y="1400" type="line"/>
    </contour>
    <contour>
      <point x="135" y="670" type="line"/>
      <point x="256" y="1364" type="line"/>
      <point x="423" y="1364" type="line" smooth="yes"/>
      <point x="514" y="1364"/>
      <point x="573" y="1292"/>
      <point x="557" y="1202" type="qcurve" smooth="yes"/>
      <point x="492" y="832" type="line" smooth="yes"/>
      <point x="476" y="742"/>
      <point x="393" y="670"/>
      <point x="302" y="670" type="qcurve" smooth="yes"/>
    </contour>
  </outline>
  <guideline angle="90" color="0.4,0.4,0.4,1" name="halfwidth" x="297.5" y="0"/>
</glyph>
<glyph name="S" format="2">
  <advance width="522"/>
  <unicode hex="0053"/>
  <anchor x="422" y="1554" name="top"/>
  <anchor x="115" y="-154" name="bottom"/>
  <outline>
    <contour>
      <point x="-3" y="400" type="line"/>
      <point x="39" y="410" type="line"/>
      <point x="1" y="194" type="line" smooth="yes"/>
      <point x="-7" y="149"/>
      <point x="0" y="87"/>
      <point x="31" y="49"/>
      <point x="90" y="32"/>
      <point x="135" y="32" type="qcurve" smooth="yes"/>
      <point x="162" y="32" type="line" smooth="yes"/>
      <point x="207" y="32"/>
      <point x="271" y="49"/>
      <point x="316" y="87"/>
      <point x="344" y="149"/>
      <point x="352" y="194" type="qcurve" smooth="yes"/>
      <point x="410" y="528" type="line" smooth="yes"/>
      <point x="418" y="573"/>
      <point x="411" y="635"/>
      <point x="380" y="673"/>
      <point x="321" y="690"/>
      <point x="276" y="690" type="qcurve" smooth="yes"/>
      <point x="259" y="690" type="line" smooth="yes"/>
      <point x="206" y="690"/>
      <point x="134" y="713"/>
      <point x="94" y="761"/>
      <point x="85" y="837"/>
      <point x="94" y="890" type="qcurve" smooth="yes"/>
      <point x="149" y="1204" type="line" smooth="yes"/>
      <point x="158" y="1257"/>
      <point x="194" y="1333"/>
      <point x="251" y="1381"/>
      <point x="331" y="1404"/>
      <point x="384" y="1404" type="qcurve" smooth="yes"/>
      <point x="391" y="1404" type="line" smooth="yes"/>
      <point x="444" y="1404"/>
      <point x="516" y="1381"/>
      <point x="556" y="1333"/>
      <point x="565" y="1257"/>
      <point x="556" y="1204" type="qcurve" smooth="yes"/>
      <point x="524" y="1022" type="line"/>
      <point x="483" y="1012" type="line"/>
      <point x="516" y="1206" type="line" smooth="yes"/>
      <point x="524" y="1251"/>
      <point x="518" y="1313"/>
      <point x="487" y="1351"/>
      <point x="428" y="1368"/>
      <point x="383" y="1368" type="qcurve" smooth="yes"/>
      <point x="380" y="1368" type="line" smooth="yes"/>
      <point x="335" y="1368"/>
      <point x="271" y="1351"/>
      <point x="226" y="1313"/>
      <point x="197" y="1251"/>
      <point x="189" y="1206" type="qcurve" smooth="yes"/>
      <point x="134" y="888" type="line" smooth="yes"/>
      <point x="126" y="843"/>
      <point x="133" y="781"/>
      <point x="164" y="743"/>
      <point x="223" y="726"/>
      <point x="268" y="726" type="qcurve" smooth="yes"/>
      <point x="285" y="726" type="line" smooth="yes"/>
      <point x="338" y="726"/>
      <point x="410" y="703"/>
      <point x="450" y="655"/>
      <point x="459" y="579"/>
      <point x="450" y="526" type="qcurve" smooth="yes"/>
      <point x="392" y="196" type="line" smooth="yes"/>
      <point x="383" y="143"/>
      <point x="347" y="67"/>
      <point x="290" y="19"/>
      <point x="210" y="-4"/>
      <point x="157" y="-4" type="qcurve" smooth="yes"/>
      <point x="126" y="-4" type="line" smooth="yes"/>
      <point x="73" y="-4"/>
      <point x="1" y="19"/>
      <point x="-39" y="67"/>
      <point x="-48" y="143"/>
      <point x="-39" y="196" type="qcurve" smooth="yes"/>
    </contour>
  </outline>
</glyph>
<glyph name="X" format="2">
  <advance width="457"/>
  <unicode hex="0058"/>
  <anchor x="391" y="1550" name="top"/>
  <anchor x="94" y="-150" name="bottom"/>
  <outline>
    <contour>
      <point x="-117" y="0" type="line"/>
      <point x="-78" y="0" type="line"/>
      <point x="224" y="653" type="line"/>
      <point x="296" y="0" type="line"/>
      <point x="337" y="0" type="line"/>
      <point x="257" y="713" type="line"/>
      <point x="580" y="1400" type="line"/>
      <point x="541" y="1400" type="line"/>
      <point x="246" y="771" type="line"/>
      <point x="168" y="1400" type="line"/>
      <point x="127" y="1400" type="line"/>
      <point x="214" y="716" type="line"/>
    </contour>
  </outline>
</glyph>
<glyph name="Z" format="2">
  <advance width="636"/>
  <unicode hex="005A"/>
  <anchor x="503" y="1550" name="top"/>
  <anchor x="191" y="-150" name="bottom"/>
  <outline>
    <contour>
      <point x="-64" y="0" type="line"/>
      <point x="446" y="0" type="line"/>
      <point x="452" y="36" type="line"/>
      <point x="-21" y="36" type="line"/>
      <point x="-14" y="25" type="line"/>
      <point x="685" y="1382" type="line"/>
      <point x="688" y="1400" type="line"/>
      <point x="264" y="1400" type="line"/>
      <point x="258" y="1364" type="line"/>
      <point x="645" y="1364" type="line"/>
      <point x="638" y="1375" type="line"/>
      <point x="-61" y="18" type="line"/>
    </contour>
  </outline>
</glyph>
<glyph name="b" format="2">
  <advance width="497"/>
  <unicode hex="0062"/>
  <anchor x="414" y="1598" name="top"/>
  <anchor x="109" y="-150" name="bottom"/>
  <outline>
    <contour>
      <point x="-32" y="0" type="line"/>
      <point x="4" y="0" type="line"/>
      <point x="6" y="12" type="line"/>
      <point x="11" y="4"/>
      <point x="37" y="-4"/>
      <point x="63" y="-4" type="qcurve" smooth="yes"/>
      <point x="162" y="-4" type="line" smooth="yes"/>
      <point x="239" y="-4"/>
      <point x="320" y="65"/>
      <point x="333" y="141" type="qcurve" smooth="yes"/>
      <point x="458" y="859" type="line" smooth="yes"/>
      <point x="471" y="936"/>
      <point x="416" y="1004"/>
      <point x="338" y="1004" type="qcurve" smooth="yes"/>
      <point x="241" y="1004" type="line" smooth="yes"/>
      <point x="215" y="1004"/>
      <point x="186" y="996"/>
      <point x="176" y="988" type="qcurve"/>
      <point x="257" y="1448" type="line"/>
      <point x="221" y="1448" type="line"/>
    </contour>
    <contour>
      <point x="9" y="28" type="line"/>
      <point x="174" y="972" type="line"/>
      <point x="326" y="972" type="line" smooth="yes"/>
      <point x="392" y="972"/>
      <point x="431" y="913"/>
      <point x="421" y="856" type="qcurve" smooth="yes"/>
      <point x="297" y="144" type="line" smooth="yes"/>
      <point x="287" y="87"/>
      <point x="227" y="28"/>
      <point x="161" y="28" type="qcurve" smooth="yes"/>
    </contour>
  </outline>
  <guideline angle="0" x="0" y="988"/>
  <guideline angle="0" x="0" y="42"/>
</glyph>
<glyph name="i" format="2">
  <advance width="247"/>
  <unicode hex="0069"/>
  <anchor x="-19" y="-150" name="bottom"/>
  <anchor x="208" y="1150" name="top"/>
  <anchor x="-12" y="0" name="ogonek"/>
  <outline>
    <contour>
      <point x="-12" y="0" type="line"/>
      <point x="24" y="0" type="line"/>
      <point x="199" y="1000" type="line"/>
      <point x="163" y="1000" type="line"/>
    </contour>
    <contour>
      <point x="189" y="1260" type="line" smooth="yes"/>
      <point x="186" y="1242"/>
      <point x="191" y="1236"/>
      <point x="209" y="1236" type="qcurve" smooth="yes"/>
      <point x="237" y="1236" type="line" smooth="yes"/>
      <point x="255" y="1236"/>
      <point x="262" y="1242"/>
      <point x="265" y="1260" type="qcurve" smooth="yes"/>
      <point x="270" y="1288" type="line" smooth="yes"/>
      <point x="273" y="1306"/>
      <point x="268" y="1312"/>
      <point x="250" y="1312" type="qcurve" smooth="yes"/>
      <point x="222" y="1312" type="line" smooth="yes"/>
      <point x="204" y="1312"/>
      <point x="197" y="1306"/>
      <point x="194" y="1288" type="qcurve" smooth="yes"/>
    </contour>
  </outline>
</glyph>
<glyph name="k" format="2">
  <advance width="468"/>
  <unicode hex="006B"/>
  <anchor x="348" y="1598" name="top"/>
  <anchor x="122" y="-150" name="bottom"/>
  <anchor x="-6" y="724" name="left"/>
  <outline>
    <contour>
      <point x="-32" y="0" type="line"/>
      <point x="4" y="0" type="line"/>
      <point x="91" y="498" type="line"/>
      <point x="83" y="498" type="line"/>
      <point x="300" y="0" type="line"/>
      <point x="344" y="0" type="line"/>
      <point x="115" y="524" type="line"/>
      <point x="113" y="503" type="line"/>
      <point x="477" y="1000" type="line"/>
      <point x="439" y="1000" type="line"/>
      <point x="89" y="522" type="line"/>
      <point x="95" y="522" type="line"/>
      <point x="257" y="1448" type="line"/>
      <point x="221" y="1448" type="line"/>
    </contour>
  </outline>
</glyph>
<glyph name="r" format="2">
  <advance width="410"/>
  <unicode hex="0072"/>
  <anchor x="316" y="1154" name="top"/>
  <anchor x="-41" y="-150" name="bottom"/>
  <anchor x="-45" y="502" name="left"/>
  <outline>
    <contour>
      <point x="-33" y="0" type="line"/>
      <point x="3" y="0" type="line"/>
      <point x="173" y="972" type="line"/>
      <point x="288" y="972" type="line" smooth="yes"/>
      <point x="345" y="972"/>
      <point x="387" y="920"/>
      <point x="376" y="856" type="qcurve" smooth="yes"/>
      <point x="358" y="752" type="line"/>
      <point x="396" y="760" type="line"/>
      <point x="413" y="859" type="line" smooth="yes"/>
      <point x="419" y="895"/>
      <point x="414" y="950"/>
      <point x="385" y="986"/>
      <point x="333" y="1004"/>
      <point x="293" y="1004" type="qcurve" smooth="yes"/>
      <point x="254" y="1004" type="line" smooth="yes"/>
      <point x="227" y="1004"/>
      <point x="186" y="990"/>
      <point x="173" y="976" type="qcurve"/>
      <point x="178" y="1000" type="line"/>
      <point x="142" y="1000" type="line"/>
    </contour>
  </outline>
</glyph>
<glyph name="t" format="2">
  <advance width="348"/>
  <unicode hex="0074"/>
  <anchor x="310" y="1394" name="top"/>
  <anchor x="40" y="-154" name="bottom"/>
  <anchor x="286" y="1400" name="right"/>
  <outline>
    <contour>
      <point x="150" y="-4" type="qcurve" smooth="yes"/>
      <point x="157" y="-4" type="line"/>
      <point x="173" y="28" type="line"/>
      <point x="156" y="28" type="line" smooth="yes"/>
      <point x="99" y="28"/>
      <point x="56" y="79"/>
      <point x="67" y="144" type="qcurve" smooth="yes"/>
      <point x="211" y="968" type="line"/>
      <point x="367" y="968" type="line"/>
      <point x="373" y="1000" type="line"/>
      <point x="217" y="1000" type="line"/>
      <point x="259" y="1244" type="line"/>
      <point x="223" y="1244" type="line"/>
      <point x="181" y="1000" type="line"/>
      <point x="91" y="1000" type="line"/>
      <point x="85" y="968" type="line"/>
      <point x="175" y="968" type="line"/>
      <point x="31" y="141" type="line" smooth="yes"/>
      <point x="18" y="68"/>
      <point x="69" y="-4"/>
    </contour>
  </outline>
</glyph>
<glyph name="w" format="2">
  <advance width="732"/>
  <unicode hex="0077"/>
  <anchor x="449" y="1150" name="top"/>
  <anchor x="248" y="-150" name="bottom"/>
  <outline>
    <contour>
      <point x="57" y="0" type="line"/>
      <point x="93" y="0" type="line"/>
      <point x="408" y="912" type="line"/>
      <point x="404" y="0" type="line"/>
      <point x="438" y="0" type="line"/>
      <point x="784" y="1000" type="line"/>
      <point x="751" y="1000" type="line"/>
      <point x="437" y="92" type="line"/>
      <point x="441" y="1000" type="line"/>
      <point x="407" y="1000" type="line"/>
      <point x="94" y="98" type="line"/>
      <point x="98" y="1000" type="line"/>
      <point x="61" y="1000" type="line"/>
    </contour>
  </outline>
</glyph>
<glyph name="x" format="2">
  <advance width="356"/>
  <unicode hex="0078"/>
  <anchor x="262" y="1150" name="top"/>
  <anchor x="35" y="-150" name="bottom"/>
  <outline>
    <contour>
      <point x="-116" y="0" type="line"/>
      <point x="-82" y="0" type="line"/>
      <point x="135" y="453" type="line"/>
      <point x="194" y="0" type="line"/>
      <point x="232" y="0" type="line"/>
      <point x="166" y="509" type="line"/>
      <point x="392" y="1000" type="line"/>
      <point x="358" y="1000" type="line"/>
      <point x="156" y="559" type="line"/>
      <point x="105" y="1000" type="line"/>
      <point x="67" y="1000" type="line"/>
      <point x="125" y="504" type="line"/>
    </contour>
  </outline>
</glyph>
<glyph name="braceleft" format="2">
  <advance width="520"/>
  <unicode hex="007B"/>
  <outline>
    <contour>
      <point x="99" y="18" type="line" smooth="yes"/>
      <point x="76.362" y="-110.282"/>
      <point x="177.172" y="-256"/>
      <point x="313" y="-256" type="qcurve" smooth="yes"/>
      <point x="349" y="-256" type="line"/>
      <point x="355" y="-224" type="line"/>
      <point x="319" y="-224" type="line" smooth="yes"/>
      <point x="201.282" y="-224"/>
      <point x="115.38" y="-93.19"/>
      <point x="135" y="20" type="qcurve" smooth="yes"/>
      <point x="187" y="317" type="line" smooth="yes"/>
      <point x="205.11" y="419.626"/>
      <point x="148.251" y="569.834"/>
      <point x="66" y="597" type="qcurve"/>
      <point x="157.307" y="624.166"/>
      <point x="266.89" y="774.374"/>
      <point x="285" y="877" type="qcurve" smooth="yes"/>
      <point x="335" y="1164" type="line" smooth="yes"/>
      <point x="356.129" y="1286.25"/>
      <point x="480.491" y="1416"/>
      <point x="605" y="1416" type="qcurve" smooth="yes"/>
      <point x="641" y="1416" type="line"/>
      <point x="646" y="1448" type="line"/>
      <point x="610" y="1448" type="line" smooth="yes"/>
      <point x="474.172" y="1448"/>
      <point x="322.393" y="1299.83"/>
      <point x="299" y="1164" type="qcurve" smooth="yes"/>
      <point x="249" y="877" type="line" smooth="yes"/>
      <point x="234.663" y="795.503"/>
      <point x="136.38" y="635.638"/>
      <point x="33" y="613" type="qcurve"/>
      <point x="27" y="581" type="line"/>
      <point x="121.325" y="552.325"/>
      <point x="165.337" y="399.251"/>
      <point x="151" y="317" type="qcurve" smooth="yes"/>
    </contour>
  </outline>
</glyph>
<glyph name="bar" format="2">
  <advance width="235"/>
  <unicode hex="007C"/>
  <outline>
    <contour>
      <point x="244" y="1520" type="line"/>
      <point x="-105" y="-480" type="line"/>
      <point x="-65" y="-480" type="line"/>
      <point x="284" y="1520" type="line"/>
    </contour>
  </outline>
</glyph>
<glyph name="braceright" format="2">
  <advance width="520"/>
  <unicode hex="007D"/>
  <outline>
    <contour>
      <point x="391" y="1174" type="line" smooth="yes"/>
      <point x="414" y="1302"/>
      <point x="313" y="1448"/>
      <point x="177" y="1448" type="qcurve" smooth="yes"/>
      <point x="141" y="1448" type="line"/>
      <point x="135" y="1416" type="line"/>
      <point x="171" y="1416" type="line" smooth="yes"/>
      <point x="289" y="1416"/>
      <point x="375" y="1285"/>
      <point x="355" y="1172" type="qcurve" smooth="yes"/>
      <point x="303" y="875" type="line" smooth="yes"/>
      <point x="285" y="772"/>
      <point x="342" y="622"/>
      <point x="424" y="595" type="qcurve"/>
      <point x="333" y="568"/>
      <point x="223" y="418"/>
      <point x="205" y="315" type="qcurve" smooth="yes"/>
      <point x="155" y="28" type="line" smooth="yes"/>
      <point x="134" y="-94"/>
      <point x="10" y="-224"/>
      <point x="-115" y="-224" type="qcurve" smooth="yes"/>
      <point x="-151" y="-224" type="line"/>
      <point x="-156" y="-256" type="line"/>
      <point x="-120" y="-256" type="line" smooth="yes"/>
      <point x="16" y="-256"/>
      <point x="168" y="-108"/>
      <point x="191" y="28" type="qcurve" smooth="yes"/>
      <point x="241" y="315" type="line" smooth="yes"/>
      <point x="255" y="396"/>
      <point x="354" y="556"/>
      <point x="457" y="579" type="qcurve"/>
      <point x="463" y="611" type="line"/>
      <point x="369" y="640"/>
      <point x="325" y="793"/>
      <point x="339" y="875" type="qcurve" smooth="yes"/>
    </contour>
  </outline>
</glyph>
<glyph name="asciitilde" format="2">
  <advance width="608"/>
  <unicode hex="007E"/>
  <outline>
    <contour>
      <point x="33" y="518" type="qcurve"/>
      <point x="68" y="510" type="line"/>
      <point x="79.625" y="538.125"/>
      <point x="103.844" y="582.344"/>
      <point x="132.906" y="612.906"/>
      <point x="168.75" y="629"/>
      <point x="192" y="629" type="qcurve" smooth="yes"/>
      <point x="219" y="629"/>
      <point x="260.156" y="591.812"/>
      <point x="301.594" y="547.188"/>
      <point x="349.875" y="510"/>
      <point x="384" y="510" type="qcurve" smooth="yes"/>
      <point x="406.5" y="510"/>
      <point x="449.469" y="523.312"/>
      <point x="489.781" y="556.688"/>
      <point x="527.125" y="613.5"/>
      <point x="544" y="657" type="qcurve"/>
      <point x="509" y="665" type="line"/>
      <point x="497.375" y="636.875"/>
      <point x="473.156" y="592.656"/>
      <point x="444.094" y="562.094"/>
      <point x="408.25" y="546"/>
      <point x="385" y="546" type="qcurve" smooth="yes"/>
      <point x="358" y="546"/>
      <point x="316.844" y="583.188"/>
      <point x="275.406" y="627.812"/>
      <point x="227.125" y="665"/>
      <point x="193" y="665" type="qcurve" smooth="yes"/>
      <point x="170.5" y="665"/>
      <point x="127.531" y="651.688"/>
      <point x="87.2188" y="618.312"/>
      <point x="49.875" y="561.5"/>
    </contour>
  </outline>
</glyph>
<glyph name="exclamdown" format="2">
  <advance width="246"/>
  <unicode hex="00A1"/>
  <outline>
    <contour>
      <point x="212" y="974" type="line"/>
      <point x="215" y="993"/>
      <point x="209" y="1000"/>
      <point x="191" y="1000" type="qcurve" smooth="yes"/>
      <point x="168" y="1000" type="line" smooth="yes"/>
      <point x="149" y="1000"/>
      <point x="141" y="993"/>
      <point x="138" y="974" type="qcurve"/>
      <point x="130" y="932" type="line"/>
      <point x="127" y="913"/>
      <point x="133" y="906"/>
      <point x="152" y="906" type="qcurve" smooth="yes"/>
      <point x="174" y="906" type="line" smooth="yes"/>
      <point x="193" y="906"/>
      <point x="201" y="913"/>
      <point x="204" y="932" type="qcurve"/>
    </contour>
    <contour>
      <point x="139" y="666" type="line"/>
      <point x="103" y="666" type="line"/>
      <point x="-86" y="-404" type="line"/>
      <point x="-46" y="-404" type="line"/>
    </contour>
  </outline>
</glyph>
<glyph name="cent" format="2">
  <advance width="460"/>
  <unicode hex="00A2"/>
  <outline>
    <contour>
      <point x="83" y="-100" type="line"/>
      <point x="119" y="-100" type="line"/>
      <point x="161" y="146" type="line"/>
      <point x="168" y="146" type="line" smooth="yes"/>
      <point x="249" y="146"/>
      <point x="326" y="218"/>
      <point x="339" y="291" type="qcurve" smooth="yes"/>
      <point x="365" y="440" type="line"/>
      <point x="331" y="450" type="line"/>
      <point x="303" y="294" type="line" smooth="yes"/>
      <point x="293" y="237"/>
      <point x="239" y="178"/>
      <point x="174" y="178" type="qcurve" smooth="yes"/>
      <point x="167" y="178" type="line"/>
      <point x="332" y="1122" type="line"/>
      <point x="335" y="1122" type="line" smooth="yes"/>
      <point x="400" y="1122"/>
      <point x="434" y="1063"/>
      <point x="424" y="1006" type="qcurve" smooth="yes"/>
      <point x="400" y="872" type="line"/>
      <point x="438" y="880" type="line"/>
      <point x="460" y="1009" type="line" smooth="yes"/>
      <point x="474" y="1090"/>
      <point x="413" y="1154"/>
      <point x="340" y="1154" type="qcurve" smooth="yes"/>
      <point x="337" y="1154" type="line"/>
      <point x="380" y="1400" type="line"/>
      <point x="344" y="1400" type="line"/>
      <point x="301" y="1154" type="line"/>
      <point x="296" y="1154" type="line" smooth="yes"/>
      <point x="223" y="1154"/>
      <point x="140" y="1090"/>
      <point x="126" y="1009" type="qcurve" smooth="yes"/>
      <point x="1" y="291" type="line" smooth="yes"/>
      <point x="-13" y="210"/>
      <point x="47" y="146"/>
      <point x="120" y="146" type="qcurve" smooth="yes"/>
      <point x="125" y="146" type="line"/>
    </contour>
    <contour>
      <point x="296" y="1122" type="line"/>
      <point x="131" y="178" type="line"/>
      <point x="126" y="178" type="line" smooth="yes"/>
      <point x="61" y="178"/>
      <point x="27" y="237"/>
      <point x="37" y="294" type="qcurve" smooth="yes"/>
      <point x="162" y="1006" type="line" smooth="yes"/>
      <point x="172" y="1063"/>
      <point x="226" y="1122"/>
      <point x="291" y="1122" type="qcurve" smooth="yes"/>
    </contour>
  </outline>
</glyph>
<glyph name="yen" format="2">
  <advance width="515"/>
  <unicode hex="00A5"/>
  <outline>
    <contour>
      <point x="120" y="0" type="line"/>
      <point x="160" y="0" type="line"/>
      <point x="241" y="463" type="line"/>
      <point x="379" y="463" type="line"/>
      <point x="385" y="499" type="line"/>
      <point x="247" y="499" type="line"/>
      <point x="270" y="633" type="line"/>
      <point x="408" y="633" type="line"/>
      <point x="415" y="669" type="line"/>
      <point x="288" y="669" type="line"/>
      <point x="641" y="1400" type="line"/>
      <point x="603" y="1400" type="line"/>
      <point x="263" y="694" type="line"/>
      <point x="169" y="1400" type="line"/>
      <point x="127" y="1400" type="line"/>
      <point x="226" y="669" type="line"/>
      <point x="100" y="669" type="line"/>
      <point x="93" y="633" type="line"/>
      <point x="230" y="633" type="line"/>
      <point x="230" y="633" type="line"/>
      <point x="207" y="499" type="line"/>
      <point x="70" y="499" type="line"/>
      <point x="64" y="463" type="line"/>
      <point x="201" y="463" type="line"/>
    </contour>
  </outline>
</glyph>
<glyph name="brokenbar" format="2">
  <advance width="231"/>
  <unicode hex="00A6"/>
  <outline>
    <contour>
      <point x="240" y="1520" type="line"/>
      <point x="280" y="1520" type="line"/>
      <point x="141" y="720" type="line"/>
      <point x="101" y="720" type="line"/>
    </contour>
    <contour>
      <point x="31" y="320" type="line"/>
      <point x="71" y="320" type="line"/>
      <point x="-69" y="-480" type="line"/>
      <point x="-109" y="-480" type="line"/>
    </contour>
  </outline>
</glyph>
<glyph name="dieresis" format="2">
  <advance width="266"/>
  <unicode hex="00A8"/>
  <outline>
    <contour>
      <point x="112" y="1136" type="qcurve" smooth="yes"/>
      <point x="130" y="1136" type="line" smooth="yes"/>
      <point x="149" y="1136"/>
      <point x="157" y="1143"/>
      <point x="161" y="1162" type="qcurve"/>
      <point x="164" y="1180" type="line" smooth="yes"/>
      <point x="167" y="1199"/>
      <point x="161" y="1206"/>
      <point x="143" y="1206" type="qcurve" smooth="yes"/>
      <point x="124" y="1206" type="line" smooth="yes"/>
      <point x="105" y="1206"/>
      <point x="97" y="1199"/>
      <point x="94" y="1180" type="qcurve" smooth="yes"/>
      <point x="91" y="1162" type="line"/>
      <point x="87" y="1143"/>
      <point x="93" y="1136"/>
    </contour>
    <contour>
      <point x="296" y="1136" type="qcurve" smooth="yes"/>
      <point x="314" y="1136" type="line" smooth="yes"/>
      <point x="333" y="1136"/>
      <point x="341" y="1143"/>
      <point x="345" y="1162" type="qcurve"/>
      <point x="348" y="1180" type="line" smooth="yes"/>
      <point x="351" y="1199"/>
      <point x="345" y="1206"/>
      <point x="327" y="1206" type="qcurve" smooth="yes"/>
      <point x="308" y="1206" type="line" smooth="yes"/>
      <point x="289" y="1206"/>
      <point x="281" y="1199"/>
      <point x="278" y="1180" type="qcurve" smooth="yes"/>
      <point x="275" y="1162" type="line"/>
      <point x="271" y="1143"/>
      <point x="277" y="1136"/>
    </contour>
  </outline>
</glyph>
<glyph name="copyright" format="2">
  <advance width="830"/>
  <unicode hex="00A9"/>
  <outline>
    <contour>
      <point x="227" y="501" type="line" smooth="yes"/>
      <point x="214.926" y="427.804"/>
      <point x="266.258" y="356"/>
      <point x="347" y="356" type="qcurve" smooth="yes"/>
      <point x="362" y="356" type="line" smooth="yes"/>
      <point x="442.742" y="356"/>
      <point x="519.926" y="427.804"/>
      <point x="532" y="501" type="qcurve"/>
      <point x="541" y="550" type="line"/>
      <point x="507" y="560" type="line"/>
      <point x="497" y="504" type="line" smooth="yes"/>
      <point x="485.681" y="439.104"/>
      <point x="424.595" y="388"/>
      <point x="368" y="388" type="qcurve" smooth="yes"/>
      <point x="353" y="388" type="line" smooth="yes"/>
      <point x="296.405" y="388"/>
      <point x="252.681" y="439.104"/>
      <point x="264" y="504" type="qcurve" smooth="yes"/>
      <point x="333" y="899" type="line" smooth="yes"/>
      <point x="344.319" y="963.896"/>
      <point x="405.405" y="1012"/>
      <point x="462" y="1012" type="qcurve" smooth="yes"/>
      <point x="473" y="1012" type="line" smooth="yes"/>
      <point x="529.595" y="1012"/>
      <point x="572.319" y="960.896"/>
      <point x="561" y="896" type="qcurve" smooth="yes"/>
      <point x="555" y="862" type="line"/>
      <point x="593" y="870" type="line"/>
      <point x="598" y="899" type="line" smooth="yes"/>
      <point x="610.828" y="972.196"/>
      <point x="558.742" y="1044"/>
      <point x="478" y="1044" type="qcurve" smooth="yes"/>
      <point x="467" y="1044" type="line" smooth="yes"/>
      <point x="386.258" y="1044"/>
      <point x="309.828" y="972.196"/>
      <point x="297" y="899" type="qcurve" smooth="yes"/>
    </contour>
    <contour>
      <point x="140" y="1014" type="qcurve" smooth="yes"/>
      <point x="30" y="386" type="line" smooth="yes"/>
      <point x="12" y="279.5"/>
      <point x="88.5" y="186"/>
      <point x="195" y="186" type="qcurve" smooth="yes"/>
      <point x="453" y="186" type="line" smooth="yes"/>
      <point x="560.153" y="186"/>
      <point x="669.89" y="278.847"/>
      <point x="688" y="386" type="qcurve" smooth="yes"/>
      <point x="798" y="1014" type="line" smooth="yes"/>
      <point x="816.75" y="1120.5"/>
      <point x="739.5" y="1214"/>
      <point x="633" y="1214" type="qcurve" smooth="yes"/>
      <point x="375" y="1214" type="line" smooth="yes"/>
      <point x="268.5" y="1214"/>
      <point x="158.75" y="1120.5"/>
    </contour>
    <contour>
      <point x="176" y="1016" type="line" smooth="yes"/>
      <point x="191.847" y="1105.8"/>
      <point x="279.693" y="1182"/>
      <point x="371" y="1182" type="qcurve" smooth="yes"/>
      <point x="625" y="1182" type="line" smooth="yes"/>
      <point x="716.307" y="1182"/>
      <point x="777.847" y="1105.8"/>
      <point x="762" y="1016" type="qcurve" smooth="yes"/>
      <point x="652" y="384" type="line" smooth="yes"/>
      <point x="636.153" y="294.203"/>
      <point x="548.307" y="218"/>
      <point x="457" y="218" type="qcurve" smooth="yes"/>
      <point x="203" y="218" type="line" smooth="yes"/>
      <point x="111.693" y="218"/>
      <point x="50.1534" y="294.203"/>
      <point x="66" y="384" type="qcurve" smooth="yes"/>
    </contour>
  </outline>
</glyph>
<glyph name="ordfeminine" format="2">
  <advance width="359"/>
  <unicode hex="00AA"/>
  <outline>
    <contour>
      <point x="164" y="787" type="qcurve" smooth="yes"/>
      <point x="246" y="787" type="line" smooth="yes"/>
      <point x="259.583" y="787"/>
      <point x="280.699" y="800.172"/>
      <point x="289" y="813" type="qcurve"/>
      <point x="285" y="790" type="line"/>
      <point x="321" y="790" type="line"/>
      <point x="418" y="1349" type="line" smooth="yes"/>
      <point x="427.055" y="1400.31"/>
      <point x="388.331" y="1448"/>
      <point x="334" y="1448" type="qcurve" smooth="yes"/>
      <point x="293" y="1448" type="line" smooth="yes"/>
      <point x="237.914" y="1448"/>
      <point x="181.055" y="1400.31"/>
      <point x="172" y="1349" type="qcurve" smooth="yes"/>
      <point x="161" y="1282" type="line"/>
      <point x="195" y="1275" type="line"/>
      <point x="208" y="1346" type="line" smooth="yes"/>
      <point x="214.791" y="1384.48"/>
      <point x="252.288" y="1416"/>
      <point x="287" y="1416" type="qcurve" smooth="yes"/>
      <point x="328" y="1416" type="line" smooth="yes"/>
      <point x="362.712" y="1416"/>
      <point x="388.791" y="1384.48"/>
      <point x="382" y="1346" type="qcurve" smooth="yes"/>
      <point x="352" y="1178" type="line"/>
      <point x="232" y="1178" type="line" smooth="yes"/>
      <point x="180.687" y="1178"/>
      <point x="126.055" y="1129.8"/>
      <point x="117" y="1080" type="qcurve" smooth="yes"/>
      <point x="84" y="886" type="line" smooth="yes"/>
      <point x="74.9448" y="835.442"/>
      <point x="111.933" y="787"/>
    </contour>
    <contour>
      <point x="120" y="889" type="qcurve" smooth="yes"/>
      <point x="153" y="1076" type="line" smooth="yes"/>
      <point x="159.791" y="1114.48"/>
      <point x="197.288" y="1146"/>
      <point x="232" y="1146" type="qcurve" smooth="yes"/>
      <point x="347" y="1146" type="line"/>
      <point x="290" y="819" type="line"/>
      <point x="175" y="819" type="line" smooth="yes"/>
      <point x="136.515" y="819"/>
      <point x="113.963" y="854.288"/>
    </contour>
  </outline>
  <guideline angle="0" x="0" y="36"/>
  <guideline angle="0" x="0" y="272"/>
  <guideline angle="0" x="0" y="36"/>
  <guideline angle="0" x="0" y="272"/>
</glyph>
<glyph name="guillemotleft" format="2">
  <advance width="417"/>
  <unicode hex="00AB"/>
  <outline>
    <contour>
      <point x="61" y="130" type="line"/>
      <point x="95" y="130" type="line"/>
      <point x="37" y="500" type="line"/>
      <point x="224" y="870" type="line"/>
      <point x="190" y="870" type="line"/>
      <point x="3" y="500" type="line"/>
    </contour>
    <contour>
      <point x="254" y="130" type="line"/>
      <point x="288" y="130" type="line"/>
      <point x="230" y="500" type="line"/>
      <point x="417" y="870" type="line"/>
      <point x="383" y="870" type="line"/>
      <point x="196" y="500" type="line"/>
    </contour>
  </outline>
</glyph>
<glyph name="registered" format="2">
  <advance width="581"/>
  <unicode hex="00AE"/>
  <outline>
    <contour>
      <point x="98" y="1035" type="line" smooth="yes"/>
      <point x="88" y="980"/>
      <point x="135" y="924"/>
      <point x="192" y="924" type="qcurve" smooth="yes"/>
      <point x="475" y="924" type="line" smooth="yes"/>
      <point x="532" y="924"/>
      <point x="599" y="980"/>
      <point x="609" y="1035" type="qcurve" smooth="yes"/>
      <point x="679" y="1440" type="line" smooth="yes"/>
      <point x="689" y="1494"/>
      <point x="642" y="1550"/>
      <point x="585" y="1550" type="qcurve" smooth="yes"/>
      <point x="302" y="1550" type="line" smooth="yes"/>
      <point x="245" y="1550"/>
      <point x="178" y="1494"/>
      <point x="168" y="1440" type="qcurve" smooth="yes"/>
    </contour>
    <contour>
      <point x="204" y="1437" type="line" smooth="yes"/>
      <point x="211" y="1477"/>
      <point x="256" y="1518"/>
      <point x="295" y="1518" type="qcurve" smooth="yes"/>
      <point x="579" y="1518" type="line" smooth="yes"/>
      <point x="619" y="1518"/>
      <point x="650" y="1477"/>
      <point x="643" y="1437" type="qcurve" smooth="yes"/>
      <point x="573" y="1038" type="line" smooth="yes"/>
      <point x="566" y="998"/>
      <point x="521" y="956"/>
      <point x="481" y="956" type="qcurve" smooth="yes"/>
      <point x="197" y="956" type="line" smooth="yes"/>
      <point x="158" y="956"/>
      <point x="127" y="998"/>
      <point x="134" y="1038" type="qcurve" smooth="yes"/>
    </contour>
    <contour>
      <point x="335" y="1400" type="line"/>
      <point x="276" y="1060" type="line"/>
      <point x="312" y="1060" type="line"/>
      <point x="336" y="1198" type="line"/>
      <point x="369" y="1198" type="line"/>
      <point x="416" y="1060" type="line"/>
      <point x="457" y="1060" type="line"/>
      <point x="407" y="1201" type="line"/>
      <point x="407" y="1201" type="line"/>
      <point x="436" y="1203"/>
      <point x="471" y="1231"/>
      <point x="476" y="1263" type="qcurve"/>
      <point x="490" y="1338" type="line" smooth="yes"/>
      <point x="496" y="1375"/>
      <point x="463" y="1400"/>
      <point x="429" y="1400" type="qcurve" smooth="yes"/>
    </contour>
    <contour>
      <point x="342" y="1230" type="line"/>
      <point x="366" y="1368" type="line"/>
      <point x="430" y="1368" type="line" smooth="yes"/>
      <point x="446" y="1368"/>
      <point x="456" y="1354"/>
      <point x="454" y="1340" type="qcurve" smooth="yes"/>
      <point x="440" y="1258" type="line"/>
      <point x="437" y="1244"/>
      <point x="422" y="1230"/>
      <point x="406" y="1230" type="qcurve" smooth="yes"/>
    </contour>
  </outline>
</glyph>
<glyph name="degree" format="2">
  <advance width="310"/>
  <unicode hex="00B0"/>
  <outline>
    <contour>
      <point x="146" y="1313" type="line" smooth="yes"/>
      <point x="136" y="1258"/>
      <point x="184" y="1202"/>
      <point x="241" y="1202" type="qcurve" smooth="yes"/>
      <point x="254" y="1202" type="line" smooth="yes"/>
      <point x="311" y="1202"/>
      <point x="377" y="1258"/>
      <point x="387" y="1313" type="qcurve" smooth="yes"/>
      <point x="400" y="1388" type="line" smooth="yes"/>
      <point x="410" y="1442"/>
      <point x="362" y="1498"/>
      <point x="305" y="1498" type="qcurve" smooth="yes"/>
      <point x="292" y="1498" type="line" smooth="yes"/>
      <point x="235" y="1498"/>
      <point x="169" y="1442"/>
      <point x="159" y="1388" type="qcurve" smooth="yes"/>
    </contour>
    <contour>
      <point x="183" y="1316" type="qcurve" smooth="yes"/>
      <point x="195" y="1385" type="line" smooth="yes"/>
      <point x="202" y="1425"/>
      <point x="247" y="1466"/>
      <point x="286" y="1466" type="qcurve" smooth="yes"/>
      <point x="300" y="1466" type="line" smooth="yes"/>
      <point x="340" y="1466"/>
      <point x="371" y="1425"/>
      <point x="364" y="1385" type="qcurve" smooth="yes"/>
      <point x="352" y="1316" type="line" smooth="yes"/>
      <point x="344" y="1276"/>
      <point x="299" y="1234"/>
      <point x="259" y="1234" type="qcurve" smooth="yes"/>
      <point x="245" y="1234" type="line" smooth="yes"/>
      <point x="206" y="1234"/>
      <point x="175" y="1276"/>
    </contour>
  </outline>
</glyph>
<glyph name="twosuperior" format="2">
  <advance width="375"/>
  <unicode hex="00B2"/>
  <outline>
    <contour>
      <point x="124" y="950" type="line"/>
      <point x="284" y="950" type="line" smooth="yes"/>
      <point x="319" y="950"/>
      <point x="369" y="991"/>
      <point x="376" y="1029" type="qcurve" smooth="yes"/>
      <point x="385" y="1081" type="line"/>
      <point x="351" y="1088" type="line"/>
      <point x="340" y="1022" type="line"/>
      <point x="336" y="1003"/>
      <point x="306" y="980"/>
      <point x="283" y="980" type="qcurve" smooth="yes"/>
      <point x="164" y="980" type="line"/>
      <point x="180" y="1069" type="line" smooth="yes"/>
      <point x="187" y="1107"/>
      <point x="223" y="1175"/>
      <point x="254" y="1217" type="qcurve" smooth="yes"/>
      <point x="372" y="1376" type="line" smooth="yes"/>
      <point x="403" y="1418"/>
      <point x="448" y="1500"/>
      <point x="455" y="1541" type="qcurve" smooth="yes"/>
      <point x="470" y="1627" type="line" smooth="yes"/>
      <point x="480" y="1682"/>
      <point x="433" y="1735"/>
      <point x="378" y="1735" type="qcurve" smooth="yes"/>
      <point x="372" y="1735" type="line" smooth="yes"/>
      <point x="317" y="1735"/>
      <point x="253" y="1681"/>
      <point x="243" y="1626" type="qcurve" smooth="yes"/>
      <point x="224" y="1516" type="line"/>
      <point x="257" y="1509" type="line"/>
      <point x="278" y="1631" type="line" smooth="yes"/>
      <point x="285" y="1669"/>
      <point x="327" y="1705"/>
      <point x="366" y="1705" type="qcurve" smooth="yes"/>
      <point x="374" y="1705" type="line" smooth="yes"/>
      <point x="413" y="1705"/>
      <point x="443" y="1669"/>
      <point x="436" y="1631" type="qcurve" smooth="yes"/>
      <point x="421" y="1544" type="line" smooth="yes"/>
      <point x="414" y="1508"/>
      <point x="380" y="1437"/>
      <point x="349" y="1395" type="qcurve" smooth="yes"/>
      <point x="232" y="1238" type="line" smooth="yes"/>
      <point x="201" y="1196"/>
      <point x="153" y="1118"/>
      <point x="145" y="1071" type="qcurve" smooth="yes"/>
    </contour>
  </outline>
</glyph>
<glyph name="threesuperior" format="2">
  <advance width="392"/>
  <unicode hex="00B3"/>
  <outline>
    <contour>
      <point x="164" y="1175" type="line"/>
      <point x="145" y="1065" type="line" smooth="yes"/>
      <point x="134" y="1002"/>
      <point x="182" y="950"/>
      <point x="230" y="950" type="qcurve" smooth="yes"/>
      <point x="254" y="950" type="line" smooth="yes"/>
      <point x="308" y="950"/>
      <point x="370" y="996"/>
      <point x="383" y="1066" type="qcurve" smooth="yes"/>
      <point x="419" y="1272" type="line" smooth="yes"/>
      <point x="427" y="1315"/>
      <point x="393" y="1350"/>
      <point x="361" y="1352" type="qcurve"/>
      <point x="400" y="1355"/>
      <point x="436" y="1397"/>
      <point x="446" y="1450" type="qcurve" smooth="yes"/>
      <point x="477" y="1629" type="line" smooth="yes"/>
      <point x="488" y="1690"/>
      <point x="441" y="1740"/>
      <point x="396" y="1740" type="qcurve" smooth="yes"/>
      <point x="371" y="1740" type="line" smooth="yes"/>
      <point x="346" y="1740"/>
      <point x="306" y="1730"/>
      <point x="276" y="1706"/>
      <point x="255" y="1663"/>
      <point x="249" y="1630" type="qcurve" smooth="yes"/>
      <point x="227" y="1503" type="line"/>
      <point x="260" y="1496" type="line"/>
      <point x="284" y="1634" type="line" smooth="yes"/>
      <point x="292" y="1679"/>
      <point x="329" y="1710"/>
      <point x="363" y="1710" type="qcurve" smooth="yes"/>
      <point x="390" y="1710" type="line" smooth="yes"/>
      <point x="421" y="1710"/>
      <point x="451" y="1673"/>
      <point x="443" y="1628" type="qcurve" smooth="yes"/>
      <point x="411" y="1448" type="line" smooth="yes"/>
      <point x="405" y="1412"/>
      <point x="381" y="1366"/>
      <point x="337" y="1366" type="qcurve" smooth="yes"/>
      <point x="281" y="1366" type="line"/>
      <point x="276" y="1336" type="line"/>
      <point x="343" y="1336" type="line" smooth="yes"/>
      <point x="367" y="1336"/>
      <point x="391" y="1308"/>
      <point x="385" y="1275" type="qcurve" smooth="yes"/>
      <point x="349" y="1066" type="line" smooth="yes"/>
      <point x="340" y="1015"/>
      <point x="298" y="980"/>
      <point x="260" y="980" type="qcurve" smooth="yes"/>
      <point x="234" y="980" type="line" smooth="yes"/>
      <point x="202" y="980"/>
      <point x="170" y="1016"/>
      <point x="178" y="1061" type="qcurve" smooth="yes"/>
      <point x="199" y="1181" type="line"/>
    </contour>
  </outline>
</glyph>
<glyph name="uni00B5" format="2">
  <advance width="524"/>
  <unicode hex="00B5"/>
  <outline>
    <contour>
      <point x="-108" y="-428" type="line"/>
      <point x="-70" y="-420" type="line"/>
      <point x="12" y="50" type="line"/>
      <point x="18.7914" y="23.589"/>
      <point x="71.9142" y="0"/>
      <point x="127" y="0" type="qcurve" smooth="yes"/>
      <point x="129" y="0" type="line" smooth="yes"/>
      <point x="190.877" y="0"/>
      <point x="267.344" y="29.0614"/>
      <point x="293" y="60" type="qcurve"/>
      <point x="283" y="0" type="line"/>
      <point x="319" y="0" type="line"/>
      <point x="494" y="1000" type="line"/>
      <point x="458" y="1000" type="line"/>
      <point x="311" y="160" type="line" smooth="yes"/>
      <point x="299.681" y="95.1044"/>
      <point x="213.669" y="32"/>
      <point x="145" y="32" type="qcurve" smooth="yes"/>
      <point x="133" y="32" type="line" smooth="yes"/>
      <point x="62.0676" y="32"/>
      <point x="19.681" y="93.5952"/>
      <point x="31" y="160" type="qcurve" smooth="yes"/>
      <point x="178" y="1000" type="line"/>
      <point x="142" y="1000" type="line"/>
    </contour>
  </outline>
</glyph>
<glyph name="paragraph" format="2">
  <advance width="547"/>
  <unicode hex="00B6"/>
  <outline>
    <contour>
      <point x="332" y="0" type="line"/>
      <point x="576" y="1400" type="line"/>
      <point x="368" y="1400" type="line" smooth="yes"/>
      <point x="261.5" y="1400"/>
      <point x="151.75" y="1306.5"/>
      <point x="133" y="1200" type="qcurve" smooth="yes"/>
      <point x="68" y="824" type="line" smooth="yes"/>
      <point x="58.625" y="770.75"/>
      <point x="67.9062" y="694.938"/>
      <point x="107.844" y="646.562"/>
      <point x="179.75" y="624"/>
      <point x="233" y="624" type="qcurve" smooth="yes"/>
      <point x="333" y="624" type="line"/>
      <point x="224" y="0" type="line"/>
      <point x="260" y="0" type="line"/>
      <point x="498" y="1364" type="line"/>
      <point x="534" y="1364" type="line"/>
      <point x="296" y="0" type="line"/>
    </contour>
  </outline>
  <guideline angle="90" color="0.4,0.4,0.4,1" name="halfwidth" x="273.5" y="0"/>
</glyph>
<glyph name="periodcentered" format="2">
  <advance width="231"/>
  <unicode hex="00B7"/>
  <outline>
    <contour>
      <point x="67" y="591" type="line" smooth="yes"/>
      <point x="63.9816" y="572.135"/>
      <point x="69.8896" y="565"/>
      <point x="88" y="565" type="qcurve" smooth="yes"/>
      <point x="111" y="565" type="line" smooth="yes"/>
      <point x="129.75" y="565"/>
      <point x="138" y="572.25"/>
      <point x="141" y="591" type="qcurve" smooth="yes"/>
      <point x="148" y="633" type="line"/>
      <point x="151.773" y="651.865"/>
      <point x="145.865" y="659"/>
      <point x="127" y="659" type="qcurve" smooth="yes"/>
      <point x="105" y="659" type="line" smooth="yes"/>
      <point x="86.25" y="659"/>
      <point x="77.75" y="651.75"/>
      <point x="74" y="633" type="qcurve"/>
    </contour>
  </outline>
</glyph>
<glyph name="cedilla" format="2">
  <advance width="281"/>
  <unicode hex="00B8"/>
  <outline>
    <contour>
      <point x="-45" y="-384" type="qcurve" smooth="yes"/>
      <point x="-14" y="-384"/>
      <point x="39" y="-363"/>
      <point x="80" y="-326"/>
      <point x="107" y="-273"/>
      <point x="113" y="-241" type="qcurve" smooth="yes"/>
      <point x="119" y="-208"/>
      <point x="109" y="-158"/>
      <point x="81" y="-123"/>
      <point x="35" y="-105"/>
      <point x="4" y="-105" type="qcurve"/>
      <point x="50" y="0" type="line"/>
      <point x="17" y="0" type="line"/>
      <point x="-50" y="-138" type="line"/>
      <point x="-35" y="-136"/>
      <point x="-12" y="-135"/>
      <point x="-1" y="-135" type="qcurve" smooth="yes"/>
      <point x="59" y="-135"/>
      <point x="86" y="-193"/>
      <point x="77" y="-244" type="qcurve" smooth="yes"/>
      <point x="68" y="-297"/>
      <point x="-1" y="-354"/>
      <point x="-39" y="-354" type="qcurve" smooth="yes"/>
      <point x="-87" y="-354"/>
      <point x="-134" y="-338"/>
      <point x="-153" y="-324" type="qcurve"/>
      <point x="-176" y="-346" type="line"/>
      <point x="-150" y="-366"/>
      <point x="-93" y="-384"/>
    </contour>
  </outline>
</glyph>
<glyph name="ordmasculine" format="2">
  <advance width="369"/>
  <unicode hex="00BA"/>
  <outline>
    <contour>
      <point x="89" y="886" type="line" smooth="yes"/>
      <point x="80" y="835"/>
      <point x="118" y="787"/>
      <point x="174" y="787" type="qcurve" smooth="yes"/>
      <point x="234" y="787" type="line" smooth="yes"/>
      <point x="291" y="787"/>
      <point x="345" y="835"/>
      <point x="354" y="886" type="qcurve" smooth="yes"/>
      <point x="434" y="1348" type="line" smooth="yes"/>
      <point x="443" y="1399"/>
      <point x="406" y="1448"/>
      <point x="350" y="1448" type="qcurve" smooth="yes"/>
      <point x="290" y="1448" type="line" smooth="yes"/>
      <point x="234" y="1448"/>
      <point x="178" y="1399"/>
      <point x="169" y="1348" type="qcurve" smooth="yes"/>
    </contour>
    <contour>
      <point x="125" y="889" type="qcurve" smooth="yes"/>
      <point x="205" y="1345" type="line" smooth="yes"/>
      <point x="212" y="1384"/>
      <point x="249" y="1416"/>
      <point x="284" y="1416" type="qcurve" smooth="yes"/>
      <point x="344" y="1416" type="line" smooth="yes"/>
      <point x="379" y="1416"/>
      <point x="405" y="1384"/>
      <point x="398" y="1345" type="qcurve" smooth="yes"/>
      <point x="318" y="889" type="line" smooth="yes"/>
      <point x="311" y="851"/>
      <point x="275" y="819"/>
      <point x="240" y="819" type="qcurve" smooth="yes"/>
      <point x="180" y="819" type="line" smooth="yes"/>
      <point x="145" y="819"/>
      <point x="118" y="851"/>
    </contour>
  </outline>
</glyph>
<glyph name="guillemotright" format="2">
  <advance width="383"/>
  <unicode hex="00BB"/>
  <outline>
    <contour>
      <point x="325" y="870" type="line"/>
      <point x="291" y="870" type="line"/>
      <point x="349" y="500" type="line"/>
      <point x="162" y="130" type="line"/>
      <point x="196" y="130" type="line"/>
      <point x="383" y="500" type="line"/>
    </contour>
    <contour>
      <point x="132" y="870" type="line"/>
      <point x="98" y="870" type="line"/>
      <point x="156" y="500" type="line"/>
      <point x="-31" y="130" type="line"/>
      <point x="3" y="130" type="line"/>
      <point x="190" y="500" type="line"/>
    </contour>
  </outline>
</glyph>
<glyph name="onequarter" format="2">
  <advance width="716"/>
  <unicode hex="00BC"/>
  <outline>
    <contour>
      <point x="141" y="614" type="line"/>
      <point x="175" y="614" type="line"/>
      <point x="313" y="1403" type="line"/>
      <point x="204" y="1380" type="line"/>
      <point x="200" y="1352" type="line"/>
      <point x="272" y="1363" type="line"/>
    </contour>
    <contour>
      <point x="750" y="1400" type="line"/>
      <point x="-98" y="0" type="line"/>
      <point x="-65" y="0" type="line"/>
      <point x="783" y="1400" type="line"/>
    </contour>
    <contour>
      <point x="317" y="177" type="line"/>
      <point x="498" y="177" type="line"/>
      <point x="467" y="0" type="line"/>
      <point x="501" y="0" type="line"/>
      <point x="532" y="177" type="line"/>
      <point x="578" y="177" type="line"/>
      <point x="583" y="207" type="line"/>
      <point x="537" y="207" type="line"/>
      <point x="638" y="784" type="line"/>
      <point x="601" y="784" type="line"/>
      <point x="321" y="202" type="line"/>
    </contour>
    <contour>
      <point x="357" y="207" type="line"/>
      <point x="588" y="691" type="line"/>
      <point x="503" y="207" type="line"/>
    </contour>
  </outline>
  <guideline angle="90" color="0.4,0.4,0.4,1" name="halfwidth" x="358" y="0"/>
</glyph>
<glyph name="onehalf" format="2">
  <advance width="776"/>
  <unicode hex="00BD"/>
  <outline>
    <contour>
      <point x="128" y="614" type="line"/>
      <point x="162" y="614" type="line"/>
      <point x="300" y="1403" type="line"/>
      <point x="191" y="1380" type="line"/>
      <point x="187" y="1352" type="line"/>
      <point x="259" y="1363" type="line"/>
    </contour>
    <contour>
      <point x="750" y="1400" type="line"/>
      <point x="-98" y="0" type="line"/>
      <point x="-65" y="0" type="line"/>
      <point x="783" y="1400" type="line"/>
    </contour>
    <contour>
      <point x="357" y="0" type="line"/>
      <point x="517" y="0" type="line" smooth="yes"/>
      <point x="552" y="0"/>
      <point x="602" y="41"/>
      <point x="609" y="79" type="qcurve" smooth="yes"/>
      <point x="618" y="131" type="line"/>
      <point x="584" y="138" type="line"/>
      <point x="573" y="72" type="line"/>
      <point x="569" y="53"/>
      <point x="539" y="30"/>
      <point x="516" y="30" type="qcurve" smooth="yes"/>
      <point x="397" y="30" type="line"/>
      <point x="413" y="119" type="line" smooth="yes"/>
      <point x="420" y="157"/>
      <point x="456" y="225"/>
      <point x="487" y="267" type="qcurve" smooth="yes"/>
      <point x="605" y="426" type="line" smooth="yes"/>
      <point x="636" y="468"/>
      <point x="681" y="550"/>
      <point x="688" y="591" type="qcurve" smooth="yes"/>
      <point x="703" y="677" type="line" smooth="yes"/>
      <point x="713" y="732"/>
      <point x="666" y="785"/>
      <point x="611" y="785" type="qcurve" smooth="yes"/>
      <point x="605" y="785" type="line" smooth="yes"/>
      <point x="550" y="785"/>
      <point x="486" y="731"/>
      <point x="476" y="676" type="qcurve" smooth="yes"/>
      <point x="457" y="566" type="line"/>
      <point x="490" y="559" type="line"/>
      <point x="511" y="681" type="line" smooth="yes"/>
      <point x="518" y="719"/>
      <point x="560" y="755"/>
      <point x="599" y="755" type="qcurve" smooth="yes"/>
      <point x="607" y="755" type="line" smooth="yes"/>
      <point x="646" y="755"/>
      <point x="676" y="719"/>
      <point x="669" y="681" type="qcurve" smooth="yes"/>
      <point x="654" y="594" type="line" smooth="yes"/>
      <point x="647" y="558"/>
      <point x="613" y="487"/>
      <point x="582" y="445" type="qcurve" smooth="yes"/>
      <point x="465" y="288" type="line" smooth="yes"/>
      <point x="434" y="246"/>
      <point x="386" y="168"/>
      <point x="378" y="121" type="qcurve" smooth="yes"/>
    </contour>
  </outline>
  <guideline angle="90" color="0.4,0.4,0.4,1" name="halfwidth" x="388" y="0"/>
</glyph>
<glyph name="questiondown" format="2">
  <advance width="487"/>
  <unicode hex="00BF"/>
  <outline>
    <contour>
      <point x="510" y="670" type="line"/>
      <point x="470" y="670" type="line"/>
      <point x="415" y="350" type="line"/>
      <point x="415" y="350"/>
      <point x="415" y="350"/>
      <point x="415" y="350" type="qcurve"/>
      <point x="371" y="346" type="line" smooth="yes"/>
      <point x="328" y="342"/>
      <point x="227" y="254"/>
      <point x="211" y="161" type="qcurve" smooth="yes"/>
      <point x="141" y="-238" type="line" smooth="yes"/>
      <point x="125" y="-328"/>
      <point x="189" y="-404"/>
      <point x="280" y="-404" type="qcurve" smooth="yes"/>
      <point x="305" y="-404" type="line" smooth="yes"/>
      <point x="396" y="-404"/>
      <point x="489" y="-326"/>
      <point x="504" y="-235" type="qcurve" smooth="yes"/>
      <point x="543" y="-14" type="line"/>
      <point x="504" y="-6" type="line"/>
      <point x="464" y="-236" type="line" smooth="yes"/>
      <point x="452" y="-308"/>
      <point x="382" y="-368"/>
      <point x="311" y="-368" type="qcurve" smooth="yes"/>
      <point x="286" y="-368" type="line" smooth="yes"/>
      <point x="214" y="-368"/>
      <point x="169" y="-309"/>
      <point x="181" y="-238" type="qcurve" smooth="yes"/>
      <point x="251" y="165" type="line" smooth="yes"/>
      <point x="262" y="228"/>
      <point x="333" y="307"/>
      <point x="387" y="312" type="qcurve" smooth="yes"/>
      <point x="446" y="317" type="line"/>
      <point x="446" y="317"/>
      <point x="449" y="317"/>
      <point x="449" y="317" type="qcurve"/>
    </contour>
    <contour>
      <point x="581" y="978" type="line" smooth="yes"/>
      <point x="585" y="998"/>
      <point x="580" y="1004"/>
      <point x="560" y="1004" type="qcurve" smooth="yes"/>
      <point x="538" y="1004" type="line" smooth="yes"/>
      <point x="519" y="1004"/>
      <point x="511" y="998"/>
      <point x="507" y="978" type="qcurve"/>
      <point x="500" y="936" type="line" smooth="yes"/>
      <point x="496" y="916"/>
      <point x="501" y="910"/>
      <point x="521" y="910" type="qcurve" smooth="yes"/>
      <point x="543" y="910" type="line" smooth="yes"/>
      <point x="563" y="910"/>
      <point x="570" y="917"/>
      <point x="574" y="936" type="qcurve"/>
    </contour>
  </outline>
</glyph>
<glyph name="Atilde" format="2">
  <advance width="520"/>
  <unicode hex="00C3"/>
  <anchor x="435" y="1676" name="top"/>
  <anchor x="115" y="-150" name="bottom"/>
  <anchor x="361" y="0" name="ogonek_in"/>
  <outline>
    <contour>
      <point x="-120" y="0" type="line"/>
      <point x="-83" y="0" type="line"/>
      <point x="29" y="328" type="line"/>
      <point x="363" y="328" type="line"/>
      <point x="361" y="0" type="line"/>
      <point x="400" y="0" type="line"/>
      <point x="405" y="1400" type="line"/>
      <point x="361" y="1400" type="line"/>
    </contour>
    <contour>
      <point x="42" y="364" type="line"/>
      <point x="368" y="1319" type="line"/>
      <point x="363" y="364" type="line"/>
    </contour>
    <contour>
      <point x="285" y="1554" type="qcurve"/>
      <point x="319" y="1547" type="line"/>
      <point x="330" y="1573"/>
      <point x="350" y="1595"/>
      <point x="367" y="1595" type="qcurve" smooth="yes"/>
      <point x="380" y="1595"/>
      <point x="401" y="1580"/>
      <point x="423" y="1562"/>
      <point x="451" y="1547"/>
      <point x="470" y="1547" type="qcurve" smooth="yes"/>
      <point x="482" y="1547"/>
      <point x="505" y="1554"/>
      <point x="526" y="1572"/>
      <point x="545" y="1601"/>
      <point x="553" y="1623" type="qcurve"/>
      <point x="519" y="1630" type="line"/>
      <point x="508" y="1604"/>
      <point x="488" y="1582"/>
      <point x="471" y="1582" type="qcurve" smooth="yes"/>
      <point x="458" y="1582"/>
      <point x="438" y="1597"/>
      <point x="415" y="1615"/>
      <point x="388" y="1630"/>
      <point x="368" y="1630" type="qcurve" smooth="yes"/>
      <point x="356" y="1630"/>
      <point x="333" y="1623"/>
      <point x="312" y="1605"/>
      <point x="293" y="1576"/>
    </contour>
  </outline>
</glyph>
<glyph name="Ccedilla" format="2">
  <advance width="570"/>
  <unicode hex="00C7"/>
  <anchor x="451" y="1554" name="top"/>
  <anchor x="179" y="-154" name="bottom"/>
  <anchor x="179" y="0" name="ogrev"/>
  <outline>
    <contour>
      <point x="174" y="1204" type="qcurve" smooth="yes"/>
      <point x="-2" y="192" type="line" smooth="yes"/>
      <point x="-21" y="85"/>
      <point x="56" y="-8"/>
      <point x="163" y="-8" type="qcurve" smooth="yes"/>
      <point x="195" y="-8" type="line" smooth="yes"/>
      <point x="302" y="-8"/>
      <point x="411" y="85"/>
      <point x="430" y="192" type="qcurve" smooth="yes"/>
      <point x="485" y="512" type="line"/>
      <point x="447" y="520" type="line"/>
      <point x="389" y="190" type="line" smooth="yes"/>
      <point x="373" y="100"/>
      <point x="290" y="28"/>
      <point x="199" y="28" type="qcurve" smooth="yes"/>
      <point x="171" y="28" type="line" smooth="yes"/>
      <point x="80" y="28"/>
      <point x="21" y="100"/>
      <point x="37" y="190" type="qcurve" smooth="yes"/>
      <point x="214" y="1206" type="line" smooth="yes"/>
      <point x="230" y="1296"/>
      <point x="314" y="1368"/>
      <point x="405" y="1368" type="qcurve" smooth="yes"/>
      <point x="433" y="1368" type="line" smooth="yes"/>
      <point x="524" y="1368"/>
      <point x="582" y="1296"/>
      <point x="566" y="1206" type="qcurve" smooth="yes"/>
      <point x="514" y="906" type="line"/>
      <point x="556" y="914" type="line"/>
      <point x="606" y="1204" type="line" smooth="yes"/>
      <point x="625" y="1311"/>
      <point x="548" y="1404"/>
      <point x="441" y="1404" type="qcurve" smooth="yes"/>
      <point x="409" y="1404" type="line" smooth="yes"/>
      <point x="303" y="1404"/>
      <point x="193" y="1311"/>
    </contour>
    <contour>
      <point x="111" y="-385" type="qcurve" smooth="yes"/>
      <point x="173" y="-385"/>
      <point x="258" y="-295"/>
      <point x="258" y="-229" type="qcurve" smooth="yes"/>
      <point x="258" y="-178"/>
      <point x="207" y="-116"/>
      <point x="159" y="-110" type="qcurve"/>
      <point x="223" y="11" type="line"/>
      <point x="193" y="11" type="line"/>
      <point x="110" y="-139" type="line"/>
      <point x="116" y="-138"/>
      <point x="134" y="-137"/>
      <point x="142" y="-138" type="qcurve"/>
      <point x="180" y="-141"/>
      <point x="223" y="-190"/>
      <point x="223" y="-231" type="qcurve" smooth="yes"/>
      <point x="223" y="-283"/>
      <point x="159" y="-355"/>
      <point x="112" y="-355" type="qcurve" smooth="yes"/>
      <point x="87" y="-355"/>
      <point x="33" y="-333"/>
      <point x="13" y="-315" type="qcurve"/>
      <point x="-5" y="-339" type="line"/>
      <point x="19" y="-361"/>
      <point x="80" y="-385"/>
    </contour>
  </outline>
  <guideline angle="0" x="0" y="21"/>
</glyph>
<glyph name="Egrave" format="2">
  <advance width="507"/>
  <unicode hex="00C8"/>
  <anchor x="442" y="1550" name="top"/>
  <anchor x="145" y="-150" name="bottom"/>
  <anchor x="382" y="0" name="ogonek"/>
  <anchor x="382" y="0" name="ogonek_out"/>
  <anchor x="473" y="1485" name="topright"/>
  <outline>
    <contour>
      <point x="-22" y="0" type="line"/>
      <point x="382" y="0" type="line"/>
      <point x="388" y="36" type="line"/>
      <point x="24" y="36" type="line"/>
      <point x="140" y="700" type="line"/>
      <point x="464" y="700" type="line"/>
      <point x="470" y="736" type="line"/>
      <point x="146" y="736" type="line"/>
      <point x="256" y="1364" type="line"/>
      <point x="606" y="1364" type="line"/>
      <point x="612" y="1400" type="line"/>
      <point x="222" y="1400" type="line"/>
    </contour>
    <contour>
      <point x="470" y="1485" type="line"/>
      <point x="509" y="1485" type="line"/>
      <point x="354" y="1800" type="line"/>
      <point x="310" y="1800" type="line"/>
    </contour>
  </outline>
</glyph>
<glyph name="Ecircumflex" format="2">
  <advance width="507"/>
  <unicode hex="00CA"/>
  <anchor x="501" y="1880" name="top"/>
  <anchor x="145" y="-150" name="bottom"/>
  <anchor x="382" y="0" name="ogonek"/>
  <anchor x="382" y="0" name="ogonek_out"/>
  <anchor x="589" y="1585" name="topright"/>
  <outline>
    <contour>
      <point x="-22" y="0" type="line"/>
      <point x="382" y="0" type="line"/>
      <point x="388" y="36" type="line"/>
      <point x="24" y="36" type="line"/>
      <point x="140" y="700" type="line"/>
      <point x="464" y="700" type="line"/>
      <point x="470" y="736" type="line"/>
      <point x="146" y="736" type="line"/>
      <point x="256" y="1364" type="line"/>
      <point x="606" y="1364" type="line"/>
      <point x="612" y="1400" type="line"/>
      <point x="222" y="1400" type="line"/>
    </contour>
    <contour>
      <point x="290" y="1485" type="line"/>
      <point x="329" y="1485" type="line"/>
      <point x="479" y="1756" type="line"/>
      <point x="534" y="1485" type="line"/>
      <point x="571" y="1485" type="line"/>
      <point x="502" y="1800" type="line"/>
      <point x="467" y="1800" type="line"/>
    </contour>
  </outline>
</glyph>
<glyph name="Edieresis" format="2">
  <advance width="507"/>
  <unicode hex="00CB"/>
  <anchor x="465" y="1679" name="top"/>
  <anchor x="145" y="-150" name="bottom"/>
  <anchor x="382" y="0" name="ogonek"/>
  <anchor x="382" y="0" name="ogonek_out"/>
  <outline>
    <contour>
      <point x="-22" y="0" type="line"/>
      <point x="382" y="0" type="line"/>
      <point x="388" y="36" type="line"/>
      <point x="24" y="36" type="line"/>
      <point x="140" y="700" type="line"/>
      <point x="464" y="700" type="line"/>
      <point x="470" y="736" type="line"/>
      <point x="146" y="736" type="line"/>
      <point x="256" y="1364" type="line"/>
      <point x="606" y="1364" type="line"/>
      <point x="612" y="1400" type="line"/>
      <point x="222" y="1400" type="line"/>
    </contour>
    <contour>
      <point x="333" y="1548" type="qcurve" smooth="yes"/>
      <point x="358" y="1548" type="line" smooth="yes"/>
      <point x="375" y="1548"/>
      <point x="383" y="1555"/>
      <point x="386" y="1572" type="qcurve" smooth="yes"/>
      <point x="390" y="1597" type="line" smooth="yes"/>
      <point x="393" y="1614"/>
      <point x="388" y="1621"/>
      <point x="371" y="1621" type="qcurve" smooth="yes"/>
      <point x="346" y="1621" type="line" smooth="yes"/>
      <point x="329" y="1621"/>
      <point x="320" y="1614"/>
      <point x="317" y="1597" type="qcurve" smooth="yes"/>
      <point x="313" y="1572" type="line" smooth="yes"/>
      <point x="310" y="1555"/>
      <point x="316" y="1548"/>
    </contour>
    <contour>
      <point x="526" y="1548" type="qcurve" smooth="yes"/>
      <point x="551" y="1548" type="line" smooth="yes"/>
      <point x="568" y="1548"/>
      <point x="576" y="1555"/>
      <point x="579" y="1572" type="qcurve" smooth="yes"/>
      <point x="583" y="1597" type="line" smooth="yes"/>
      <point x="586" y="1614"/>
      <point x="581" y="1621"/>
      <point x="564" y="1621" type="qcurve" smooth="yes"/>
      <point x="539" y="1621" type="line" smooth="yes"/>
      <point x="522" y="1621"/>
      <point x="513" y="1614"/>
      <point x="510" y="1597" type="qcurve" smooth="yes"/>
      <point x="506" y="1572" type="line" smooth="yes"/>
      <point x="503" y="1555"/>
      <point x="509" y="1548"/>
    </contour>
  </outline>
</glyph>
<glyph name="Igrave" format="2">
  <advance width="233"/>
  <unicode hex="00CC"/>
  <anchor x="269" y="1550" name="top"/>
  <anchor x="-28" y="-150" name="bottom"/>
  <anchor x="-22" y="0" name="ogonek"/>
  <anchor x="300" y="1485" name="topright"/>
  <outline>
    <contour>
      <point x="-22" y="0" type="line"/>
      <point x="18" y="0" type="line"/>
      <point x="262" y="1400" type="line"/>
      <point x="222" y="1400" type="line"/>
    </contour>
    <contour>
      <point x="297" y="1485" type="line"/>
      <point x="336" y="1485" type="line"/>
      <point x="181" y="1800" type="line"/>
      <point x="137" y="1800" type="line"/>
    </contour>
  </outline>
</glyph>
<glyph name="Iacute" format="2">
  <advance width="233"/>
  <unicode hex="00CD"/>
  <anchor x="269" y="1550" name="top"/>
  <anchor x="-28" y="-150" name="bottom"/>
  <anchor x="-22" y="0" name="ogonek"/>
  <anchor x="216" y="1485" name="topright"/>
  <outline>
    <contour>
      <point x="-22" y="0" type="line"/>
      <point x="18" y="0" type="line"/>
      <point x="262" y="1400" type="line"/>
      <point x="222" y="1400" type="line"/>
    </contour>
    <contour>
      <point x="172" y="1485" type="line"/>
      <point x="219" y="1485" type="line"/>
      <point x="490" y="1800" type="line"/>
      <point x="437" y="1800" type="line"/>
    </contour>
  </outline>
</glyph>
<glyph name="Icircumflex" format="2">
  <advance width="230"/>
  <unicode hex="00CE"/>
  <anchor x="325" y="1880" name="top"/>
  <anchor x="-31" y="-150" name="bottom"/>
  <anchor x="15" y="0" name="ogonek"/>
  <anchor x="413" y="1585" name="topright"/>
  <outline>
    <contour>
      <point x="-22" y="0" type="line"/>
      <point x="18" y="0" type="line"/>
      <point x="262" y="1400" type="line"/>
      <point x="222" y="1400" type="line"/>
    </contour>
    <contour>
      <point x="114" y="1485" type="line"/>
      <point x="153" y="1485" type="line"/>
      <point x="303" y="1756" type="line"/>
      <point x="358" y="1485" type="line"/>
      <point x="395" y="1485" type="line"/>
      <point x="326" y="1800" type="line"/>
      <point x="291" y="1800" type="line"/>
    </contour>
  </outline>
</glyph>
<glyph name="Idieresis" format="2">
  <advance width="233"/>
  <unicode hex="00CF"/>
  <anchor x="292" y="1679" name="top"/>
  <anchor x="-28" y="-150" name="bottom"/>
  <anchor x="18" y="0" name="ogonek"/>
  <outline>
    <contour>
      <point x="-22" y="0" type="line"/>
      <point x="18" y="0" type="line"/>
      <point x="262" y="1400" type="line"/>
      <point x="222" y="1400" type="line"/>
    </contour>
    <contour>
      <point x="160" y="1548" type="qcurve" smooth="yes"/>
      <point x="185" y="1548" type="line" smooth="yes"/>
      <point x="202.356" y="1548"/>
      <point x="209.982" y="1554.64"/>
      <point x="213" y="1572" type="qcurve" smooth="yes"/>
      <point x="217" y="1597" type="line" smooth="yes"/>
      <point x="220.018" y="1614.36"/>
      <point x="215.356" y="1621"/>
      <point x="198" y="1621" type="qcurve" smooth="yes"/>
      <point x="173" y="1621" type="line" smooth="yes"/>
      <point x="155.644" y="1621"/>
      <point x="147.018" y="1614.36"/>
      <point x="144" y="1597" type="qcurve" smooth="yes"/>
      <point x="140" y="1572" type="line" smooth="yes"/>
      <point x="136.982" y="1554.64"/>
      <point x="142.644" y="1548"/>
    </contour>
    <contour>
      <point x="353" y="1548" type="qcurve" smooth="yes"/>
      <point x="378" y="1548" type="line" smooth="yes"/>
      <point x="395.356" y="1548"/>
      <point x="402.982" y="1554.64"/>
      <point x="406" y="1572" type="qcurve" smooth="yes"/>
      <point x="410" y="1597" type="line" smooth="yes"/>
      <point x="413.018" y="1614.36"/>
      <point x="408.356" y="1621"/>
      <point x="391" y="1621" type="qcurve" smooth="yes"/>
      <point x="366" y="1621" type="line" smooth="yes"/>
      <point x="348.644" y="1621"/>
      <point x="340.018" y="1614.36"/>
      <point x="337" y="1597" type="qcurve" smooth="yes"/>
      <point x="333" y="1572" type="line" smooth="yes"/>
      <point x="329.982" y="1554.64"/>
      <point x="335.644" y="1548"/>
    </contour>
  </outline>
</glyph>
<glyph name="Ocircumflex" format="2">
  <advance width="594"/>
  <unicode hex="00D4"/>
  <anchor x="508" y="1880" name="top"/>
  <anchor x="177" y="-150" name="bottom"/>
  <anchor x="602" y="1208" name="horn"/>
  <anchor x="199" y="0" name="ogonek"/>
  <anchor x="596" y="1585" name="topright"/>
  <outline>
    <contour>
      <point x="175" y="1208" type="qcurve" smooth="yes"/>
      <point x="-2" y="192" type="line" smooth="yes"/>
      <point x="-20.865" y="84.8468"/>
      <point x="55.8468" y="-8"/>
      <point x="163" y="-8" type="qcurve" smooth="yes"/>
      <point x="191" y="-8" type="line" smooth="yes"/>
      <point x="298.153" y="-8"/>
      <point x="407.135" y="84.8468"/>
      <point x="426" y="192" type="qcurve" smooth="yes"/>
      <point x="603" y="1208" type="line" smooth="yes"/>
      <point x="621.75" y="1314.5"/>
      <point x="544.5" y="1408"/>
      <point x="438" y="1408" type="qcurve" smooth="yes"/>
      <point x="410" y="1408" type="line" smooth="yes"/>
      <point x="303.5" y="1408"/>
      <point x="193.75" y="1314.5"/>
    </contour>
    <contour>
      <point x="215" y="1210" type="line" smooth="yes"/>
      <point x="230.847" y="1299.8"/>
      <point x="313.693" y="1372"/>
      <point x="405" y="1372" type="qcurve" smooth="yes"/>
      <point x="429" y="1372" type="line" smooth="yes"/>
      <point x="520.307" y="1372"/>
      <point x="578.847" y="1299.8"/>
      <point x="563" y="1210" type="qcurve" smooth="yes"/>
      <point x="385" y="190" type="line" smooth="yes"/>
      <point x="369.153" y="100.203"/>
      <point x="286.307" y="28"/>
      <point x="195" y="28" type="qcurve" smooth="yes"/>
      <point x="171" y="28" type="line" smooth="yes"/>
      <point x="79.6934" y="28"/>
      <point x="21.1534" y="100.203"/>
      <point x="37" y="190" type="qcurve" smooth="yes"/>
    </contour>
    <contour>
      <point x="297" y="1485" type="line"/>
      <point x="336" y="1485" type="line"/>
      <point x="486" y="1756" type="line"/>
      <point x="541" y="1485" type="line"/>
      <point x="578" y="1485" type="line"/>
      <point x="509" y="1800" type="line"/>
      <point x="474" y="1800" type="line"/>
    </contour>
  </outline>
</glyph>
<glyph name="Otilde" format="2">
  <advance width="591"/>
  <unicode hex="00D5"/>
  <anchor x="474" y="1676" name="top"/>
  <anchor x="152" y="-150" name="bottom"/>
  <anchor x="599" y="1208" name="horn"/>
  <anchor x="196" y="0" name="ogonek"/>
  <outline>
    <contour>
      <point x="175" y="1208" type="qcurve" smooth="yes"/>
      <point x="-2" y="192" type="line" smooth="yes"/>
      <point x="-20.865" y="84.8468"/>
      <point x="55.8468" y="-8"/>
      <point x="163" y="-8" type="qcurve" smooth="yes"/>
      <point x="191" y="-8" type="line" smooth="yes"/>
      <point x="298.153" y="-8"/>
      <point x="407.135" y="84.8468"/>
      <point x="426" y="192" type="qcurve" smooth="yes"/>
      <point x="603" y="1208" type="line" smooth="yes"/>
      <point x="621.75" y="1314.5"/>
      <point x="544.5" y="1408"/>
      <point x="438" y="1408" type="qcurve" smooth="yes"/>
      <point x="410" y="1408" type="line" smooth="yes"/>
      <point x="303.5" y="1408"/>
      <point x="193.75" y="1314.5"/>
    </contour>
    <contour>
      <point x="215" y="1210" type="line" smooth="yes"/>
      <point x="230.847" y="1299.8"/>
      <point x="313.693" y="1372"/>
      <point x="405" y="1372" type="qcurve" smooth="yes"/>
      <point x="429" y="1372" type="line" smooth="yes"/>
      <point x="520.307" y="1372"/>
      <point x="578.847" y="1299.8"/>
      <point x="563" y="1210" type="qcurve" smooth="yes"/>
      <point x="385" y="190" type="line" smooth="yes"/>
      <point x="369.153" y="100.203"/>
      <point x="286.307" y="28"/>
      <point x="195" y="28" type="qcurve" smooth="yes"/>
      <point x="171" y="28" type="line" smooth="yes"/>
      <point x="79.6934" y="28"/>
      <point x="21.1534" y="100.203"/>
      <point x="37" y="190" type="qcurve" smooth="yes"/>
    </contour>
    <contour>
      <point x="324" y="1554" type="qcurve"/>
      <point x="358" y="1547" type="line"/>
      <point x="368.564" y="1573.41"/>
      <point x="388.644" y="1595"/>
      <point x="406" y="1595" type="qcurve" smooth="yes"/>
      <point x="418.75" y="1595"/>
      <point x="439.5" y="1580"/>
      <point x="462" y="1562"/>
      <point x="489.5" y="1547"/>
      <point x="509" y="1547" type="qcurve" smooth="yes"/>
      <point x="520.625" y="1547"/>
      <point x="543.562" y="1554.16"/>
      <point x="564.938" y="1571.59"/>
      <point x="584.125" y="1600.88"/>
      <point x="592" y="1623" type="qcurve"/>
      <point x="558" y="1630" type="line"/>
      <point x="547.436" y="1603.59"/>
      <point x="527.356" y="1582"/>
      <point x="510" y="1582" type="qcurve" smooth="yes"/>
      <point x="497.25" y="1582"/>
      <point x="476.5" y="1597"/>
      <point x="454" y="1615"/>
      <point x="426.5" y="1630"/>
      <point x="407" y="1630" type="qcurve" smooth="yes"/>
      <point x="395.375" y="1630"/>
      <point x="372.438" y="1622.84"/>
      <point x="351.062" y="1605.41"/>
      <point x="331.875" y="1576.12"/>
    </contour>
  </outline>
</glyph>
<glyph name="multiply" format="2">
  <advance width="608"/>
  <unicode hex="00D7"/>
  <outline>
    <contour>
      <point x="61" y="297" type="line"/>
      <point x="285" y="555" type="line"/>
      <point x="419" y="297" type="line"/>
      <point x="451" y="317" type="line"/>
      <point x="311" y="586" type="line"/>
      <point x="545" y="854" type="line"/>
      <point x="516" y="878" type="line"/>
      <point x="292" y="620" type="line"/>
      <point x="158" y="878" type="line"/>
      <point x="126" y="858" type="line"/>
      <point x="266" y="589" type="line"/>
      <point x="33" y="320" type="line"/>
    </contour>
  </outline>
  <guideline angle="31.4328" color="1,0,0,1" x="151" y="140"/>
  <guideline angle="322.193" color="1,0,0,1" x="281" y="1003"/>
</glyph>
<glyph name="Ugrave" format="2">
  <advance width="591"/>
  <unicode hex="00D9"/>
  <anchor x="446" y="1550" name="top"/>
  <anchor x="149" y="-150" name="bottom"/>
  <anchor x="195" y="0" name="ogonek"/>
  <anchor x="626" y="1400" name="horn"/>
  <anchor x="477" y="1485" name="topright"/>
  <outline>
    <contour>
      <point x="215" y="1400" type="line"/>
      <point x="5" y="192" type="line" smooth="yes"/>
      <point x="-4" y="139"/>
      <point x="5" y="63"/>
      <point x="45" y="15"/>
      <point x="117" y="-8"/>
      <point x="170" y="-8" type="qcurve" smooth="yes"/>
      <point x="184" y="-8" type="line" smooth="yes"/>
      <point x="291" y="-8"/>
      <point x="400" y="86"/>
      <point x="419" y="192" type="qcurve" smooth="yes"/>
      <point x="629" y="1400" type="line"/>
      <point x="589" y="1400" type="line"/>
      <point x="378" y="190" type="line" smooth="yes"/>
      <point x="362" y="99"/>
      <point x="278" y="28"/>
      <point x="188" y="28" type="qcurve" smooth="yes"/>
      <point x="178" y="28" type="line" smooth="yes"/>
      <point x="88" y="28"/>
      <point x="28" y="99"/>
      <point x="44" y="190" type="qcurve" smooth="yes"/>
      <point x="255" y="1400" type="line"/>
    </contour>
    <contour>
      <point x="474" y="1485" type="line"/>
      <point x="513" y="1485" type="line"/>
      <point x="358" y="1800" type="line"/>
      <point x="314" y="1800" type="line"/>
    </contour>
  </outline>
</glyph>
<glyph name="Uacute" format="2">
  <advance width="594"/>
  <unicode hex="00DA"/>
  <anchor x="448" y="1550" name="top"/>
  <anchor x="177" y="-150" name="bottom"/>
  <anchor x="177" y="0" name="ogonek"/>
  <anchor x="609" y="1400" name="horn"/>
  <anchor x="395" y="1485" name="topright"/>
  <outline>
    <contour>
      <point x="215" y="1400" type="line"/>
      <point x="5" y="192" type="line" smooth="yes"/>
      <point x="-4" y="139"/>
      <point x="5" y="63"/>
      <point x="45" y="15"/>
      <point x="117" y="-8"/>
      <point x="170" y="-8" type="qcurve" smooth="yes"/>
      <point x="184" y="-8" type="line" smooth="yes"/>
      <point x="291" y="-8"/>
      <point x="400" y="86"/>
      <point x="419" y="192" type="qcurve" smooth="yes"/>
      <point x="629" y="1400" type="line"/>
      <point x="589" y="1400" type="line"/>
      <point x="378" y="190" type="line" smooth="yes"/>
      <point x="362" y="99"/>
      <point x="278" y="28"/>
      <point x="188" y="28" type="qcurve" smooth="yes"/>
      <point x="178" y="28" type="line" smooth="yes"/>
      <point x="88" y="28"/>
      <point x="28" y="99"/>
      <point x="44" y="190" type="qcurve" smooth="yes"/>
      <point x="255" y="1400" type="line"/>
    </contour>
    <contour>
      <point x="351" y="1485" type="line"/>
      <point x="398" y="1485" type="line"/>
      <point x="669" y="1800" type="line"/>
      <point x="616" y="1800" type="line"/>
    </contour>
  </outline>
</glyph>
<glyph name="Ucircumflex" format="2">
  <advance width="591"/>
  <unicode hex="00DB"/>
  <anchor x="505" y="1880" name="top"/>
  <anchor x="149" y="-150" name="bottom"/>
  <anchor x="195" y="0" name="ogonek"/>
  <anchor x="626" y="1400" name="horn"/>
  <anchor x="593" y="1585" name="topright"/>
  <outline>
    <contour>
      <point x="215" y="1400" type="line"/>
      <point x="5" y="192" type="line" smooth="yes"/>
      <point x="-4" y="139"/>
      <point x="5" y="63"/>
      <point x="45" y="15"/>
      <point x="117" y="-8"/>
      <point x="170" y="-8" type="qcurve" smooth="yes"/>
      <point x="184" y="-8" type="line" smooth="yes"/>
      <point x="291" y="-8"/>
      <point x="400" y="86"/>
      <point x="419" y="192" type="qcurve" smooth="yes"/>
      <point x="629" y="1400" type="line"/>
      <point x="589" y="1400" type="line"/>
      <point x="378" y="190" type="line" smooth="yes"/>
      <point x="362" y="99"/>
      <point x="278" y="28"/>
      <point x="188" y="28" type="qcurve" smooth="yes"/>
      <point x="178" y="28" type="line" smooth="yes"/>
      <point x="88" y="28"/>
      <point x="28" y="99"/>
      <point x="44" y="190" type="qcurve" smooth="yes"/>
      <point x="255" y="1400" type="line"/>
    </contour>
    <contour>
      <point x="294" y="1485" type="line"/>
      <point x="333" y="1485" type="line"/>
      <point x="483" y="1756" type="line"/>
      <point x="538" y="1485" type="line"/>
      <point x="575" y="1485" type="line"/>
      <point x="506" y="1800" type="line"/>
      <point x="471" y="1800" type="line"/>
    </contour>
  </outline>
</glyph>
<glyph name="Udieresis" format="2">
  <advance width="591"/>
  <unicode hex="00DC"/>
  <anchor x="469" y="1679" name="top"/>
  <anchor x="149" y="-150" name="bottom"/>
  <anchor x="195" y="0" name="ogonek"/>
  <anchor x="626" y="1400" name="horn"/>
  <outline>
    <contour>
      <point x="215" y="1400" type="line"/>
      <point x="5" y="192" type="line" smooth="yes"/>
      <point x="-4" y="139"/>
      <point x="5" y="63"/>
      <point x="45" y="15"/>
      <point x="117" y="-8"/>
      <point x="170" y="-8" type="qcurve" smooth="yes"/>
      <point x="184" y="-8" type="line" smooth="yes"/>
      <point x="291" y="-8"/>
      <point x="400" y="86"/>
      <point x="419" y="192" type="qcurve" smooth="yes"/>
      <point x="629" y="1400" type="line"/>
      <point x="589" y="1400" type="line"/>
      <point x="378" y="190" type="line" smooth="yes"/>
      <point x="362" y="99"/>
      <point x="278" y="28"/>
      <point x="188" y="28" type="qcurve" smooth="yes"/>
      <point x="178" y="28" type="line" smooth="yes"/>
      <point x="88" y="28"/>
      <point x="28" y="99"/>
      <point x="44" y="190" type="qcurve" smooth="yes"/>
      <point x="255" y="1400" type="line"/>
    </contour>
    <contour>
      <point x="337" y="1548" type="qcurve" smooth="yes"/>
      <point x="362" y="1548" type="line" smooth="yes"/>
      <point x="379" y="1548"/>
      <point x="387" y="1555"/>
      <point x="390" y="1572" type="qcurve" smooth="yes"/>
      <point x="394" y="1597" type="line" smooth="yes"/>
      <point x="397" y="1614"/>
      <point x="392" y="1621"/>
      <point x="375" y="1621" type="qcurve" smooth="yes"/>
      <point x="350" y="1621" type="line" smooth="yes"/>
      <point x="333" y="1621"/>
      <point x="324" y="1614"/>
      <point x="321" y="1597" type="qcurve" smooth="yes"/>
      <point x="317" y="1572" type="line" smooth="yes"/>
      <point x="314" y="1555"/>
      <point x="320" y="1548"/>
    </contour>
    <contour>
      <point x="530" y="1548" type="qcurve" smooth="yes"/>
      <point x="555" y="1548" type="line" smooth="yes"/>
      <point x="572" y="1548"/>
      <point x="580" y="1555"/>
      <point x="583" y="1572" type="qcurve" smooth="yes"/>
      <point x="587" y="1597" type="line" smooth="yes"/>
      <point x="590" y="1614"/>
      <point x="585" y="1621"/>
      <point x="568" y="1621" type="qcurve" smooth="yes"/>
      <point x="543" y="1621" type="line" smooth="yes"/>
      <point x="526" y="1621"/>
      <point x="517" y="1614"/>
      <point x="514" y="1597" type="qcurve" smooth="yes"/>
      <point x="510" y="1572" type="line" smooth="yes"/>
      <point x="507" y="1555"/>
      <point x="513" y="1548"/>
    </contour>
  </outline>
</glyph>
<glyph name="Yacute" format="2">
  <advance width="515"/>
  <unicode hex="00DD"/>
  <anchor x="487" y="1550" name="top"/>
  <anchor x="114" y="-150" name="bottom"/>
  <anchor x="434" y="1485" name="topright"/>
  <outline>
    <contour>
      <point x="120" y="0" type="line"/>
      <point x="160" y="0" type="line"/>
      <point x="271" y="634" type="line"/>
      <point x="641" y="1400" type="line"/>
      <point x="602" y="1400" type="line"/>
      <point x="262" y="692" type="line"/>
      <point x="168" y="1400" type="line"/>
      <point x="127" y="1400" type="line"/>
      <point x="231" y="634" type="line"/>
    </contour>
    <contour>
      <point x="390" y="1485" type="line"/>
      <point x="437" y="1485" type="line"/>
      <point x="708" y="1800" type="line"/>
      <point x="655" y="1800" type="line"/>
    </contour>
  </outline>
  <guideline angle="260.1" color="1,0,0,1" x="216" y="-0"/>
</glyph>
<glyph name="Thorn" format="2">
  <advance width="556"/>
  <unicode hex="00DE"/>
  <outline>
    <contour>
      <point x="-32" y="0" type="line"/>
      <point x="8" y="0" type="line"/>
      <point x="65" y="327" type="line"/>
      <point x="225" y="327" type="line" smooth="yes"/>
      <point x="332" y="327"/>
      <point x="441" y="421"/>
      <point x="460" y="527" type="qcurve" smooth="yes"/>
      <point x="529" y="923" type="line" smooth="yes"/>
      <point x="548" y="1030"/>
      <point x="471" y="1123"/>
      <point x="364" y="1123" type="qcurve" smooth="yes"/>
      <point x="204" y="1123" type="line"/>
      <point x="252" y="1400" type="line"/>
      <point x="212" y="1400" type="line"/>
    </contour>
    <contour>
      <point x="71" y="363" type="line"/>
      <point x="198" y="1087" type="line"/>
      <point x="356" y="1087" type="line" smooth="yes"/>
      <point x="447" y="1087"/>
      <point x="505" y="1015"/>
      <point x="489" y="925" type="qcurve" smooth="yes"/>
      <point x="420" y="525" type="line" smooth="yes"/>
      <point x="404" y="435"/>
      <point x="320" y="363"/>
      <point x="229" y="363" type="qcurve" smooth="yes"/>
    </contour>
  </outline>
  <guideline angle="90" color="0.4,0.4,0.4,1" name="halfwidth" x="278" y="0"/>
</glyph>
<glyph name="germandbls" format="2">
  <advance width="475"/>
  <unicode hex="00DF"/>
  <outline>
    <contour>
      <point x="-42" y="0" type="line"/>
      <point x="-6" y="0" type="line"/>
      <point x="222" y="1304" type="line" smooth="yes"/>
      <point x="233" y="1368"/>
      <point x="294" y="1420"/>
      <point x="351" y="1420" type="qcurve" smooth="yes"/>
      <point x="381" y="1420" type="line" smooth="yes"/>
      <point x="438" y="1420"/>
      <point x="481" y="1368"/>
      <point x="470" y="1304" type="qcurve" smooth="yes"/>
      <point x="437" y="1116" type="line" smooth="yes"/>
      <point x="426" y="1052"/>
      <point x="365" y="1000"/>
      <point x="308" y="1000" type="qcurve" smooth="yes"/>
      <point x="280" y="1000" type="line"/>
      <point x="274" y="968" type="line"/>
      <point x="317" y="968" type="line" smooth="yes"/>
      <point x="381" y="968"/>
      <point x="421" y="916"/>
      <point x="410" y="851" type="qcurve" smooth="yes"/>
      <point x="287" y="146" type="line" smooth="yes"/>
      <point x="276" y="81"/>
      <point x="218" y="30"/>
      <point x="154" y="30" type="qcurve" smooth="yes"/>
      <point x="78" y="30" type="line"/>
      <point x="72" y="-2" type="line"/>
      <point x="152" y="-2" type="line" smooth="yes"/>
      <point x="233" y="-2"/>
      <point x="310" y="70"/>
      <point x="322" y="143" type="qcurve" smooth="yes"/>
      <point x="447" y="855" type="line" smooth="yes"/>
      <point x="456" y="908"/>
      <point x="435" y="974"/>
      <point x="399" y="989" type="qcurve"/>
      <point x="430" y="1006"/>
      <point x="465" y="1068"/>
      <point x="473" y="1113" type="qcurve" smooth="yes"/>
      <point x="507" y="1307" type="line" smooth="yes"/>
      <point x="520" y="1380"/>
      <point x="468" y="1452"/>
      <point x="387" y="1452" type="qcurve" smooth="yes"/>
      <point x="357" y="1452" type="line" smooth="yes"/>
      <point x="276" y="1452"/>
      <point x="200" y="1380"/>
      <point x="187" y="1307" type="qcurve" smooth="yes"/>
    </contour>
  </outline>
</glyph>
<glyph name="atilde" format="2">
  <advance width="472"/>
  <unicode hex="00E3"/>
  <anchor x="351" y="1347" name="top"/>
  <anchor x="89" y="-150" name="bottom"/>
  <anchor x="239" y="0" name="ogonek"/>
  <outline>
    <contour>
      <point x="87" y="-4" type="qcurve" smooth="yes"/>
      <point x="192" y="-4" type="line" smooth="yes"/>
      <point x="209" y="-4"/>
      <point x="233" y="8"/>
      <point x="243" y="22" type="qcurve"/>
      <point x="239" y="0" type="line"/>
      <point x="275" y="0" type="line"/>
      <point x="425" y="859" type="line" smooth="yes"/>
      <point x="438" y="932"/>
      <point x="386" y="1004"/>
      <point x="305" y="1004" type="qcurve" smooth="yes"/>
      <point x="275" y="1004" type="line" smooth="yes"/>
      <point x="194" y="1004"/>
      <point x="118" y="932"/>
      <point x="105" y="859" type="qcurve" smooth="yes"/>
      <point x="86" y="750" type="line"/>
      <point x="121" y="742" type="line"/>
      <point x="140" y="856" type="line" smooth="yes"/>
      <point x="151" y="920"/>
      <point x="213" y="972"/>
      <point x="270" y="972" type="qcurve" smooth="yes"/>
      <point x="300" y="972" type="line" smooth="yes"/>
      <point x="357" y="972"/>
      <point x="399" y="920"/>
      <point x="388" y="856" type="qcurve" smooth="yes"/>
      <point x="342" y="592" type="line"/>
      <point x="191" y="592" type="line" smooth="yes"/>
      <point x="111" y="592"/>
      <point x="34" y="520"/>
      <point x="21" y="447" type="qcurve" smooth="yes"/>
      <point x="-32" y="141" type="line" smooth="yes"/>
      <point x="-45" y="68"/>
      <point x="6" y="-4"/>
    </contour>
    <contour>
      <point x="4" y="144" type="qcurve" smooth="yes"/>
      <point x="56" y="444" type="line" smooth="yes"/>
      <point x="67" y="508"/>
      <point x="129" y="560"/>
      <point x="186" y="560" type="qcurve" smooth="yes"/>
      <point x="337" y="560" type="line"/>
      <point x="244" y="28" type="line"/>
      <point x="93" y="28" type="line" smooth="yes"/>
      <point x="29" y="28"/>
      <point x="-6" y="87"/>
    </contour>
    <contour>
      <point x="189" y="1135" type="qcurve"/>
      <point x="219" y="1129" type="line"/>
      <point x="230" y="1155"/>
      <point x="252" y="1180"/>
      <point x="270" y="1180" type="qcurve" smooth="yes"/>
      <point x="283" y="1180"/>
      <point x="303" y="1164"/>
      <point x="324" y="1145"/>
      <point x="349" y="1129"/>
      <point x="366" y="1129" type="qcurve" smooth="yes"/>
      <point x="392" y="1129"/>
      <point x="434" y="1162"/>
      <point x="450" y="1206" type="qcurve"/>
      <point x="420" y="1212" type="line"/>
      <point x="409" y="1186"/>
      <point x="387" y="1161"/>
      <point x="369" y="1161" type="qcurve" smooth="yes"/>
      <point x="356" y="1161"/>
      <point x="336" y="1177"/>
      <point x="315" y="1196"/>
      <point x="290" y="1212"/>
      <point x="273" y="1212" type="qcurve" smooth="yes"/>
      <point x="248" y="1212"/>
      <point x="206" y="1179"/>
    </contour>
  </outline>
  <guideline angle="260.1" color="1,0,0,1" x="239" y="0"/>
</glyph>
<glyph name="adieresis" format="2">
  <advance width="469"/>
  <unicode hex="00E4"/>
  <anchor x="345" y="1356" name="top"/>
  <anchor x="81" y="-150" name="bottom"/>
  <anchor x="272" y="0" name="ogonek"/>
  <outline>
    <contour>
      <point x="87" y="-4" type="qcurve" smooth="yes"/>
      <point x="192" y="-4" type="line" smooth="yes"/>
      <point x="208.601" y="-4"/>
      <point x="233.19" y="8.4172"/>
      <point x="243" y="22" type="qcurve"/>
      <point x="239" y="0" type="line"/>
      <point x="275" y="0" type="line"/>
      <point x="425" y="859" type="line" smooth="yes"/>
      <point x="437.828" y="932.196"/>
      <point x="385.742" y="1004"/>
      <point x="305" y="1004" type="qcurve" smooth="yes"/>
      <point x="275" y="1004" type="line" smooth="yes"/>
      <point x="194.258" y="1004"/>
      <point x="117.828" y="932.196"/>
      <point x="105" y="859" type="qcurve" smooth="yes"/>
      <point x="86" y="750" type="line"/>
      <point x="121" y="742" type="line"/>
      <point x="140" y="856" type="line" smooth="yes"/>
      <point x="151.319" y="920.141"/>
      <point x="213.405" y="972"/>
      <point x="270" y="972" type="qcurve" smooth="yes"/>
      <point x="300" y="972" type="line" smooth="yes"/>
      <point x="356.595" y="972"/>
      <point x="399.319" y="920.141"/>
      <point x="388" y="856" type="qcurve" smooth="yes"/>
      <point x="342" y="592" type="line"/>
      <point x="191" y="592" type="line" smooth="yes"/>
      <point x="110.75" y="592"/>
      <point x="33.75" y="519.75"/>
      <point x="21" y="447" type="qcurve" smooth="yes"/>
      <point x="-32" y="141" type="line" smooth="yes"/>
      <point x="-44.8282" y="67.8038"/>
      <point x="6.2578" y="-4"/>
    </contour>
    <contour>
      <point x="4" y="144" type="qcurve" smooth="yes"/>
      <point x="56" y="444" type="line" smooth="yes"/>
      <point x="67.319" y="508.141"/>
      <point x="129.405" y="560"/>
      <point x="186" y="560" type="qcurve" smooth="yes"/>
      <point x="337" y="560" type="line"/>
      <point x="244" y="28" type="line"/>
      <point x="93" y="28" type="line" smooth="yes"/>
      <point x="28.859" y="28"/>
      <point x="-5.8098" y="87.405"/>
    </contour>
    <contour>
      <point x="205" y="1136" type="qcurve" smooth="yes"/>
      <point x="223" y="1136" type="line" smooth="yes"/>
      <point x="241.865" y="1136"/>
      <point x="250.227" y="1143.13"/>
      <point x="254" y="1162" type="qcurve"/>
      <point x="257" y="1180" type="line" smooth="yes"/>
      <point x="260.018" y="1198.87"/>
      <point x="254.11" y="1206"/>
      <point x="236" y="1206" type="qcurve" smooth="yes"/>
      <point x="217" y="1206" type="line" smooth="yes"/>
      <point x="198.135" y="1206"/>
      <point x="190.018" y="1198.87"/>
      <point x="187" y="1180" type="qcurve" smooth="yes"/>
      <point x="184" y="1162" type="line"/>
      <point x="180.227" y="1143.13"/>
      <point x="186.135" y="1136"/>
    </contour>
    <contour>
      <point x="389" y="1136" type="qcurve" smooth="yes"/>
      <point x="407" y="1136" type="line" smooth="yes"/>
      <point x="425.865" y="1136"/>
      <point x="434.227" y="1143.13"/>
      <point x="438" y="1162" type="qcurve"/>
      <point x="441" y="1180" type="line" smooth="yes"/>
      <point x="444.018" y="1198.87"/>
      <point x="438.11" y="1206"/>
      <point x="420" y="1206" type="qcurve" smooth="yes"/>
      <point x="401" y="1206" type="line" smooth="yes"/>
      <point x="382.135" y="1206"/>
      <point x="374.018" y="1198.87"/>
      <point x="371" y="1180" type="qcurve" smooth="yes"/>
      <point x="368" y="1162" type="line"/>
      <point x="364.227" y="1143.13"/>
      <point x="370.135" y="1136"/>
    </contour>
  </outline>
  <guideline angle="260.1" color="1,0,0,1" x="239" y="-0"/>
</glyph>
<glyph name="ccedilla" format="2">
  <advance width="458"/>
  <unicode hex="00E7"/>
  <anchor x="315" y="1150" name="top"/>
  <anchor x="88" y="-150" name="bottom"/>
  <outline>
    <contour>
      <point x="-25" y="141" type="line" smooth="yes"/>
      <point x="-38" y="68"/>
      <point x="13" y="-4"/>
      <point x="94" y="-4" type="qcurve" smooth="yes"/>
      <point x="142" y="-4" type="line" smooth="yes"/>
      <point x="223" y="-4"/>
      <point x="300" y="68"/>
      <point x="313" y="141" type="qcurve" smooth="yes"/>
      <point x="339" y="290" type="line"/>
      <point x="304" y="300" type="line"/>
      <point x="277" y="144" type="line" smooth="yes"/>
      <point x="266" y="80"/>
      <point x="205" y="28"/>
      <point x="148" y="28" type="qcurve" smooth="yes"/>
      <point x="100" y="28" type="line" smooth="yes"/>
      <point x="43" y="28"/>
      <point x="0" y="80"/>
      <point x="11" y="144" type="qcurve" smooth="yes"/>
      <point x="136" y="859" type="line" smooth="yes"/>
      <point x="147" y="923"/>
      <point x="208" y="972"/>
      <point x="265" y="972" type="qcurve" smooth="yes"/>
      <point x="309" y="972" type="line" smooth="yes"/>
      <point x="366" y="972"/>
      <point x="408" y="920"/>
      <point x="397" y="856" type="qcurve" smooth="yes"/>
      <point x="374" y="722" type="line"/>
      <point x="411" y="730" type="line"/>
      <point x="434" y="859" type="line" smooth="yes"/>
      <point x="447" y="932"/>
      <point x="395" y="1004"/>
      <point x="314" y="1004" type="qcurve" smooth="yes"/>
      <point x="270" y="1004" type="line" smooth="yes"/>
      <point x="189" y="1004"/>
      <point x="113" y="932"/>
      <point x="100" y="859" type="qcurve" smooth="yes"/>
    </contour>
    <contour>
      <point x="35" y="-384" type="qcurve" smooth="yes"/>
      <point x="66" y="-384"/>
      <point x="119" y="-363"/>
      <point x="160" y="-326"/>
      <point x="187" y="-273"/>
      <point x="193" y="-241" type="qcurve" smooth="yes"/>
      <point x="199" y="-208"/>
      <point x="189" y="-158"/>
      <point x="161" y="-123"/>
      <point x="115" y="-105"/>
      <point x="84" y="-105" type="qcurve"/>
      <point x="130" y="0" type="line"/>
      <point x="97" y="0" type="line"/>
      <point x="30" y="-138" type="line"/>
      <point x="45" y="-136"/>
      <point x="68" y="-135"/>
      <point x="79" y="-135" type="qcurve" smooth="yes"/>
      <point x="139" y="-135"/>
      <point x="166" y="-193"/>
      <point x="157" y="-244" type="qcurve" smooth="yes"/>
      <point x="148" y="-297"/>
      <point x="79" y="-354"/>
      <point x="41" y="-354" type="qcurve" smooth="yes"/>
      <point x="-7" y="-354"/>
      <point x="-54" y="-338"/>
      <point x="-73" y="-324" type="qcurve"/>
      <point x="-96" y="-346" type="line"/>
      <point x="-70" y="-366"/>
      <point x="-13" y="-384"/>
    </contour>
  </outline>
</glyph>
<glyph name="edieresis" format="2">
  <advance width="475"/>
  <unicode hex="00EB"/>
  <anchor x="356" y="1356" name="top"/>
  <anchor x="117" y="-150" name="bottom"/>
  <anchor x="117" y="0" name="ogonek"/>
  <outline>
    <contour>
      <point x="-25" y="141" type="line" smooth="yes"/>
      <point x="-38" y="68"/>
      <point x="13" y="-4"/>
      <point x="94" y="-4" type="qcurve" smooth="yes"/>
      <point x="140" y="-4" type="line" smooth="yes"/>
      <point x="221" y="-4"/>
      <point x="298" y="68"/>
      <point x="311" y="141" type="qcurve" smooth="yes"/>
      <point x="329" y="246" type="line"/>
      <point x="294" y="254" type="line"/>
      <point x="275" y="144" type="line" smooth="yes"/>
      <point x="264" y="80"/>
      <point x="203" y="28"/>
      <point x="146" y="28" type="qcurve" smooth="yes"/>
      <point x="100" y="28" type="line" smooth="yes"/>
      <point x="43" y="28"/>
      <point x="0" y="80"/>
      <point x="11" y="144" type="qcurve" smooth="yes"/>
      <point x="71" y="488" type="line"/>
      <point x="371" y="488" type="line"/>
      <point x="436" y="859" type="line" smooth="yes"/>
      <point x="449" y="932"/>
      <point x="397" y="1004"/>
      <point x="316" y="1004" type="qcurve" smooth="yes"/>
      <point x="270" y="1004" type="line" smooth="yes"/>
      <point x="189" y="1004"/>
      <point x="113" y="932"/>
      <point x="100" y="859" type="qcurve" smooth="yes"/>
    </contour>
    <contour>
      <point x="77" y="520" type="line"/>
      <point x="135" y="856" type="line" smooth="yes"/>
      <point x="146" y="920"/>
      <point x="208" y="972"/>
      <point x="265" y="972" type="qcurve" smooth="yes"/>
      <point x="311" y="972" type="line" smooth="yes"/>
      <point x="368" y="972"/>
      <point x="410" y="920"/>
      <point x="399" y="856" type="qcurve" smooth="yes"/>
      <point x="341" y="520" type="line"/>
    </contour>
    <contour>
      <point x="218" y="1136" type="qcurve" smooth="yes"/>
      <point x="236" y="1136" type="line" smooth="yes"/>
      <point x="255" y="1136"/>
      <point x="263" y="1143"/>
      <point x="267" y="1162" type="qcurve"/>
      <point x="270" y="1180" type="line" smooth="yes"/>
      <point x="273" y="1199"/>
      <point x="267" y="1206"/>
      <point x="249" y="1206" type="qcurve" smooth="yes"/>
      <point x="230" y="1206" type="line" smooth="yes"/>
      <point x="211" y="1206"/>
      <point x="203" y="1199"/>
      <point x="200" y="1180" type="qcurve" smooth="yes"/>
      <point x="197" y="1162" type="line"/>
      <point x="193" y="1143"/>
      <point x="199" y="1136"/>
    </contour>
    <contour>
      <point x="402" y="1136" type="qcurve" smooth="yes"/>
      <point x="420" y="1136" type="line" smooth="yes"/>
      <point x="439" y="1136"/>
      <point x="447" y="1143"/>
      <point x="451" y="1162" type="qcurve"/>
      <point x="454" y="1180" type="line" smooth="yes"/>
      <point x="457" y="1199"/>
      <point x="451" y="1206"/>
      <point x="433" y="1206" type="qcurve" smooth="yes"/>
      <point x="414" y="1206" type="line" smooth="yes"/>
      <point x="395" y="1206"/>
      <point x="387" y="1199"/>
      <point x="384" y="1180" type="qcurve" smooth="yes"/>
      <point x="381" y="1162" type="line"/>
      <point x="377" y="1143"/>
      <point x="383" y="1136"/>
    </contour>
  </outline>
  <guideline angle="0" color="1,0,0,1" x="0" y="-1004"/>
</glyph>
<glyph name="idieresis" format="2">
  <advance width="208"/>
  <unicode hex="00EF"/>
  <anchor x="-40" y="-150" name="bottom"/>
  <anchor x="224" y="1356" name="top"/>
  <anchor x="3" y="0" name="ogonek"/>
  <outline>
    <contour>
      <point x="-33" y="0" type="line"/>
      <point x="3" y="0" type="line"/>
      <point x="178" y="1000" type="line"/>
      <point x="142" y="1000" type="line"/>
    </contour>
    <contour>
      <point x="84" y="1136" type="qcurve" smooth="yes"/>
      <point x="102" y="1136" type="line" smooth="yes"/>
      <point x="121" y="1136"/>
      <point x="129" y="1143"/>
      <point x="133" y="1162" type="qcurve"/>
      <point x="136" y="1180" type="line" smooth="yes"/>
      <point x="139" y="1199"/>
      <point x="133" y="1206"/>
      <point x="115" y="1206" type="qcurve" smooth="yes"/>
      <point x="96" y="1206" type="line" smooth="yes"/>
      <point x="77" y="1206"/>
      <point x="69" y="1199"/>
      <point x="66" y="1180" type="qcurve" smooth="yes"/>
      <point x="63" y="1162" type="line"/>
      <point x="59" y="1143"/>
      <point x="65" y="1136"/>
    </contour>
    <contour>
      <point x="268" y="1136" type="qcurve" smooth="yes"/>
      <point x="286" y="1136" type="line" smooth="yes"/>
      <point x="305" y="1136"/>
      <point x="313" y="1143"/>
      <point x="317" y="1162" type="qcurve"/>
      <point x="320" y="1180" type="line" smooth="yes"/>
      <point x="323" y="1199"/>
      <point x="317" y="1206"/>
      <point x="299" y="1206" type="qcurve" smooth="yes"/>
      <point x="280" y="1206" type="line" smooth="yes"/>
      <point x="261" y="1206"/>
      <point x="253" y="1199"/>
      <point x="250" y="1180" type="qcurve" smooth="yes"/>
      <point x="247" y="1162" type="line"/>
      <point x="243" y="1143"/>
      <point x="249" y="1136"/>
    </contour>
  </outline>
</glyph>
<glyph name="eth" format="2">
  <advance width="535"/>
  <unicode hex="00F0"/>
  <outline>
    <contour>
      <point x="94" y="-4" type="qcurve" smooth="yes"/>
      <point x="150" y="-4" type="line" smooth="yes"/>
      <point x="231" y="-4"/>
      <point x="308" y="68"/>
      <point x="321" y="141" type="qcurve" smooth="yes"/>
      <point x="446" y="862" type="line" smooth="yes"/>
      <point x="466" y="978"/>
      <point x="473" y="1175"/>
      <point x="459" y="1253" type="qcurve"/>
      <point x="574" y="1291" type="line"/>
      <point x="569" y="1319" type="line"/>
      <point x="453" y="1281" type="line"/>
      <point x="439" y="1341"/>
      <point x="391" y="1430"/>
      <point x="356" y="1458" type="qcurve"/>
      <point x="325" y="1447" type="line"/>
      <point x="360" y="1418"/>
      <point x="406" y="1329"/>
      <point x="419" y="1269" type="qcurve"/>
      <point x="267" y="1219" type="line"/>
      <point x="272" y="1191" type="line"/>
      <point x="424" y="1241" type="line"/>
      <point x="432" y="1190"/>
      <point x="434" y="1071"/>
      <point x="429" y="1004" type="qcurve"/>
      <point x="270" y="1004" type="line" smooth="yes"/>
      <point x="197" y="1004"/>
      <point x="114" y="940"/>
      <point x="100" y="859" type="qcurve" smooth="yes"/>
      <point x="-25" y="141" type="line" smooth="yes"/>
      <point x="-39" y="60"/>
      <point x="21" y="-4"/>
    </contour>
    <contour>
      <point x="426" y="972" type="line"/>
      <point x="423" y="946"/>
      <point x="416" y="891"/>
      <point x="411" y="862" type="qcurve" smooth="yes"/>
      <point x="285" y="144" type="line" smooth="yes"/>
      <point x="275" y="87"/>
      <point x="220" y="28"/>
      <point x="156" y="28" type="qcurve" smooth="yes"/>
      <point x="100" y="28" type="line" smooth="yes"/>
      <point x="36" y="28"/>
      <point x="1" y="87"/>
      <point x="11" y="144" type="qcurve" smooth="yes"/>
      <point x="135" y="856" type="line" smooth="yes"/>
      <point x="145" y="913"/>
      <point x="201" y="972"/>
      <point x="265" y="972" type="qcurve" smooth="yes"/>
    </contour>
  </outline>
</glyph>
<glyph name="ntilde" format="2">
  <advance width="500"/>
  <unicode hex="00F1"/>
  <anchor x="379" y="1347" name="top"/>
  <anchor x="117" y="-150" name="bottom"/>
  <outline>
    <contour>
      <point x="-33" y="0" type="line"/>
      <point x="3" y="0" type="line"/>
      <point x="173" y="972" type="line"/>
      <point x="328" y="972" type="line" smooth="yes"/>
      <point x="385" y="972"/>
      <point x="427" y="921"/>
      <point x="416" y="856" type="qcurve" smooth="yes"/>
      <point x="267" y="0" type="line"/>
      <point x="303" y="0" type="line"/>
      <point x="453" y="859" type="line" smooth="yes"/>
      <point x="466" y="932"/>
      <point x="413" y="1004"/>
      <point x="333" y="1004" type="qcurve" smooth="yes"/>
      <point x="254" y="1004" type="line" smooth="yes"/>
      <point x="227" y="1004"/>
      <point x="186" y="990"/>
      <point x="173" y="976" type="qcurve"/>
      <point x="178" y="1000" type="line"/>
      <point x="142" y="1000" type="line"/>
    </contour>
    <contour>
      <point x="217" y="1135" type="qcurve"/>
      <point x="247" y="1129" type="line"/>
      <point x="258" y="1155"/>
      <point x="280" y="1180"/>
      <point x="298" y="1180" type="qcurve" smooth="yes"/>
      <point x="311" y="1180"/>
      <point x="331" y="1164"/>
      <point x="352" y="1145"/>
      <point x="377" y="1129"/>
      <point x="394" y="1129" type="qcurve" smooth="yes"/>
      <point x="420" y="1129"/>
      <point x="462" y="1162"/>
      <point x="478" y="1206" type="qcurve"/>
      <point x="448" y="1212" type="line"/>
      <point x="437" y="1186"/>
      <point x="415" y="1161"/>
      <point x="397" y="1161" type="qcurve" smooth="yes"/>
      <point x="384" y="1161"/>
      <point x="364" y="1177"/>
      <point x="343" y="1196"/>
      <point x="318" y="1212"/>
      <point x="301" y="1212" type="qcurve" smooth="yes"/>
      <point x="276" y="1212"/>
      <point x="234" y="1179"/>
    </contour>
  </outline>
</glyph>
<glyph name="ugrave" format="2">
  <advance width="503"/>
  <unicode hex="00F9"/>
  <anchor x="332" y="1150" name="top"/>
  <anchor x="105" y="-150" name="bottom"/>
  <anchor x="149" y="0" name="ogonek"/>
  <anchor x="482" y="1000" name="horn"/>
  <outline>
    <contour>
      <point x="-15" y="145" type="line" smooth="yes"/>
      <point x="-27.8282" y="71.8038"/>
      <point x="24.2578" y="0"/>
      <point x="105" y="0" type="qcurve" smooth="yes"/>
      <point x="167" y="0" type="line" smooth="yes"/>
      <point x="240.196" y="0"/>
      <point x="323.417" y="64.2578"/>
      <point x="337" y="145" type="qcurve" smooth="yes"/>
      <point x="487" y="1000" type="line"/>
      <point x="451" y="1000" type="line"/>
      <point x="302" y="148" type="line" smooth="yes"/>
      <point x="290.681" y="83.1044"/>
      <point x="230.35" y="32"/>
      <point x="173" y="32" type="qcurve" smooth="yes"/>
      <point x="111" y="32" type="line" smooth="yes"/>
      <point x="53.6504" y="32"/>
      <point x="10.681" y="83.1044"/>
      <point x="22" y="148" type="qcurve" smooth="yes"/>
      <point x="171" y="1000" type="line"/>
      <point x="135" y="1000" type="line"/>
    </contour>
    <contour>
      <point x="397" y="1085" type="line"/>
      <point x="245" y="1400" type="line"/>
      <point x="205" y="1400" type="line"/>
      <point x="365" y="1085" type="line"/>
    </contour>
  </outline>
</glyph>
<glyph name="uacute" format="2">
  <advance width="503"/>
  <unicode hex="00FA"/>
  <anchor x="332" y="1150" name="top"/>
  <anchor x="105" y="-150" name="bottom"/>
  <anchor x="149" y="0" name="ogonek"/>
  <anchor x="482" y="1000" name="horn"/>
  <outline>
    <contour>
      <point x="-15" y="145" type="line" smooth="yes"/>
      <point x="-27.8282" y="71.8038"/>
      <point x="24.2578" y="0"/>
      <point x="105" y="0" type="qcurve" smooth="yes"/>
      <point x="167" y="0" type="line" smooth="yes"/>
      <point x="240.196" y="0"/>
      <point x="323.417" y="64.2578"/>
      <point x="337" y="145" type="qcurve" smooth="yes"/>
      <point x="487" y="1000" type="line"/>
      <point x="451" y="1000" type="line"/>
      <point x="302" y="148" type="line" smooth="yes"/>
      <point x="290.681" y="83.1044"/>
      <point x="230.35" y="32"/>
      <point x="173" y="32" type="qcurve" smooth="yes"/>
      <point x="111" y="32" type="line" smooth="yes"/>
      <point x="53.6504" y="32"/>
      <point x="10.681" y="83.1044"/>
      <point x="22" y="148" type="qcurve" smooth="yes"/>
      <point x="171" y="1000" type="line"/>
      <point x="135" y="1000" type="line"/>
    </contour>
    <contour>
      <point x="238" y="1085" type="line"/>
      <point x="277" y="1085" type="line"/>
      <point x="548" y="1400" type="line"/>
      <point x="503" y="1400" type="line"/>
    </contour>
  </outline>
</glyph>
<glyph name="ucircumflex" format="2">
  <advance width="506"/>
  <unicode hex="00FB"/>
  <anchor x="395" y="1490" name="top"/>
  <anchor x="108" y="-150" name="bottom"/>
  <anchor x="134" y="0" name="ogonek"/>
  <anchor x="485" y="1000" name="horn"/>
  <anchor x="481" y="1243" name="topright"/>
  <outline>
    <contour>
      <point x="-17" y="145" type="line" smooth="yes"/>
      <point x="-29.8282" y="71.8038"/>
      <point x="22.2578" y="0"/>
      <point x="103" y="0" type="qcurve" smooth="yes"/>
      <point x="165" y="0" type="line" smooth="yes"/>
      <point x="238.196" y="0"/>
      <point x="321.417" y="64.2578"/>
      <point x="335" y="145" type="qcurve" smooth="yes"/>
      <point x="485" y="1000" type="line"/>
      <point x="449" y="1000" type="line"/>
      <point x="300" y="148" type="line" smooth="yes"/>
      <point x="288.681" y="83.1044"/>
      <point x="228.35" y="32"/>
      <point x="171" y="32" type="qcurve" smooth="yes"/>
      <point x="109" y="32" type="line" smooth="yes"/>
      <point x="51.6504" y="32"/>
      <point x="8.681" y="83.1044"/>
      <point x="20" y="148" type="qcurve" smooth="yes"/>
      <point x="169" y="1000" type="line"/>
      <point x="133" y="1000" type="line"/>
    </contour>
    <contour>
      <point x="197" y="1095" type="line"/>
      <point x="231" y="1095" type="line"/>
      <point x="372" y="1350" type="line"/>
      <point x="424" y="1095" type="line"/>
      <point x="455" y="1095" type="line"/>
      <point x="393" y="1390" type="line"/>
      <point x="364" y="1390" type="line"/>
    </contour>
  </outline>
</glyph>
<glyph name="udieresis" format="2">
  <advance width="506"/>
  <unicode hex="00FC"/>
  <anchor x="372" y="1356" name="top"/>
  <anchor x="108" y="-150" name="bottom"/>
  <anchor x="134" y="0" name="ogonek"/>
  <anchor x="485" y="1000" name="horn"/>
  <outline>
    <contour>
      <point x="-17" y="145" type="line" smooth="yes"/>
      <point x="-29.8282" y="71.8038"/>
      <point x="22.2578" y="0"/>
      <point x="103" y="0" type="qcurve" smooth="yes"/>
      <point x="165" y="0" type="line" smooth="yes"/>
      <point x="238.196" y="0"/>
      <point x="321.417" y="64.2578"/>
      <point x="335" y="145" type="qcurve" smooth="yes"/>
      <point x="485" y="1000" type="line"/>
      <point x="449" y="1000" type="line"/>
      <point x="300" y="148" type="line" smooth="yes"/>
      <point x="288.681" y="83.1044"/>
      <point x="228.35" y="32"/>
      <point x="171" y="32" type="qcurve" smooth="yes"/>
      <point x="109" y="32" type="line" smooth="yes"/>
      <point x="51.6504" y="32"/>
      <point x="8.681" y="83.1044"/>
      <point x="20" y="148" type="qcurve" smooth="yes"/>
      <point x="169" y="1000" type="line"/>
      <point x="133" y="1000" type="line"/>
    </contour>
    <contour>
      <point x="234" y="1136" type="qcurve" smooth="yes"/>
      <point x="252" y="1136" type="line" smooth="yes"/>
      <point x="270.865" y="1136"/>
      <point x="279.227" y="1143.13"/>
      <point x="283" y="1162" type="qcurve"/>
      <point x="286" y="1180" type="line" smooth="yes"/>
      <point x="289.018" y="1198.87"/>
      <point x="283.11" y="1206"/>
      <point x="265" y="1206" type="qcurve" smooth="yes"/>
      <point x="246" y="1206" type="line" smooth="yes"/>
      <point x="227.135" y="1206"/>
      <point x="219.018" y="1198.87"/>
      <point x="216" y="1180" type="qcurve" smooth="yes"/>
      <point x="213" y="1162" type="line"/>
      <point x="209.227" y="1143.13"/>
      <point x="215.135" y="1136"/>
    </contour>
    <contour>
      <point x="418" y="1136" type="qcurve" smooth="yes"/>
      <point x="436" y="1136" type="line" smooth="yes"/>
      <point x="454.865" y="1136"/>
      <point x="463.227" y="1143.13"/>
      <point x="467" y="1162" type="qcurve"/>
      <point x="470" y="1180" type="line" smooth="yes"/>
      <point x="473.018" y="1198.87"/>
      <point x="467.11" y="1206"/>
      <point x="449" y="1206" type="qcurve" smooth="yes"/>
      <point x="430" y="1206" type="line" smooth="yes"/>
      <point x="411.135" y="1206"/>
      <point x="403.018" y="1198.87"/>
      <point x="400" y="1180" type="qcurve" smooth="yes"/>
      <point x="397" y="1162" type="line"/>
      <point x="393.227" y="1143.13"/>
      <point x="399.135" y="1136"/>
    </contour>
  </outline>
</glyph>
<glyph name="thorn" format="2">
  <advance width="497"/>
  <unicode hex="00FE"/>
  <outline>
    <contour>
      <point x="-107" y="-428" type="line"/>
      <point x="-71" y="-428" type="line"/>
      <point x="6" y="12" type="line"/>
      <point x="12.0368" y="4.454"/>
      <point x="39.3436" y="-4"/>
      <point x="65" y="-4" type="qcurve" smooth="yes"/>
      <point x="162" y="-4" type="line" smooth="yes"/>
      <point x="242.742" y="-4"/>
      <point x="320.172" y="67.8038"/>
      <point x="333" y="141" type="qcurve" smooth="yes"/>
      <point x="458" y="859" type="line" smooth="yes"/>
      <point x="470.828" y="932.196"/>
      <point x="418.742" y="1004"/>
      <point x="338" y="1004" type="qcurve" smooth="yes"/>
      <point x="239" y="1004" type="line" smooth="yes"/>
      <point x="213.344" y="1004"/>
      <point x="183.546" y="995.546"/>
      <point x="176" y="988" type="qcurve"/>
      <point x="257" y="1448" type="line"/>
      <point x="221" y="1448" type="line"/>
    </contour>
    <contour>
      <point x="9" y="28" type="line"/>
      <point x="174" y="972" type="line"/>
      <point x="333" y="972" type="line" smooth="yes"/>
      <point x="389.595" y="972"/>
      <point x="432.319" y="920.141"/>
      <point x="421" y="856" type="qcurve" smooth="yes"/>
      <point x="297" y="144" type="line" smooth="yes"/>
      <point x="285.681" y="79.859"/>
      <point x="224.595" y="28"/>
      <point x="168" y="28" type="qcurve" smooth="yes"/>
    </contour>
  </outline>
</glyph>
<glyph name="ydieresis" format="2">
  <advance width="414"/>
  <unicode hex="00FF"/>
  <anchor x="350" y="1356" name="top"/>
  <anchor x="132" y="-250" name="bottom"/>
  <outline>
    <contour>
      <point x="-184" y="-428" type="line"/>
      <point x="-155" y="-428" type="line" smooth="yes"/>
      <point x="-122.375" y="-428"/>
      <point x="-73.75" y="-415.156"/>
      <point x="-36.25" y="-384.594"/>
      <point x="-7.125" y="-333.875"/>
      <point x="6" y="-296" type="qcurve" smooth="yes"/>
      <point x="466" y="1000" type="line"/>
      <point x="433" y="1000" type="line"/>
      <point x="113" y="99" type="line"/>
      <point x="109" y="1000" type="line"/>
      <point x="73" y="1000" type="line"/>
      <point x="78" y="0" type="line"/>
      <point x="-25" y="-291" type="line" smooth="yes"/>
      <point x="-46.8834" y="-352.123"/>
      <point x="-98.4418" y="-396"/>
      <point x="-149" y="-396" type="qcurve" smooth="yes"/>
      <point x="-185" y="-396" type="line"/>
    </contour>
    <contour>
      <point x="189" y="1162" type="line"/>
      <point x="185.227" y="1143.13"/>
      <point x="191.135" y="1136"/>
      <point x="210" y="1136" type="qcurve" smooth="yes"/>
      <point x="228" y="1136" type="line" smooth="yes"/>
      <point x="246.865" y="1136"/>
      <point x="255.227" y="1143.13"/>
      <point x="259" y="1162" type="qcurve"/>
      <point x="262" y="1180" type="line" smooth="yes"/>
      <point x="265.018" y="1198.87"/>
      <point x="259.11" y="1206"/>
      <point x="241" y="1206" type="qcurve" smooth="yes"/>
      <point x="222" y="1206" type="line" smooth="yes"/>
      <point x="203.135" y="1206"/>
      <point x="195.018" y="1198.87"/>
      <point x="192" y="1180" type="qcurve" smooth="yes"/>
    </contour>
    <contour>
      <point x="373" y="1162" type="line"/>
      <point x="369.227" y="1143.13"/>
      <point x="375.135" y="1136"/>
      <point x="394" y="1136" type="qcurve" smooth="yes"/>
      <point x="412" y="1136" type="line" smooth="yes"/>
      <point x="430.865" y="1136"/>
      <point x="439.227" y="1143.13"/>
      <point x="443" y="1162" type="qcurve"/>
      <point x="446" y="1180" type="line" smooth="yes"/>
      <point x="449.018" y="1198.87"/>
      <point x="443.11" y="1206"/>
      <point x="425" y="1206" type="qcurve" smooth="yes"/>
      <point x="406" y="1206" type="line" smooth="yes"/>
      <point x="387.135" y="1206"/>
      <point x="379.018" y="1198.87"/>
      <point x="376" y="1180" type="qcurve" smooth="yes"/>
    </contour>
  </outline>
</glyph>
<glyph name="Aogonek" format="2">
  <advance width="520"/>
  <unicode hex="0104"/>
  <anchor x="412" y="1550" name="top"/>
  <anchor x="115" y="-150" name="bottom"/>
  <anchor x="361" y="0" name="ogonek_in"/>
  <outline>
    <contour>
      <point x="-120" y="0" type="line"/>
      <point x="-83" y="0" type="line"/>
      <point x="29" y="328" type="line"/>
      <point x="363" y="328" type="line"/>
      <point x="361" y="0" type="line"/>
      <point x="400" y="0" type="line"/>
      <point x="405" y="1400" type="line"/>
      <point x="361" y="1400" type="line"/>
    </contour>
    <contour>
      <point x="42" y="364" type="line"/>
      <point x="368" y="1319" type="line"/>
      <point x="363" y="364" type="line"/>
    </contour>
    <contour>
      <point x="257" y="-359" type="qcurve" smooth="yes"/>
      <point x="274" y="-359"/>
      <point x="312" y="-349"/>
      <point x="334" y="-338" type="qcurve"/>
      <point x="341" y="-308" type="line"/>
      <point x="321" y="-319"/>
      <point x="284" y="-329"/>
      <point x="267" y="-329" type="qcurve" smooth="yes"/>
      <point x="237" y="-329"/>
      <point x="205" y="-296"/>
      <point x="205" y="-267" type="qcurve" smooth="yes"/>
      <point x="205" y="-220"/>
      <point x="294" y="-90"/>
      <point x="400" y="0" type="qcurve"/>
      <point x="360" y="0" type="line"/>
      <point x="266" y="-82"/>
      <point x="168" y="-221"/>
      <point x="168" y="-273" type="qcurve" smooth="yes"/>
      <point x="168" y="-312"/>
      <point x="215" y="-359"/>
    </contour>
  </outline>
</glyph>
<glyph name="aogonek" format="2">
  <advance width="469"/>
  <unicode hex="0105"/>
  <anchor x="308" y="1150" name="top"/>
  <anchor x="81" y="-150" name="bottom"/>
  <anchor x="272" y="0" name="ogonek"/>
  <outline>
    <contour>
      <point x="87" y="-4" type="qcurve" smooth="yes"/>
      <point x="192" y="-4" type="line" smooth="yes"/>
      <point x="208.601" y="-4"/>
      <point x="233.19" y="8.4172"/>
      <point x="243" y="22" type="qcurve"/>
      <point x="239" y="0" type="line"/>
      <point x="275" y="0" type="line"/>
      <point x="425" y="859" type="line" smooth="yes"/>
      <point x="437.828" y="932.196"/>
      <point x="385.742" y="1004"/>
      <point x="305" y="1004" type="qcurve" smooth="yes"/>
      <point x="275" y="1004" type="line" smooth="yes"/>
      <point x="194.258" y="1004"/>
      <point x="117.828" y="932.196"/>
      <point x="105" y="859" type="qcurve" smooth="yes"/>
      <point x="86" y="750" type="line"/>
      <point x="121" y="742" type="line"/>
      <point x="140" y="856" type="line" smooth="yes"/>
      <point x="151.319" y="920.141"/>
      <point x="213.405" y="972"/>
      <point x="270" y="972" type="qcurve" smooth="yes"/>
      <point x="300" y="972" type="line" smooth="yes"/>
      <point x="356.595" y="972"/>
      <point x="399.319" y="920.141"/>
      <point x="388" y="856" type="qcurve" smooth="yes"/>
      <point x="342" y="592" type="line"/>
      <point x="191" y="592" type="line" smooth="yes"/>
      <point x="110.75" y="592"/>
      <point x="33.75" y="519.75"/>
      <point x="21" y="447" type="qcurve" smooth="yes"/>
      <point x="-32" y="141" type="line" smooth="yes"/>
      <point x="-44.8282" y="67.8038"/>
      <point x="6.2578" y="-4"/>
    </contour>
    <contour>
      <point x="4" y="144" type="qcurve" smooth="yes"/>
      <point x="56" y="444" type="line" smooth="yes"/>
      <point x="67.319" y="508.141"/>
      <point x="129.405" y="560"/>
      <point x="186" y="560" type="qcurve" smooth="yes"/>
      <point x="337" y="560" type="line"/>
      <point x="244" y="28" type="line"/>
      <point x="93" y="28" type="line" smooth="yes"/>
      <point x="28.859" y="28"/>
      <point x="-5.8098" y="87.405"/>
    </contour>
    <contour>
      <point x="272" y="0" type="qcurve"/>
      <point x="236" y="0" type="line"/>
      <point x="155.258" y="-80.7422"/>
      <point x="72.1214" y="-202.145"/>
      <point x="63.27" y="-251.79" type="qcurve" smooth="yes"/>
      <point x="54.7656" y="-299.488"/>
      <point x="95.696" y="-359"/>
      <point x="140.886" y="-359" type="qcurve" smooth="yes"/>
      <point x="157.573" y="-359"/>
      <point x="192.38" y="-349.319"/>
      <point x="212" y="-338" type="qcurve"/>
      <point x="218" y="-308" type="line"/>
      <point x="199.89" y="-318.564"/>
      <point x="165.683" y="-329"/>
      <point x="149.333" y="-329" type="qcurve" smooth="yes"/>
      <point x="116.634" y="-329"/>
      <point x="90.315" y="-288.102"/>
      <point x="97.4335" y="-248.442" type="qcurve" smooth="yes"/>
      <point x="106.162" y="-199.814"/>
      <point x="184.466" y="-86.779"/>
    </contour>
  </outline>
  <guideline angle="260.1" color="1,0,0,1" x="239" y="-0"/>
</glyph>
<glyph name="cacute" format="2">
  <advance width="461"/>
  <unicode hex="0107"/>
  <anchor x="318" y="1150" name="top"/>
  <anchor x="118" y="-150" name="bottom"/>
  <anchor x="118" y="0" name="ogrev"/>
  <outline>
    <contour>
      <point x="-25" y="141" type="line" smooth="yes"/>
      <point x="-38" y="68"/>
      <point x="13" y="-4"/>
      <point x="94" y="-4" type="qcurve" smooth="yes"/>
      <point x="142" y="-4" type="line" smooth="yes"/>
      <point x="223" y="-4"/>
      <point x="300" y="68"/>
      <point x="313" y="141" type="qcurve" smooth="yes"/>
      <point x="339" y="290" type="line"/>
      <point x="304" y="300" type="line"/>
      <point x="277" y="144" type="line" smooth="yes"/>
      <point x="266" y="80"/>
      <point x="205" y="28"/>
      <point x="148" y="28" type="qcurve" smooth="yes"/>
      <point x="100" y="28" type="line" smooth="yes"/>
      <point x="43" y="28"/>
      <point x="0" y="80"/>
      <point x="11" y="144" type="qcurve" smooth="yes"/>
      <point x="136" y="859" type="line" smooth="yes"/>
      <point x="147" y="923"/>
      <point x="208" y="972"/>
      <point x="265" y="972" type="qcurve" smooth="yes"/>
      <point x="309" y="972" type="line" smooth="yes"/>
      <point x="366" y="972"/>
      <point x="408" y="920"/>
      <point x="397" y="856" type="qcurve" smooth="yes"/>
      <point x="374" y="722" type="line"/>
      <point x="411" y="730" type="line"/>
      <point x="434" y="859" type="line" smooth="yes"/>
      <point x="447" y="932"/>
      <point x="395" y="1004"/>
      <point x="314" y="1004" type="qcurve" smooth="yes"/>
      <point x="270" y="1004" type="line" smooth="yes"/>
      <point x="189" y="1004"/>
      <point x="113" y="932"/>
      <point x="100" y="859" type="qcurve" smooth="yes"/>
    </contour>
    <contour>
      <point x="224" y="1085" type="line"/>
      <point x="263" y="1085" type="line"/>
      <point x="534" y="1400" type="line"/>
      <point x="489" y="1400" type="line"/>
    </contour>
  </outline>
</glyph>
<glyph name="ccircumflex" format="2">
  <advance width="457"/>
  <unicode hex="0109"/>
  <anchor x="375" y="1490" name="top"/>
  <anchor x="88" y="-150" name="bottom"/>
  <anchor x="461" y="1243" name="topright"/>
  <outline>
    <contour>
      <point x="-25" y="141" type="line" smooth="yes"/>
      <point x="-37.8282" y="67.8038"/>
      <point x="13.2578" y="-4"/>
      <point x="94" y="-4" type="qcurve" smooth="yes"/>
      <point x="142" y="-4" type="line" smooth="yes"/>
      <point x="222.742" y="-4"/>
      <point x="300.172" y="67.8038"/>
      <point x="313" y="141" type="qcurve" smooth="yes"/>
      <point x="339" y="290" type="line"/>
      <point x="304" y="300" type="line"/>
      <point x="277" y="144" type="line" smooth="yes"/>
      <point x="265.681" y="79.859"/>
      <point x="204.595" y="28"/>
      <point x="148" y="28" type="qcurve" smooth="yes"/>
      <point x="100" y="28" type="line" smooth="yes"/>
      <point x="43.405" y="28"/>
      <point x="-0.319" y="79.859"/>
      <point x="11" y="144" type="qcurve" smooth="yes"/>
      <point x="136" y="859" type="line" smooth="yes"/>
      <point x="147.319" y="923.141"/>
      <point x="208.405" y="972"/>
      <point x="265" y="972" type="qcurve" smooth="yes"/>
      <point x="309" y="972" type="line" smooth="yes"/>
      <point x="365.595" y="972"/>
      <point x="408.319" y="920.141"/>
      <point x="397" y="856" type="qcurve" smooth="yes"/>
      <point x="374" y="722" type="line"/>
      <point x="411" y="730" type="line"/>
      <point x="434" y="859" type="line" smooth="yes"/>
      <point x="446.828" y="932.196"/>
      <point x="394.742" y="1004"/>
      <point x="314" y="1004" type="qcurve" smooth="yes"/>
      <point x="270" y="1004" type="line" smooth="yes"/>
      <point x="189.258" y="1004"/>
      <point x="112.828" y="932.196"/>
      <point x="100" y="859" type="qcurve" smooth="yes"/>
    </contour>
    <contour>
      <point x="177" y="1095" type="line"/>
      <point x="211" y="1095" type="line"/>
      <point x="352" y="1350" type="line"/>
      <point x="404" y="1095" type="line"/>
      <point x="435" y="1095" type="line"/>
      <point x="373" y="1390" type="line"/>
      <point x="344" y="1390" type="line"/>
    </contour>
  </outline>
</glyph>
<glyph name="Cdotaccent" format="2">
  <advance width="570"/>
  <unicode hex="010A"/>
  <anchor x="460" y="1755" name="top"/>
  <anchor x="179" y="-154" name="bottom"/>
  <outline>
    <contour>
      <point x="174" y="1204" type="qcurve" smooth="yes"/>
      <point x="-2" y="192" type="line" smooth="yes"/>
      <point x="-21" y="85"/>
      <point x="56" y="-8"/>
      <point x="163" y="-8" type="qcurve" smooth="yes"/>
      <point x="195" y="-8" type="line" smooth="yes"/>
      <point x="302" y="-8"/>
      <point x="411" y="85"/>
      <point x="430" y="192" type="qcurve" smooth="yes"/>
      <point x="485" y="512" type="line"/>
      <point x="447" y="520" type="line"/>
      <point x="389" y="190" type="line" smooth="yes"/>
      <point x="373" y="100"/>
      <point x="290" y="28"/>
      <point x="199" y="28" type="qcurve" smooth="yes"/>
      <point x="171" y="28" type="line" smooth="yes"/>
      <point x="80" y="28"/>
      <point x="21" y="100"/>
      <point x="37" y="190" type="qcurve" smooth="yes"/>
      <point x="214" y="1206" type="line" smooth="yes"/>
      <point x="230" y="1296"/>
      <point x="314" y="1368"/>
      <point x="405" y="1368" type="qcurve" smooth="yes"/>
      <point x="433" y="1368" type="line" smooth="yes"/>
      <point x="524" y="1368"/>
      <point x="582" y="1296"/>
      <point x="566" y="1206" type="qcurve" smooth="yes"/>
      <point x="514" y="906" type="line"/>
      <point x="556" y="914" type="line"/>
      <point x="606" y="1204" type="line" smooth="yes"/>
      <point x="625" y="1311"/>
      <point x="548" y="1404"/>
      <point x="441" y="1404" type="qcurve" smooth="yes"/>
      <point x="409" y="1404" type="line" smooth="yes"/>
      <point x="303" y="1404"/>
      <point x="193" y="1311"/>
    </contour>
    <contour>
      <point x="404" y="1529" type="qcurve" smooth="yes"/>
      <point x="436" y="1529" type="line" smooth="yes"/>
      <point x="454" y="1529"/>
      <point x="461" y="1535"/>
      <point x="464" y="1553" type="qcurve"/>
      <point x="472" y="1595" type="line" smooth="yes"/>
      <point x="475" y="1613"/>
      <point x="470" y="1619"/>
      <point x="452" y="1619" type="qcurve" smooth="yes"/>
      <point x="420" y="1619" type="line" smooth="yes"/>
      <point x="402" y="1619"/>
      <point x="395" y="1613"/>
      <point x="392" y="1595" type="qcurve"/>
      <point x="384" y="1553" type="line" smooth="yes"/>
      <point x="381" y="1535"/>
      <point x="386" y="1529"/>
    </contour>
  </outline>
</glyph>
<glyph name="Ccaron" format="2">
  <advance width="567"/>
  <unicode hex="010C"/>
  <anchor x="511" y="1884" name="top"/>
  <anchor x="155" y="-154" name="bottom"/>
  <anchor x="337" y="1704" name="topright"/>
  <outline>
    <contour>
      <point x="174" y="1204" type="qcurve" smooth="yes"/>
      <point x="-2" y="192" type="line" smooth="yes"/>
      <point x="-21" y="85"/>
      <point x="56" y="-8"/>
      <point x="163" y="-8" type="qcurve" smooth="yes"/>
      <point x="195" y="-8" type="line" smooth="yes"/>
      <point x="302" y="-8"/>
      <point x="411" y="85"/>
      <point x="430" y="192" type="qcurve" smooth="yes"/>
      <point x="485" y="512" type="line"/>
      <point x="447" y="520" type="line"/>
      <point x="389" y="190" type="line" smooth="yes"/>
      <point x="373" y="100"/>
      <point x="290" y="28"/>
      <point x="199" y="28" type="qcurve" smooth="yes"/>
      <point x="171" y="28" type="line" smooth="yes"/>
      <point x="80" y="28"/>
      <point x="21" y="100"/>
      <point x="37" y="190" type="qcurve" smooth="yes"/>
      <point x="214" y="1206" type="line" smooth="yes"/>
      <point x="230" y="1296"/>
      <point x="314" y="1368"/>
      <point x="405" y="1368" type="qcurve" smooth="yes"/>
      <point x="433" y="1368" type="line" smooth="yes"/>
      <point x="524" y="1368"/>
      <point x="582" y="1296"/>
      <point x="566" y="1206" type="qcurve" smooth="yes"/>
      <point x="514" y="906" type="line"/>
      <point x="556" y="914" type="line"/>
      <point x="606" y="1204" type="line" smooth="yes"/>
      <point x="625" y="1311"/>
      <point x="548" y="1404"/>
      <point x="441" y="1404" type="qcurve" smooth="yes"/>
      <point x="409" y="1404" type="line" smooth="yes"/>
      <point x="303" y="1404"/>
      <point x="193" y="1311"/>
    </contour>
    <contour>
      <point x="636" y="1804" type="line"/>
      <point x="597" y="1804" type="line"/>
      <point x="447" y="1533" type="line"/>
      <point x="392" y="1804" type="line"/>
      <point x="355" y="1804" type="line"/>
      <point x="424" y="1489" type="line"/>
      <point x="459" y="1489" type="line"/>
    </contour>
  </outline>
</glyph>
<glyph name="dcaron" format="2">
  <advance width="495"/>
  <unicode hex="010F"/>
  <anchor x="408" y="1598" name="top"/>
  <anchor x="103" y="-150" name="bottom"/>
  <anchor x="543" y="1448" name="right"/>
  <outline>
    <contour>
      <point x="-25" y="141" type="line" smooth="yes"/>
      <point x="-38" y="68"/>
      <point x="13" y="-4"/>
      <point x="94" y="-4" type="qcurve" smooth="yes"/>
      <point x="193" y="-4" type="line" smooth="yes"/>
      <point x="219" y="-4"/>
      <point x="248" y="4"/>
      <point x="256" y="12" type="qcurve"/>
      <point x="254" y="0" type="line"/>
      <point x="290" y="0" type="line"/>
      <point x="543" y="1448" type="line"/>
      <point x="507" y="1448" type="line"/>
      <point x="426" y="988" type="line"/>
      <point x="420" y="996"/>
      <point x="393" y="1004"/>
      <point x="367" y="1004" type="qcurve" smooth="yes"/>
      <point x="270" y="1004" type="line" smooth="yes"/>
      <point x="189" y="1004"/>
      <point x="113" y="932"/>
      <point x="100" y="859" type="qcurve" smooth="yes"/>
    </contour>
    <contour>
      <point x="424" y="972" type="line"/>
      <point x="259" y="28" type="line"/>
      <point x="100" y="28" type="line" smooth="yes"/>
      <point x="43" y="28"/>
      <point x="0" y="80"/>
      <point x="11" y="144" type="qcurve" smooth="yes"/>
      <point x="135" y="856" type="line" smooth="yes"/>
      <point x="146" y="920"/>
      <point x="208" y="972"/>
      <point x="265" y="972" type="qcurve" smooth="yes"/>
    </contour>
    <contour>
      <point x="576" y="1113" type="line"/>
      <point x="607" y="1120" type="line"/>
      <point x="698" y="1448" type="line"/>
      <point x="665" y="1448" type="line"/>
    </contour>
  </outline>
</glyph>
<glyph name="dcroat" format="2">
  <advance width="514"/>
  <unicode hex="0111"/>
  <anchor x="412" y="1598" name="top"/>
  <outline>
    <contour>
      <point x="96" y="-4" type="qcurve" smooth="yes"/>
      <point x="195" y="-4" type="line" smooth="yes"/>
      <point x="220.656" y="-4"/>
      <point x="250.454" y="4.454"/>
      <point x="258" y="12" type="qcurve"/>
      <point x="256" y="0" type="line"/>
      <point x="292" y="0" type="line"/>
      <point x="497" y="1188" type="line"/>
      <point x="569" y="1188" type="line"/>
      <point x="574" y="1220" type="line"/>
      <point x="503" y="1220" type="line"/>
      <point x="542" y="1448" type="line"/>
      <point x="506" y="1448" type="line"/>
      <point x="466" y="1220" type="line"/>
      <point x="323" y="1220" type="line"/>
      <point x="318" y="1188" type="line"/>
      <point x="461" y="1188" type="line"/>
      <point x="426" y="988" type="line"/>
      <point x="419.963" y="995.546"/>
      <point x="392.656" y="1004"/>
      <point x="367" y="1004" type="qcurve" smooth="yes"/>
      <point x="270" y="1004" type="line" smooth="yes"/>
      <point x="189.258" y="1004"/>
      <point x="112.828" y="932.196"/>
      <point x="100" y="859" type="qcurve" smooth="yes"/>
      <point x="-24" y="141" type="line" smooth="yes"/>
      <point x="-36.0736" y="67.8038"/>
      <point x="15.2578" y="-4"/>
    </contour>
    <contour>
      <point x="424" y="972" type="line"/>
      <point x="261" y="28" type="line"/>
      <point x="102" y="28" type="line" smooth="yes"/>
      <point x="44.6504" y="28"/>
      <point x="1.4356" y="79.1044"/>
      <point x="12" y="144" type="qcurve" smooth="yes"/>
      <point x="135" y="856" type="line" smooth="yes"/>
      <point x="146.319" y="920.896"/>
      <point x="207.65" y="972"/>
      <point x="265" y="972" type="qcurve" smooth="yes"/>
    </contour>
  </outline>
</glyph>
<glyph name="Emacron" format="2">
  <advance width="504"/>
  <unicode hex="0112"/>
  <anchor x="468" y="1715" name="top"/>
  <anchor x="142" y="-150" name="bottom"/>
  <anchor x="379" y="0" name="ogonek"/>
  <outline>
    <contour>
      <point x="-22" y="0" type="line"/>
      <point x="382" y="0" type="line"/>
      <point x="388" y="36" type="line"/>
      <point x="24" y="36" type="line"/>
      <point x="140" y="700" type="line"/>
      <point x="464" y="700" type="line"/>
      <point x="470" y="736" type="line"/>
      <point x="146" y="736" type="line"/>
      <point x="256" y="1364" type="line"/>
      <point x="606" y="1364" type="line"/>
      <point x="612" y="1400" type="line"/>
      <point x="222" y="1400" type="line"/>
    </contour>
    <contour>
      <point x="310" y="1579" type="line"/>
      <point x="578" y="1579" type="line"/>
      <point x="584" y="1615" type="line"/>
      <point x="316" y="1615" type="line"/>
    </contour>
  </outline>
</glyph>
<glyph name="Ebreve" format="2">
  <advance width="507"/>
  <unicode hex="0114"/>
  <anchor x="497" y="1860" name="top"/>
  <anchor x="145" y="-150" name="bottom"/>
  <anchor x="382" y="0" name="ogonek"/>
  <anchor x="382" y="0" name="ogonek_out"/>
  <outline>
    <contour>
      <point x="-22" y="0" type="line"/>
      <point x="382" y="0" type="line"/>
      <point x="388" y="36" type="line"/>
      <point x="24" y="36" type="line"/>
      <point x="140" y="700" type="line"/>
      <point x="464" y="700" type="line"/>
      <point x="470" y="736" type="line"/>
      <point x="146" y="736" type="line"/>
      <point x="256" y="1364" type="line"/>
      <point x="606" y="1364" type="line"/>
      <point x="612" y="1400" type="line"/>
      <point x="222" y="1400" type="line"/>
    </contour>
    <contour>
      <point x="445" y="1542" type="qcurve" smooth="yes"/>
      <point x="480" y="1542"/>
      <point x="535" y="1558"/>
      <point x="577" y="1606"/>
      <point x="609" y="1691"/>
      <point x="621" y="1760" type="qcurve"/>
      <point x="587" y="1760" type="line"/>
      <point x="576" y="1697"/>
      <point x="549" y="1624"/>
      <point x="516" y="1588"/>
      <point x="474" y="1578"/>
      <point x="447" y="1578" type="qcurve" smooth="yes"/>
      <point x="420" y="1578"/>
      <point x="381" y="1588"/>
      <point x="360" y="1624"/>
      <point x="360" y="1697"/>
      <point x="371" y="1760" type="qcurve"/>
      <point x="337" y="1760" type="line"/>
      <point x="325" y="1691"/>
      <point x="329" y="1606"/>
      <point x="358" y="1558"/>
      <point x="410" y="1542"/>
    </contour>
  </outline>
</glyph>
<glyph name="edotaccent" format="2">
  <advance width="472"/>
  <unicode hex="0117"/>
  <anchor x="347" y="1351" name="top"/>
  <anchor x="85" y="-150" name="bottom"/>
  <anchor x="183" y="0" name="ogonek"/>
  <outline>
    <contour>
      <point x="-25" y="141" type="line" smooth="yes"/>
      <point x="-38" y="68"/>
      <point x="13" y="-4"/>
      <point x="94" y="-4" type="qcurve" smooth="yes"/>
      <point x="140" y="-4" type="line" smooth="yes"/>
      <point x="221" y="-4"/>
      <point x="298" y="68"/>
      <point x="311" y="141" type="qcurve" smooth="yes"/>
      <point x="329" y="246" type="line"/>
      <point x="294" y="254" type="line"/>
      <point x="275" y="144" type="line" smooth="yes"/>
      <point x="264" y="80"/>
      <point x="203" y="28"/>
      <point x="146" y="28" type="qcurve" smooth="yes"/>
      <point x="100" y="28" type="line" smooth="yes"/>
      <point x="43" y="28"/>
      <point x="0" y="80"/>
      <point x="11" y="144" type="qcurve" smooth="yes"/>
      <point x="71" y="488" type="line"/>
      <point x="371" y="488" type="line"/>
      <point x="436" y="859" type="line" smooth="yes"/>
      <point x="449" y="932"/>
      <point x="397" y="1004"/>
      <point x="316" y="1004" type="qcurve" smooth="yes"/>
      <point x="270" y="1004" type="line" smooth="yes"/>
      <point x="189" y="1004"/>
      <point x="113" y="932"/>
      <point x="100" y="859" type="qcurve" smooth="yes"/>
    </contour>
    <contour>
      <point x="77" y="520" type="line"/>
      <point x="135" y="856" type="line" smooth="yes"/>
      <point x="146" y="920"/>
      <point x="208" y="972"/>
      <point x="265" y="972" type="qcurve" smooth="yes"/>
      <point x="311" y="972" type="line" smooth="yes"/>
      <point x="368" y="972"/>
      <point x="410" y="920"/>
      <point x="399" y="856" type="qcurve" smooth="yes"/>
      <point x="341" y="520" type="line"/>
    </contour>
    <contour>
      <point x="291" y="1125" type="qcurve" smooth="yes"/>
      <point x="323" y="1125" type="line" smooth="yes"/>
      <point x="341" y="1125"/>
      <point x="348" y="1131"/>
      <point x="351" y="1149" type="qcurve"/>
      <point x="359" y="1191" type="line" smooth="yes"/>
      <point x="362" y="1209"/>
      <point x="357" y="1215"/>
      <point x="339" y="1215" type="qcurve" smooth="yes"/>
      <point x="307" y="1215" type="line" smooth="yes"/>
      <point x="289" y="1215"/>
      <point x="282" y="1209"/>
      <point x="279" y="1191" type="qcurve"/>
      <point x="271" y="1149" type="line" smooth="yes"/>
      <point x="268" y="1131"/>
      <point x="273" y="1125"/>
    </contour>
  </outline>
  <guideline angle="0" color="1,0,0,1" x="0" y="-1004"/>
</glyph>
<glyph name="Eogonek" format="2">
  <advance width="503"/>
  <unicode hex="0118"/>
  <anchor x="439" y="1550" name="top"/>
  <anchor x="142" y="-150" name="bottom"/>
  <anchor x="379" y="0" name="ogonek"/>
  <outline>
    <contour>
      <point x="-22" y="0" type="line"/>
      <point x="382" y="0" type="line"/>
      <point x="388" y="36" type="line"/>
      <point x="24" y="36" type="line"/>
      <point x="140" y="700" type="line"/>
      <point x="464" y="700" type="line"/>
      <point x="470" y="736" type="line"/>
      <point x="146" y="736" type="line"/>
      <point x="256" y="1364" type="line"/>
      <point x="606" y="1364" type="line"/>
      <point x="612" y="1400" type="line"/>
      <point x="222" y="1400" type="line"/>
    </contour>
    <contour>
      <point x="243.329" y="-359" type="qcurve" smooth="yes"/>
      <point x="264" y="-359"/>
      <point x="301" y="-348"/>
      <point x="319" y="-338" type="qcurve"/>
      <point x="325" y="-308" type="line"/>
      <point x="305" y="-319"/>
      <point x="270" y="-329"/>
      <point x="253" y="-329" type="qcurve" smooth="yes"/>
      <point x="218" y="-329"/>
      <point x="187" y="-285"/>
      <point x="195" y="-242" type="qcurve" smooth="yes"/>
      <point x="205" y="-186"/>
      <point x="298" y="-61"/>
      <point x="379" y="0" type="qcurve"/>
      <point x="339" y="0" type="line"/>
      <point x="258" y="-66"/>
      <point x="172" y="-189"/>
      <point x="162" y="-246" type="qcurve" smooth="yes"/>
      <point x="152" y="-300"/>
      <point x="196" y="-359"/>
    </contour>
  </outline>
</glyph>
<glyph name="eogonek" format="2">
  <advance width="472"/>
  <unicode hex="0119"/>
  <anchor x="312" y="1150" name="top"/>
  <anchor x="85" y="-150" name="bottom"/>
  <anchor x="183" y="0" name="ogonek"/>
  <outline>
    <contour>
      <point x="-25" y="141" type="line" smooth="yes"/>
      <point x="-38" y="68"/>
      <point x="13" y="-4"/>
      <point x="94" y="-4" type="qcurve" smooth="yes"/>
      <point x="140" y="-4" type="line" smooth="yes"/>
      <point x="221" y="-4"/>
      <point x="298" y="68"/>
      <point x="311" y="141" type="qcurve" smooth="yes"/>
      <point x="329" y="246" type="line"/>
      <point x="294" y="254" type="line"/>
      <point x="275" y="144" type="line" smooth="yes"/>
      <point x="264" y="80"/>
      <point x="203" y="28"/>
      <point x="146" y="28" type="qcurve" smooth="yes"/>
      <point x="100" y="28" type="line" smooth="yes"/>
      <point x="43" y="28"/>
      <point x="0" y="80"/>
      <point x="11" y="144" type="qcurve" smooth="yes"/>
      <point x="71" y="488" type="line"/>
      <point x="371" y="488" type="line"/>
      <point x="436" y="859" type="line" smooth="yes"/>
      <point x="449" y="932"/>
      <point x="397" y="1004"/>
      <point x="316" y="1004" type="qcurve" smooth="yes"/>
      <point x="270" y="1004" type="line" smooth="yes"/>
      <point x="189" y="1004"/>
      <point x="113" y="932"/>
      <point x="100" y="859" type="qcurve" smooth="yes"/>
    </contour>
    <contour>
      <point x="77" y="520" type="line"/>
      <point x="135" y="856" type="line" smooth="yes"/>
      <point x="146" y="920"/>
      <point x="208" y="972"/>
      <point x="265" y="972" type="qcurve" smooth="yes"/>
      <point x="311" y="972" type="line" smooth="yes"/>
      <point x="368" y="972"/>
      <point x="410" y="920"/>
      <point x="399" y="856" type="qcurve" smooth="yes"/>
      <point x="341" y="520" type="line"/>
    </contour>
    <contour>
      <point x="50.9459" y="-359" type="qcurve" smooth="yes"/>
      <point x="69" y="-359"/>
      <point x="103" y="-349"/>
      <point x="123" y="-338" type="qcurve"/>
      <point x="129" y="-308" type="line"/>
      <point x="111" y="-319"/>
      <point x="76" y="-329"/>
      <point x="60" y="-329" type="qcurve" smooth="yes"/>
      <point x="27" y="-329"/>
      <point x="1" y="-288"/>
      <point x="8" y="-248" type="qcurve" smooth="yes"/>
      <point x="17" y="-199"/>
      <point x="95" y="-87"/>
      <point x="183" y="0" type="qcurve"/>
      <point x="147" y="0" type="line"/>
      <point x="66" y="-81"/>
      <point x="-17" y="-202"/>
      <point x="-26" y="-252" type="qcurve" smooth="yes"/>
      <point x="-35" y="-300"/>
      <point x="7" y="-359"/>
    </contour>
  </outline>
  <guideline angle="0" color="1,0,0,1" x="0" y="-1004"/>
</glyph>
<glyph name="Ecaron" format="2">
  <advance width="504"/>
  <unicode hex="011A"/>
  <anchor x="497" y="1880" name="top"/>
  <anchor x="142" y="-150" name="bottom"/>
  <anchor x="379" y="0" name="ogonek"/>
  <anchor x="323" y="1700" name="topright"/>
  <outline>
    <contour>
      <point x="-22" y="0" type="line"/>
      <point x="382" y="0" type="line"/>
      <point x="388" y="36" type="line"/>
      <point x="24" y="36" type="line"/>
      <point x="140" y="700" type="line"/>
      <point x="464" y="700" type="line"/>
      <point x="470" y="736" type="line"/>
      <point x="146" y="736" type="line"/>
      <point x="256" y="1364" type="line"/>
      <point x="606" y="1364" type="line"/>
      <point x="612" y="1400" type="line"/>
      <point x="222" y="1400" type="line"/>
    </contour>
    <contour>
      <point x="622" y="1800" type="line"/>
      <point x="583" y="1800" type="line"/>
      <point x="433" y="1529" type="line"/>
      <point x="378" y="1800" type="line"/>
      <point x="341" y="1800" type="line"/>
      <point x="410" y="1485" type="line"/>
      <point x="445" y="1485" type="line"/>
    </contour>
  </outline>
</glyph>
<glyph name="gcircumflex" format="2">
  <advance width="488"/>
  <unicode hex="011D"/>
  <anchor x="368" y="1490" name="top"/>
  <anchor x="244" y="-578" name="bottom"/>
  <anchor x="454" y="1243" name="topright"/>
  <outline>
    <contour>
      <point x="11" y="144" type="qcurve" smooth="yes"/>
      <point x="135" y="856" type="line" smooth="yes"/>
      <point x="144.81" y="912.595"/>
      <point x="200.859" y="972"/>
      <point x="265" y="972" type="qcurve" smooth="yes"/>
      <point x="424" y="972" type="line"/>
      <point x="259" y="28" type="line"/>
      <point x="100" y="28" type="line" smooth="yes"/>
      <point x="35.859" y="28"/>
      <point x="1.1902" y="87.405"/>
    </contour>
    <contour>
      <point x="-95" y="-428" type="line"/>
      <point x="70" y="-428" type="line" smooth="yes"/>
      <point x="106.375" y="-428"/>
      <point x="163.562" y="-412.781"/>
      <point x="205.938" y="-378.469"/>
      <point x="233.875" y="-323.125"/>
      <point x="241" y="-283" type="qcurve" smooth="yes"/>
      <point x="465" y="1000" type="line"/>
      <point x="429" y="1000" type="line"/>
      <point x="426" y="988" type="line"/>
      <point x="419.963" y="995.546"/>
      <point x="392.656" y="1004"/>
      <point x="367" y="1004" type="qcurve" smooth="yes"/>
      <point x="270" y="1004" type="line" smooth="yes"/>
      <point x="196.804" y="1004"/>
      <point x="114.337" y="939.742"/>
      <point x="100" y="859" type="qcurve" smooth="yes"/>
      <point x="-25" y="141" type="line" smooth="yes"/>
      <point x="-39.3374" y="60.2578"/>
      <point x="20.8038" y="-4"/>
      <point x="94" y="-4" type="qcurve" smooth="yes"/>
      <point x="193" y="-4" type="line" smooth="yes"/>
      <point x="218.656" y="-4"/>
      <point x="248.454" y="4.454"/>
      <point x="256" y="12" type="qcurve"/>
      <point x="205" y="-280" type="line" smooth="yes"/>
      <point x="195.19" y="-336.595"/>
      <point x="134.859" y="-396"/>
      <point x="76" y="-396" type="qcurve" smooth="yes"/>
      <point x="-99" y="-396" type="line"/>
    </contour>
    <contour>
      <point x="170" y="1095" type="line"/>
      <point x="204" y="1095" type="line"/>
      <point x="345" y="1350" type="line"/>
      <point x="397" y="1095" type="line"/>
      <point x="428" y="1095" type="line"/>
      <point x="366" y="1390" type="line"/>
      <point x="337" y="1390" type="line"/>
    </contour>
  </outline>
</glyph>
<glyph name="Gbreve" format="2">
  <advance width="589"/>
  <unicode hex="011E"/>
  <anchor x="511" y="1864" name="top"/>
  <anchor x="158" y="-154" name="bottom"/>
  <outline>
    <contour>
      <point x="175" y="1208" type="qcurve" smooth="yes"/>
      <point x="-2" y="192" type="line" smooth="yes"/>
      <point x="-20.865" y="84.8468"/>
      <point x="55.8468" y="-8"/>
      <point x="163" y="-8" type="qcurve" smooth="yes"/>
      <point x="201" y="-8" type="line" smooth="yes"/>
      <point x="308.153" y="-8"/>
      <point x="417.135" y="84.8468"/>
      <point x="436" y="192" type="qcurve" smooth="yes"/>
      <point x="524" y="700" type="line"/>
      <point x="306" y="700" type="line"/>
      <point x="300" y="664" type="line"/>
      <point x="478" y="664" type="line"/>
      <point x="395" y="190" type="line" smooth="yes"/>
      <point x="379.153" y="100.203"/>
      <point x="296.307" y="28"/>
      <point x="205" y="28" type="qcurve" smooth="yes"/>
      <point x="171" y="28" type="line" smooth="yes"/>
      <point x="79.6934" y="28"/>
      <point x="21.1534" y="100.203"/>
      <point x="37" y="190" type="qcurve" smooth="yes"/>
      <point x="215" y="1210" type="line" smooth="yes"/>
      <point x="230.847" y="1299.8"/>
      <point x="313.693" y="1372"/>
      <point x="405" y="1372" type="qcurve" smooth="yes"/>
      <point x="439" y="1372" type="line" smooth="yes"/>
      <point x="530.307" y="1372"/>
      <point x="588.847" y="1299.8"/>
      <point x="573" y="1210" type="qcurve" smooth="yes"/>
      <point x="537" y="1000" type="line"/>
      <point x="578" y="1008" type="line"/>
      <point x="613" y="1208" type="line" smooth="yes"/>
      <point x="631.75" y="1314.5"/>
      <point x="554.5" y="1408"/>
      <point x="448" y="1408" type="qcurve" smooth="yes"/>
      <point x="410" y="1408" type="line" smooth="yes"/>
      <point x="303.5" y="1408"/>
      <point x="193.75" y="1314.5"/>
    </contour>
    <contour>
      <point x="351" y="1764" type="line"/>
      <point x="338.625" y="1695"/>
      <point x="342.844" y="1609.62"/>
      <point x="371.906" y="1562.38"/>
      <point x="423.75" y="1546"/>
      <point x="459" y="1546" type="qcurve" smooth="yes"/>
      <point x="494.25" y="1546"/>
      <point x="548.781" y="1562.38"/>
      <point x="590.969" y="1609.62"/>
      <point x="622.625" y="1695"/>
      <point x="635" y="1764" type="qcurve"/>
      <point x="601" y="1764" type="line"/>
      <point x="589.75" y="1701"/>
      <point x="563.438" y="1628.38"/>
      <point x="530.062" y="1591.62"/>
      <point x="488" y="1582"/>
      <point x="461" y="1582" type="qcurve" smooth="yes"/>
      <point x="434" y="1582"/>
      <point x="395.062" y="1591.62"/>
      <point x="374.438" y="1628.38"/>
      <point x="373.75" y="1701"/>
      <point x="385" y="1764" type="qcurve"/>
    </contour>
  </outline>
  <guideline angle="0" x="0" y="574"/>
  <guideline angle="0" x="0" y="1036"/>
  <guideline angle="0" x="0" y="980"/>
  <guideline angle="0" x="0" y="806"/>
  <guideline angle="0" x="0" y="700"/>
  <guideline angle="0" x="0" y="906"/>
  <guideline angle="0" x="0" y="494"/>
</glyph>
